RecursiveMonoVar-StrictLight.ufo
<glyph name="exclam" format="1">
  <advance width="600"/>
  <unicode hex="0021"/>
  <outline>
    <contour>
      <point x="325" y="243" type="line"/>
      <point x="329" y="329"/>
      <point x="334" y="416"/>
      <point x="338" y="502" type="curve"/>
      <point x="338" y="689" type="line" smooth="yes"/>
      <point x="338" y="696"/>
      <point x="333" y="700"/>
      <point x="327" y="700" type="curve" smooth="yes"/>
      <point x="304" y="700"/>
      <point x="283" y="700"/>
      <point x="262" y="700" type="curve"/>
      <point x="262" y="662"/>
      <point x="262" y="627"/>
      <point x="262" y="590" type="curve" smooth="yes"/>
      <point x="262" y="502" type="line"/>
      <point x="273" y="256"/>
      <point x="274" y="250"/>
      <point x="278" y="246" type="curve" smooth="yes"/>
      <point x="280" y="244"/>
      <point x="282" y="243"/>
      <point x="286" y="243" type="curve"/>
    </contour>
    <contour>
      <point x="364" y="-5" type="curve"/>
      <point x="364" y="108" type="line" smooth="yes"/>
      <point x="364" y="114"/>
      <point x="359" y="119"/>
      <point x="353" y="119" type="curve" smooth="yes"/>
      <point x="321" y="119"/>
      <point x="268" y="119"/>
      <point x="236" y="119" type="curve"/>
      <point x="236" y="6" type="line" smooth="yes"/>
      <point x="236" y="0"/>
      <point x="241" y="-5"/>
      <point x="247" y="-5" type="curve" smooth="yes"/>
      <point x="279" y="-5"/>
      <point x="332" y="-5"/>
    </contour>
  </outline>
</glyph>
<glyph name="numbersign" format="1">
  <advance width="600"/>
  <unicode hex="0023"/>
  <outline>
    <contour>
      <point x="232" y="720" type="curve"/>
      <point x="183" y="474"/>
      <point x="133" y="226"/>
      <point x="84" y="-20" type="curve"/>
      <point x="99" y="-20"/>
      <point x="113" y="-20"/>
      <point x="127" y="-20" type="curve"/>
      <point x="134" y="-20"/>
      <point x="139" y="-19"/>
      <point x="141" y="-9" type="curve" smooth="yes"/>
      <point x="189" y="230"/>
      <point x="238" y="470"/>
      <point x="285" y="709" type="curve" smooth="yes"/>
      <point x="287" y="718"/>
      <point x="283" y="720"/>
      <point x="276" y="720" type="curve" smooth="yes"/>
      <point x="262" y="720"/>
      <point x="247" y="720"/>
    </contour>
    <contour>
      <point x="453" y="720" type="curve"/>
      <point x="404" y="474"/>
      <point x="354" y="226"/>
      <point x="305" y="-20" type="curve"/>
      <point x="319" y="-20"/>
      <point x="333" y="-20"/>
      <point x="347" y="-20" type="curve"/>
      <point x="354" y="-20"/>
      <point x="359" y="-19"/>
      <point x="361" y="-9" type="curve" smooth="yes"/>
      <point x="409" y="230"/>
      <point x="458" y="470"/>
      <point x="505" y="709" type="curve" smooth="yes"/>
      <point x="507" y="718"/>
      <point x="503" y="720"/>
      <point x="496" y="720" type="curve" smooth="yes"/>
      <point x="482" y="720"/>
      <point x="467" y="720"/>
    </contour>
    <contour>
      <point x="580" y="449" type="line"/>
      <point x="580" y="462"/>
      <point x="580" y="479"/>
      <point x="580" y="492" type="curve" smooth="yes"/>
      <point x="580" y="495"/>
      <point x="579" y="498"/>
      <point x="577" y="500" type="curve" smooth="yes"/>
      <point x="575" y="502"/>
      <point x="572" y="503"/>
      <point x="569" y="503" type="curve"/>
      <point x="60" y="503" type="line"/>
      <point x="60" y="490"/>
      <point x="60" y="473"/>
      <point x="60" y="460" type="curve" smooth="yes"/>
      <point x="60" y="454"/>
      <point x="65" y="449"/>
      <point x="71" y="449" type="curve"/>
    </contour>
    <contour>
      <point x="20" y="250" type="line"/>
      <point x="20" y="237"/>
      <point x="20" y="221"/>
      <point x="20" y="208" type="curve" smooth="yes"/>
      <point x="20" y="205"/>
      <point x="21" y="202"/>
      <point x="23" y="200" type="curve" smooth="yes"/>
      <point x="25" y="198"/>
      <point x="28" y="197"/>
      <point x="31" y="197" type="curve"/>
      <point x="540" y="197" type="line"/>
      <point x="540" y="210"/>
      <point x="540" y="226"/>
      <point x="540" y="239" type="curve" smooth="yes"/>
      <point x="540" y="245"/>
      <point x="535" y="250"/>
      <point x="529" y="250" type="curve"/>
    </contour>
  </outline>
</glyph>
<glyph name="percent" format="1">
  <advance width="600"/>
  <unicode hex="0025"/>
  <outline>
    <contour>
      <point x="176" y="660" type="curve"/>
      <point x="241" y="660"/>
      <point x="269" y="622"/>
      <point x="269" y="558" type="curve" smooth="yes"/>
      <point x="269" y="511" type="line" smooth="yes"/>
      <point x="269" y="446"/>
      <point x="238" y="407"/>
      <point x="178" y="407" type="curve" smooth="yes"/>
      <point x="136" y="407"/>
      <point x="114" y="412"/>
      <point x="89" y="431" type="curve"/>
      <point x="62" y="399"/>
      <point x="117" y="356"/>
      <point x="174" y="356" type="curve" smooth="yes"/>
      <point x="269" y="356"/>
      <point x="323" y="416"/>
      <point x="323" y="510" type="curve" smooth="yes"/>
      <point x="323" y="558" type="line" smooth="yes"/>
      <point x="323" y="649"/>
      <point x="272" y="710"/>
      <point x="180" y="710" type="curve" smooth="yes"/>
      <point x="168" y="710"/>
      <point x="166" y="697"/>
    </contour>
    <contour>
      <point x="178" y="407" type="curve"/>
      <point x="113" y="407"/>
      <point x="85" y="444"/>
      <point x="85" y="508" type="curve" smooth="yes"/>
      <point x="85" y="556" type="line" smooth="yes"/>
      <point x="85" y="620"/>
      <point x="116" y="660"/>
      <point x="176" y="660" type="curve" smooth="yes"/>
      <point x="218" y="660"/>
      <point x="240" y="654"/>
      <point x="265" y="635" type="curve"/>
      <point x="292" y="667"/>
      <point x="238" y="710"/>
      <point x="180" y="710" type="curve" smooth="yes"/>
      <point x="85" y="710"/>
      <point x="31" y="650"/>
      <point x="31" y="556" type="curve" smooth="yes"/>
      <point x="31" y="508" type="line" smooth="yes"/>
      <point x="31" y="417"/>
      <point x="82" y="356"/>
      <point x="174" y="356" type="curve" smooth="yes"/>
      <point x="186" y="356"/>
      <point x="188" y="369"/>
    </contour>
    <contour>
      <point x="422" y="293" type="curve"/>
      <point x="487" y="293"/>
      <point x="515" y="256"/>
      <point x="515" y="192" type="curve" smooth="yes"/>
      <point x="515" y="144" type="line" smooth="yes"/>
      <point x="515" y="80"/>
      <point x="484" y="40"/>
      <point x="424" y="40" type="curve" smooth="yes"/>
      <point x="382" y="40"/>
      <point x="360" y="46"/>
      <point x="335" y="65" type="curve"/>
      <point x="308" y="33"/>
      <point x="362" y="-10"/>
      <point x="420" y="-10" type="curve" smooth="yes"/>
      <point x="515" y="-10"/>
      <point x="569" y="50"/>
      <point x="569" y="144" type="curve" smooth="yes"/>
      <point x="569" y="192" type="line" smooth="yes"/>
      <point x="569" y="283"/>
      <point x="518" y="344"/>
      <point x="426" y="344" type="curve" smooth="yes"/>
      <point x="414" y="344"/>
      <point x="412" y="331"/>
    </contour>
    <contour>
      <point x="424" y="40" type="curve"/>
      <point x="359" y="40"/>
      <point x="331" y="78"/>
      <point x="331" y="142" type="curve" smooth="yes"/>
      <point x="331" y="189" type="line" smooth="yes"/>
      <point x="331" y="254"/>
      <point x="362" y="293"/>
      <point x="422" y="293" type="curve" smooth="yes"/>
      <point x="464" y="293"/>
      <point x="486" y="288"/>
      <point x="511" y="269" type="curve"/>
      <point x="538" y="301"/>
      <point x="483" y="344"/>
      <point x="426" y="344" type="curve" smooth="yes"/>
      <point x="331" y="344"/>
      <point x="277" y="284"/>
      <point x="277" y="190" type="curve" smooth="yes"/>
      <point x="277" y="142" type="line" smooth="yes"/>
      <point x="277" y="51"/>
      <point x="328" y="-10"/>
      <point x="420" y="-10" type="curve" smooth="yes"/>
      <point x="432" y="-10"/>
      <point x="434" y="3"/>
    </contour>
    <contour>
      <point x="370" y="405" type="curve"/>
      <point x="387" y="405"/>
      <point x="403" y="405"/>
      <point x="420" y="405" type="curve" smooth="yes"/>
      <point x="425" y="405"/>
      <point x="427" y="406"/>
      <point x="430" y="412" type="curve" smooth="yes"/>
      <point x="477" y="507"/>
      <point x="525" y="602"/>
      <point x="572" y="697" type="curve" smooth="yes"/>
      <point x="576" y="705"/>
      <point x="572" y="710"/>
      <point x="564" y="710" type="curve" smooth="yes"/>
      <point x="542" y="710"/>
      <point x="521" y="710"/>
      <point x="499" y="710" type="curve"/>
      <point x="455" y="608"/>
      <point x="413" y="507"/>
    </contour>
    <contour>
      <point x="230" y="296" type="curve"/>
      <point x="213" y="296"/>
      <point x="197" y="296"/>
      <point x="180" y="296" type="curve" smooth="yes"/>
      <point x="175" y="296"/>
      <point x="173" y="295"/>
      <point x="170" y="289" type="curve" smooth="yes"/>
      <point x="123" y="194"/>
      <point x="75" y="99"/>
      <point x="28" y="4" type="curve" smooth="yes"/>
      <point x="24" y="-4"/>
      <point x="28" y="-9"/>
      <point x="36" y="-9" type="curve" smooth="yes"/>
      <point x="58" y="-9"/>
      <point x="79" y="-9"/>
      <point x="101" y="-9" type="curve"/>
      <point x="145" y="93"/>
      <point x="187" y="194"/>
    </contour>
  </outline>
</glyph>
<glyph name="ampersand" format="1">
  <advance width="600"/>
  <unicode hex="0026"/>
  <outline>
    <contour>
      <point x="300" y="709" type="curve" smooth="yes"/>
      <point x="176" y="709"/>
      <point x="103" y="633"/>
      <point x="103" y="554" type="curve" smooth="yes"/>
      <point x="103" y="497"/>
      <point x="139" y="494"/>
      <point x="160" y="494" type="curve"/>
      <point x="160" y="516"/>
      <point x="160" y="529"/>
      <point x="160" y="553" type="curve" smooth="yes"/>
      <point x="160" y="603"/>
      <point x="217" y="654"/>
      <point x="299" y="654" type="curve" smooth="yes"/>
      <point x="365" y="654"/>
      <point x="406" y="644"/>
      <point x="441" y="626" type="curve"/>
      <point x="454" y="626" type="line"/>
      <point x="454" y="641"/>
      <point x="454" y="657"/>
      <point x="454" y="671" type="curve"/>
      <point x="454" y="674"/>
      <point x="453" y="676"/>
      <point x="451" y="679" type="curve" smooth="yes"/>
      <point x="437" y="693"/>
      <point x="379" y="709"/>
    </contour>
    <contour>
      <point x="211" y="439" type="curve" smooth="yes"/>
      <point x="164" y="507"/>
      <point x="160" y="524"/>
      <point x="160" y="553" type="curve" smooth="yes"/>
      <point x="160" y="569"/>
      <point x="160" y="601"/>
      <point x="161" y="623" type="curve"/>
      <point x="133" y="623"/>
      <point x="103" y="588"/>
      <point x="103" y="554" type="curve" smooth="yes"/>
      <point x="103" y="549" type="line" smooth="yes"/>
      <point x="103" y="498"/>
      <point x="118" y="473"/>
      <point x="175" y="388" type="curve" smooth="yes"/>
      <point x="247" y="286"/>
      <point x="381" y="94"/>
      <point x="405" y="59" type="curve" smooth="yes"/>
      <point x="436" y="15"/>
      <point x="470" y="-10"/>
      <point x="519" y="-10" type="curve" smooth="yes"/>
      <point x="563" y="-10" type="line" smooth="yes"/>
      <point x="571" y="-10"/>
      <point x="574" y="-6"/>
      <point x="574" y="1" type="curve" smooth="yes"/>
      <point x="574" y="12"/>
      <point x="574" y="22"/>
      <point x="574" y="45" type="curve"/>
      <point x="569" y="45" type="line"/>
      <point x="560" y="45"/>
      <point x="532" y="45"/>
      <point x="523" y="45" type="curve" smooth="yes"/>
      <point x="496" y="45"/>
      <point x="479" y="55"/>
      <point x="460" y="80" type="curve" smooth="yes"/>
      <point x="450" y="94"/>
      <point x="313" y="291"/>
    </contour>
    <contour>
      <point x="224" y="-9" type="curve" smooth="yes"/>
      <point x="297" y="-9"/>
      <point x="353" y="16"/>
      <point x="407" y="69" type="curve" smooth="yes"/>
      <point x="414" y="77"/>
      <point x="414" y="83"/>
      <point x="381" y="115" type="curve"/>
      <point x="330" y="63"/>
      <point x="279" y="43"/>
      <point x="227" y="43" type="curve" smooth="yes"/>
      <point x="138" y="43"/>
      <point x="99" y="90"/>
      <point x="99" y="161" type="curve" smooth="yes"/>
      <point x="99" y="228" type="line" smooth="yes"/>
      <point x="99" y="303"/>
      <point x="160" y="356"/>
      <point x="241" y="356" type="curve"/>
      <point x="228" y="390"/>
      <point x="224" y="399"/>
      <point x="195" y="396" type="curve" smooth="yes"/>
      <point x="104" y="386"/>
      <point x="43" y="319"/>
      <point x="43" y="226" type="curve" smooth="yes"/>
      <point x="43" y="160" type="line" smooth="yes"/>
      <point x="43" y="49"/>
      <point x="106" y="-9"/>
    </contour>
    <contour>
      <point x="518" y="430" type="curve" smooth="yes"/>
      <point x="504" y="430"/>
      <point x="489" y="430"/>
      <point x="474" y="430" type="curve"/>
      <point x="474" y="393"/>
      <point x="474" y="369"/>
      <point x="474" y="324" type="curve" smooth="yes"/>
      <point x="474" y="243"/>
      <point x="447" y="190"/>
      <point x="405" y="139" type="curve" smooth="yes"/>
      <point x="400" y="133"/>
      <point x="397" y="126"/>
      <point x="429" y="94" type="curve"/>
      <point x="490" y="156"/>
      <point x="529" y="228"/>
      <point x="529" y="328" type="curve" smooth="yes"/>
      <point x="529" y="419" type="line" smooth="yes"/>
      <point x="529" y="425"/>
      <point x="525" y="430"/>
    </contour>
  </outline>
</glyph>
<glyph name="parenleft" format="1">
  <advance width="600"/>
  <unicode hex="0028"/>
  <outline>
    <contour>
      <point x="413" y="751" type="curve" smooth="yes"/>
      <point x="293" y="632"/>
      <point x="236" y="473"/>
      <point x="236" y="304" type="curve" smooth="yes"/>
      <point x="236" y="297" type="line" smooth="yes"/>
      <point x="236" y="127"/>
      <point x="293" y="-31"/>
      <point x="413" y="-150" type="curve" smooth="yes"/>
      <point x="417" y="-156"/>
      <point x="425" y="-158"/>
      <point x="433" y="-158" type="curve" smooth="yes"/>
      <point x="449" y="-158"/>
      <point x="464" y="-158"/>
      <point x="481" y="-158" type="curve"/>
      <point x="481" y="-146" type="line"/>
      <point x="355" y="-28"/>
      <point x="292" y="128"/>
      <point x="292" y="297" type="curve" smooth="yes"/>
      <point x="292" y="304" type="line" smooth="yes"/>
      <point x="292" y="473"/>
      <point x="355" y="629"/>
      <point x="480" y="747" type="curve"/>
      <point x="480" y="759" type="line"/>
      <point x="464" y="759"/>
      <point x="449" y="759"/>
      <point x="433" y="759" type="curve" smooth="yes"/>
      <point x="425" y="759"/>
      <point x="417" y="757"/>
    </contour>
  </outline>
</glyph>
<glyph name="parenright" format="1">
  <advance width="600"/>
  <unicode hex="0029"/>
  <outline>
    <contour>
      <point x="187" y="-150" type="curve" smooth="yes"/>
      <point x="307" y="-31"/>
      <point x="364" y="128"/>
      <point x="364" y="297" type="curve" smooth="yes"/>
      <point x="364" y="304" type="line" smooth="yes"/>
      <point x="364" y="474"/>
      <point x="307" y="632"/>
      <point x="187" y="751" type="curve" smooth="yes"/>
      <point x="183" y="757"/>
      <point x="175" y="759"/>
      <point x="167" y="759" type="curve" smooth="yes"/>
      <point x="151" y="759"/>
      <point x="136" y="759"/>
      <point x="119" y="759" type="curve"/>
      <point x="119" y="747" type="line"/>
      <point x="245" y="629"/>
      <point x="308" y="473"/>
      <point x="308" y="304" type="curve" smooth="yes"/>
      <point x="308" y="297" type="line" smooth="yes"/>
      <point x="308" y="128"/>
      <point x="245" y="-28"/>
      <point x="120" y="-146" type="curve"/>
      <point x="120" y="-158" type="line"/>
      <point x="136" y="-158"/>
      <point x="151" y="-158"/>
      <point x="167" y="-158" type="curve" smooth="yes"/>
      <point x="175" y="-158"/>
      <point x="183" y="-156"/>
    </contour>
  </outline>
</glyph>
<glyph name="asterisk" format="1">
  <advance width="600"/>
  <unicode hex="002A"/>
  <outline>
    <contour>
      <point x="261" y="568" type="curve"/>
      <point x="264" y="541"/>
      <point x="266" y="516"/>
      <point x="268" y="489" type="curve" smooth="yes"/>
      <point x="283" y="309" type="line"/>
      <point x="262" y="60" type="line" smooth="yes"/>
      <point x="262" y="54"/>
      <point x="265" y="50"/>
      <point x="272" y="50" type="curve"/>
      <point x="294" y="50"/>
      <point x="316" y="50"/>
      <point x="338" y="50" type="curve"/>
      <point x="335" y="77"/>
      <point x="333" y="102"/>
      <point x="331" y="129" type="curve" smooth="yes"/>
      <point x="316" y="309" type="line"/>
      <point x="337" y="558" type="line" smooth="yes"/>
      <point x="337" y="564"/>
      <point x="334" y="568"/>
      <point x="327" y="568" type="curve" smooth="yes"/>
      <point x="305" y="568"/>
      <point x="283" y="568"/>
    </contour>
    <contour>
      <point x="504" y="471" type="curve"/>
      <point x="291" y="322" type="line"/>
      <point x="65" y="217" type="line" smooth="yes"/>
      <point x="60" y="214"/>
      <point x="57" y="209"/>
      <point x="61" y="202" type="curve"/>
      <point x="73" y="183"/>
      <point x="83" y="165"/>
      <point x="95" y="146" type="curve"/>
      <point x="308" y="294" type="line"/>
      <point x="534" y="400" type="line" smooth="yes"/>
      <point x="539" y="403"/>
      <point x="541" y="408"/>
      <point x="537" y="414" type="curve" smooth="yes"/>
      <point x="526" y="433"/>
      <point x="515" y="452"/>
    </contour>
    <contour>
      <point x="543" y="213" type="curve"/>
      <point x="308" y="323" type="line"/>
      <point x="103" y="466" type="line" smooth="yes"/>
      <point x="98" y="469"/>
      <point x="93" y="468"/>
      <point x="89" y="462" type="curve"/>
      <point x="78" y="443"/>
      <point x="67" y="424"/>
      <point x="56" y="405" type="curve"/>
      <point x="292" y="294" type="line"/>
      <point x="497" y="152" type="line" smooth="yes"/>
      <point x="502" y="148"/>
      <point x="507" y="149"/>
      <point x="510" y="156" type="curve"/>
      <point x="521" y="175"/>
      <point x="532" y="194"/>
    </contour>
  </outline>
</glyph>
<glyph name="plus" format="1">
  <advance width="600"/>
  <unicode hex="002B"/>
  <outline>
    <contour>
      <point x="75" y="328" type="line"/>
      <point x="75" y="313"/>
      <point x="75" y="298"/>
      <point x="75" y="283" type="curve" smooth="yes"/>
      <point x="75" y="280"/>
      <point x="76" y="277"/>
      <point x="78" y="275" type="curve" smooth="yes"/>
      <point x="80" y="273"/>
      <point x="83" y="272"/>
      <point x="86" y="272" type="curve"/>
      <point x="525" y="272" type="line"/>
      <point x="525" y="287"/>
      <point x="525" y="302"/>
      <point x="525" y="317" type="curve" smooth="yes"/>
      <point x="525" y="323"/>
      <point x="520" y="328"/>
      <point x="514" y="328" type="curve"/>
    </contour>
    <contour>
      <point x="328" y="74" type="curve"/>
      <point x="328" y="516" type="line" smooth="yes"/>
      <point x="328" y="519"/>
      <point x="327" y="522"/>
      <point x="325" y="524" type="curve" smooth="yes"/>
      <point x="323" y="526"/>
      <point x="320" y="527"/>
      <point x="317" y="527" type="curve" smooth="yes"/>
      <point x="302" y="527"/>
      <point x="288" y="527"/>
      <point x="272" y="527" type="curve"/>
      <point x="272" y="510"/>
      <point x="272" y="474"/>
      <point x="272" y="427" type="curve" smooth="yes"/>
      <point x="272" y="85" type="line" smooth="yes"/>
      <point x="272" y="79"/>
      <point x="277" y="74"/>
      <point x="283" y="74" type="curve" smooth="yes"/>
      <point x="298" y="74"/>
      <point x="313" y="74"/>
    </contour>
  </outline>
</glyph>
<glyph name="comma" format="1">
  <advance width="600"/>
  <unicode hex="002C"/>
  <outline>
    <contour>
      <point x="261" y="-190" type="curve" smooth="yes"/>
      <point x="266" y="-190"/>
      <point x="269" y="-189"/>
      <point x="271" y="-183" type="curve"/>
      <point x="312" y="-89"/>
      <point x="353" y="7"/>
      <point x="393" y="99" type="curve"/>
      <point x="396" y="107"/>
      <point x="393" y="112"/>
      <point x="385" y="112" type="curve" smooth="yes"/>
      <point x="348" y="112"/>
      <point x="327" y="112"/>
      <point x="284" y="112" type="curve"/>
      <point x="260" y="12"/>
      <point x="236" y="-89"/>
      <point x="212" y="-190" type="curve"/>
      <point x="225" y="-190"/>
      <point x="240" y="-190"/>
    </contour>
  </outline>
</glyph>
<glyph name="period" format="1">
  <advance width="600"/>
  <unicode hex="002E"/>
  <outline>
    <contour>
      <point x="364" y="-5" type="curve"/>
      <point x="364" y="108" type="line" smooth="yes"/>
      <point x="364" y="114"/>
      <point x="359" y="119"/>
      <point x="353" y="119" type="curve" smooth="yes"/>
      <point x="321" y="119"/>
      <point x="268" y="119"/>
      <point x="236" y="119" type="curve"/>
      <point x="236" y="6" type="line" smooth="yes"/>
      <point x="236" y="0"/>
      <point x="241" y="-5"/>
      <point x="247" y="-5" type="curve" smooth="yes"/>
      <point x="279" y="-5"/>
      <point x="332" y="-5"/>
    </contour>
  </outline>
</glyph>
<glyph name="one" format="1">
  <advance width="600"/>
  <unicode hex="0031"/>
  <outline>
    <contour>
      <point x="363" y="12" type="curve"/>
      <point x="363" y="242"/>
      <point x="363" y="471"/>
      <point x="363" y="699" type="curve" smooth="yes"/>
      <point x="363" y="706"/>
      <point x="359" y="710"/>
      <point x="352" y="710" type="curve" smooth="yes"/>
      <point x="307" y="710" type="line"/>
      <point x="307" y="488"/>
      <point x="307" y="260"/>
      <point x="307" y="36" type="curve" smooth="yes"/>
      <point x="307" y="17"/>
      <point x="328" y="12"/>
    </contour>
    <contour>
      <point x="89" y="52" type="line"/>
      <point x="89" y="38"/>
      <point x="89" y="25"/>
      <point x="89" y="11" type="curve" smooth="yes"/>
      <point x="89" y="8"/>
      <point x="90" y="5"/>
      <point x="92" y="3" type="curve" smooth="yes"/>
      <point x="94" y="1"/>
      <point x="97" y="0"/>
      <point x="100" y="0" type="curve" smooth="yes"/>
      <point x="541" y="0" type="line"/>
      <point x="541" y="13"/>
      <point x="541" y="27"/>
      <point x="541" y="41" type="curve" smooth="yes"/>
      <point x="541" y="47"/>
      <point x="536" y="52"/>
      <point x="530" y="52" type="curve" smooth="yes"/>
    </contour>
    <contour>
      <point x="104" y="474" type="curve" smooth="yes"/>
      <point x="117" y="474"/>
      <point x="123" y="476"/>
      <point x="319" y="661" type="curve" smooth="yes"/>
      <point x="329" y="670"/>
      <point x="336" y="678"/>
      <point x="336" y="686" type="curve" smooth="yes"/>
      <point x="336" y="700"/>
      <point x="330" y="710"/>
      <point x="311" y="710" type="curve"/>
      <point x="295" y="710" type="line"/>
      <point x="262" y="680"/>
      <point x="230" y="649"/>
      <point x="198" y="619" type="curve"/>
      <point x="164" y="588"/>
      <point x="132" y="558"/>
      <point x="98" y="527" type="curve"/>
      <point x="98" y="483" type="line" smooth="yes"/>
      <point x="98" y="476"/>
      <point x="100" y="474"/>
    </contour>
  </outline>
</glyph>
<glyph name="two" format="1">
  <advance width="600"/>
  <unicode hex="0032"/>
  <outline>
    <contour>
      <point x="461" y="620" type="curve"/>
      <point x="461" y="581"/>
      <point x="461" y="572"/>
      <point x="461" y="534" type="curve" smooth="yes"/>
      <point x="461" y="473"/>
      <point x="433" y="441"/>
      <point x="294" y="347" type="curve" smooth="yes"/>
      <point x="138" y="242"/>
      <point x="69" y="177"/>
      <point x="69" y="44" type="curve" smooth="yes"/>
      <point x="69" y="34"/>
      <point x="77" y="31"/>
      <point x="126" y="31" type="curve"/>
      <point x="126" y="146"/>
      <point x="153" y="182"/>
      <point x="328" y="304" type="curve" smooth="yes"/>
      <point x="455" y="392"/>
      <point x="516" y="442"/>
      <point x="516" y="528" type="curve" smooth="yes"/>
      <point x="516" y="560" type="line" smooth="yes"/>
      <point x="516" y="588"/>
      <point x="502" y="620"/>
    </contour>
    <contour>
      <point x="531" y="0" type="line"/>
      <point x="531" y="13"/>
      <point x="531" y="27"/>
      <point x="531" y="41" type="curve" smooth="yes"/>
      <point x="531" y="47"/>
      <point x="526" y="52"/>
      <point x="520" y="52" type="curve" smooth="yes"/>
      <point x="114" y="52" type="line" smooth="yes"/>
      <point x="99" y="52"/>
      <point x="85" y="52"/>
      <point x="69" y="44" type="curve"/>
      <point x="69" y="34"/>
      <point x="69" y="26"/>
      <point x="69" y="11" type="curve" smooth="yes"/>
      <point x="69" y="5"/>
      <point x="74" y="0"/>
      <point x="80" y="0" type="curve" smooth="yes"/>
    </contour>
    <contour>
      <point x="300" y="720" type="curve" smooth="yes"/>
      <point x="203" y="720"/>
      <point x="128" y="684"/>
      <point x="90" y="647" type="curve" smooth="yes"/>
      <point x="88" y="644"/>
      <point x="87" y="642"/>
      <point x="87" y="638" type="curve" smooth="yes"/>
      <point x="87" y="614"/>
      <point x="87" y="597"/>
      <point x="87" y="587" type="curve"/>
      <point x="98" y="587" type="line"/>
      <point x="160" y="645"/>
      <point x="215" y="667"/>
      <point x="300" y="667" type="curve" smooth="yes"/>
      <point x="403" y="667"/>
      <point x="461" y="637"/>
      <point x="461" y="555" type="curve" smooth="yes"/>
      <point x="461" y="526"/>
      <point x="461" y="508"/>
      <point x="461" y="480" type="curve"/>
      <point x="496" y="481"/>
      <point x="516" y="512"/>
      <point x="516" y="560" type="curve" smooth="yes"/>
      <point x="516" y="658"/>
      <point x="433" y="720"/>
    </contour>
  </outline>
</glyph>
<glyph name="three" format="1">
  <advance width="600"/>
  <unicode hex="0033"/>
  <outline>
    <contour>
      <point x="289" y="667" type="curve" smooth="yes"/>
      <point x="400" y="667"/>
      <point x="461" y="613"/>
      <point x="461" y="540" type="curve" smooth="yes"/>
      <point x="461" y="517"/>
      <point x="461" y="492"/>
      <point x="461" y="470" type="curve"/>
      <point x="492" y="470"/>
      <point x="515" y="498"/>
      <point x="515" y="533" type="curve" smooth="yes"/>
      <point x="515" y="556" type="line" smooth="yes"/>
      <point x="515" y="638"/>
      <point x="438" y="720"/>
      <point x="290" y="720" type="curve" smooth="yes"/>
      <point x="197" y="720"/>
      <point x="124" y="691"/>
      <point x="89" y="657" type="curve" smooth="yes"/>
      <point x="87" y="655"/>
      <point x="86" y="653"/>
      <point x="86" y="649" type="curve" smooth="yes"/>
      <point x="86" y="626"/>
      <point x="86" y="609"/>
      <point x="86" y="600" type="curve"/>
      <point x="98" y="600" type="line"/>
      <point x="157" y="648"/>
      <point x="206" y="667"/>
    </contour>
    <contour>
      <point x="183" y="340" type="curve" smooth="yes"/>
      <point x="394" y="340"/>
      <point x="515" y="417"/>
      <point x="515" y="533" type="curve" smooth="yes"/>
      <point x="515" y="565"/>
      <point x="490" y="592"/>
      <point x="457" y="592" type="curve"/>
      <point x="457" y="567"/>
      <point x="457" y="547"/>
      <point x="457" y="528" type="curve" smooth="yes"/>
      <point x="457" y="444"/>
      <point x="368" y="382"/>
      <point x="172" y="382" type="curve"/>
      <point x="172" y="372"/>
      <point x="172" y="361"/>
      <point x="172" y="351" type="curve" smooth="yes"/>
      <point x="172" y="345"/>
      <point x="176" y="340"/>
    </contour>
    <contour>
      <point x="183" y="330" type="curve" smooth="yes"/>
      <point x="355" y="330"/>
      <point x="466" y="284"/>
      <point x="466" y="175" type="curve" smooth="yes"/>
      <point x="466" y="154"/>
      <point x="466" y="134"/>
      <point x="466" y="110" type="curve"/>
      <point x="494" y="110"/>
      <point x="525" y="144"/>
      <point x="525" y="179" type="curve" smooth="yes"/>
      <point x="525" y="293"/>
      <point x="417" y="372"/>
      <point x="172" y="372" type="curve"/>
      <point x="172" y="362"/>
      <point x="172" y="352"/>
      <point x="172" y="341" type="curve" smooth="yes"/>
      <point x="172" y="334"/>
      <point x="176" y="330"/>
    </contour>
    <contour>
      <point x="280" y="33" type="curve" smooth="yes"/>
      <point x="196" y="33"/>
      <point x="147" y="52"/>
      <point x="87" y="103" type="curve"/>
      <point x="76" y="103" type="line"/>
      <point x="76" y="92"/>
      <point x="76" y="75"/>
      <point x="76" y="51" type="curve" smooth="yes"/>
      <point x="76" y="47"/>
      <point x="77" y="45"/>
      <point x="79" y="43" type="curve" smooth="yes"/>
      <point x="113" y="8"/>
      <point x="187" y="-20"/>
      <point x="280" y="-20" type="curve" smooth="yes"/>
      <point x="441" y="-20"/>
      <point x="525" y="67"/>
      <point x="525" y="155" type="curve" smooth="yes"/>
      <point x="525" y="179" type="line" smooth="yes"/>
      <point x="525" y="208"/>
      <point x="495" y="242"/>
      <point x="470" y="242" type="curve"/>
      <point x="470" y="213"/>
      <point x="470" y="191"/>
      <point x="470" y="172" type="curve" smooth="yes"/>
      <point x="470" y="93"/>
      <point x="403" y="33"/>
    </contour>
  </outline>
</glyph>
<glyph name="eight" format="1">
  <advance width="600"/>
  <unicode hex="0038"/>
  <outline>
    <contour>
      <point x="359" y="349" type="curve" smooth="yes"/>
      <point x="272" y="381" type="line" smooth="yes"/>
      <point x="173" y="416"/>
      <point x="133" y="457"/>
      <point x="133" y="521" type="curve" smooth="yes"/>
      <point x="133" y="540"/>
      <point x="133" y="553"/>
      <point x="133" y="577" type="curve"/>
      <point x="106" y="577"/>
      <point x="78" y="547"/>
      <point x="78" y="515" type="curve" smooth="yes"/>
      <point x="78" y="435"/>
      <point x="135" y="377"/>
      <point x="258" y="331" type="curve" smooth="yes"/>
      <point x="346" y="298" type="line" smooth="yes"/>
      <point x="442" y="262"/>
      <point x="481" y="225"/>
      <point x="481" y="168" type="curve" smooth="yes"/>
      <point x="481" y="131"/>
      <point x="480" y="114"/>
      <point x="479" y="106" type="curve"/>
      <point x="503" y="113"/>
      <point x="536" y="153"/>
      <point x="536" y="177" type="curve"/>
      <point x="536" y="249"/>
      <point x="477" y="305"/>
    </contour>
    <contour>
      <point x="300" y="-20" type="curve" smooth="yes"/>
      <point x="443" y="-20"/>
      <point x="536" y="49"/>
      <point x="536" y="151" type="curve" smooth="yes"/>
      <point x="536" y="177" type="line" smooth="yes"/>
      <point x="536" y="200"/>
      <point x="513" y="218"/>
      <point x="481" y="221" type="curve"/>
      <point x="481" y="211"/>
      <point x="481" y="192"/>
      <point x="481" y="157" type="curve" smooth="yes"/>
      <point x="481" y="77"/>
      <point x="415" y="31"/>
      <point x="300" y="31" type="curve" smooth="yes"/>
      <point x="259" y="31"/>
      <point x="233" y="31"/>
      <point x="215" y="31" type="curve"/>
      <point x="215" y="6"/>
      <point x="256" y="-20"/>
    </contour>
    <contour>
      <point x="303" y="720" type="curve" smooth="yes"/>
      <point x="171" y="720"/>
      <point x="78" y="645"/>
      <point x="78" y="540" type="curve" smooth="yes"/>
      <point x="78" y="515" type="line" smooth="yes"/>
      <point x="78" y="481"/>
      <point x="97" y="460"/>
      <point x="133" y="460" type="curve"/>
      <point x="133" y="486"/>
      <point x="133" y="505"/>
      <point x="133" y="533" type="curve" smooth="yes"/>
      <point x="133" y="609"/>
      <point x="204" y="669"/>
      <point x="297" y="669" type="curve" smooth="yes"/>
      <point x="334" y="669"/>
      <point x="369" y="669"/>
      <point x="390" y="669" type="curve"/>
      <point x="390" y="698"/>
      <point x="352" y="720"/>
    </contour>
    <contour>
      <point x="332" y="339" type="curve" smooth="yes"/>
      <point x="423" y="339"/>
      <point x="525" y="433"/>
      <point x="525" y="520" type="curve" smooth="yes"/>
      <point x="525" y="545" type="line" smooth="yes"/>
      <point x="525" y="649"/>
      <point x="436" y="720"/>
      <point x="303" y="720" type="curve" smooth="yes"/>
      <point x="286" y="720"/>
      <point x="284" y="709"/>
      <point x="297" y="669" type="curve"/>
      <point x="413" y="669"/>
      <point x="469" y="625"/>
      <point x="469" y="538" type="curve" smooth="yes"/>
      <point x="469" y="526" type="line" smooth="yes"/>
      <point x="469" y="457"/>
      <point x="405" y="395"/>
      <point x="289" y="356" type="curve"/>
      <point x="294" y="345"/>
      <point x="311" y="339"/>
    </contour>
    <contour>
      <point x="300" y="31" type="curve"/>
      <point x="190" y="31"/>
      <point x="119" y="81"/>
      <point x="119" y="158" type="curve" smooth="yes"/>
      <point x="119" y="170" type="line" smooth="yes"/>
      <point x="119" y="245"/>
      <point x="190" y="308"/>
      <point x="301" y="327" type="curve"/>
      <point x="295" y="340"/>
      <point x="279" y="352"/>
      <point x="265" y="352" type="curve" smooth="yes"/>
      <point x="159" y="352"/>
      <point x="64" y="270"/>
      <point x="64" y="175" type="curve" smooth="yes"/>
      <point x="64" y="150" type="line" smooth="yes"/>
      <point x="64" y="50"/>
      <point x="162" y="-20"/>
      <point x="300" y="-20" type="curve" smooth="yes"/>
      <point x="318" y="-20"/>
      <point x="319" y="0"/>
    </contour>
  </outline>
</glyph>
<glyph name="nine" format="1">
  <advance width="600"/>
  <unicode hex="0039"/>
  <outline>
    <contour>
      <point x="376" y="671" type="curve"/>
      <point x="376" y="699"/>
      <point x="363" y="720"/>
      <point x="295" y="720" type="curve"/>
      <point x="163" y="720"/>
      <point x="74" y="638"/>
      <point x="74" y="518" type="curve" smooth="yes"/>
      <point x="74" y="446" type="line" smooth="yes"/>
      <point x="74" y="414"/>
      <point x="99" y="390"/>
      <point x="130" y="390" type="curve"/>
      <point x="130" y="407"/>
      <point x="130" y="425"/>
      <point x="130" y="447" type="curve" smooth="yes"/>
      <point x="130" y="517" type="line" smooth="yes"/>
      <point x="130" y="612"/>
      <point x="194" y="671"/>
      <point x="302" y="671" type="curve" smooth="yes"/>
      <point x="344" y="671"/>
      <point x="354" y="671"/>
    </contour>
    <contour>
      <point x="357" y="33" type="curve"/>
      <point x="332" y="33"/>
      <point x="309" y="33"/>
      <point x="272" y="33" type="curve" smooth="yes"/>
      <point x="200" y="33"/>
      <point x="158" y="45"/>
      <point x="103" y="89" type="curve"/>
      <point x="92" y="89" type="line"/>
      <point x="92" y="79"/>
      <point x="92" y="64"/>
      <point x="92" y="40" type="curve" smooth="yes"/>
      <point x="92" y="36"/>
      <point x="92" y="34"/>
      <point x="94" y="32" type="curve" smooth="yes"/>
      <point x="124" y="2"/>
      <point x="191" y="-20"/>
      <point x="272" y="-20" type="curve" smooth="yes"/>
      <point x="329" y="-20"/>
      <point x="357" y="2"/>
    </contour>
    <contour>
      <point x="530" y="275" type="curve" smooth="yes"/>
      <point x="530" y="433" type="line" smooth="yes"/>
      <point x="530" y="633"/>
      <point x="461" y="720"/>
      <point x="295" y="720" type="curve" smooth="yes"/>
      <point x="286" y="720"/>
      <point x="284" y="701"/>
      <point x="302" y="671" type="curve"/>
      <point x="423" y="671"/>
      <point x="474" y="605"/>
      <point x="474" y="433" type="curve" smooth="yes"/>
      <point x="474" y="274" type="line" smooth="yes"/>
      <point x="474" y="115"/>
      <point x="406" y="33"/>
      <point x="272" y="33" type="curve"/>
      <point x="259" y="-6"/>
      <point x="259" y="-20"/>
      <point x="272" y="-20" type="curve" smooth="yes"/>
      <point x="438" y="-20"/>
      <point x="530" y="85"/>
    </contour>
    <contour>
      <point x="292" y="268" type="curve" smooth="yes"/>
      <point x="370" y="268"/>
      <point x="440" y="297"/>
      <point x="474" y="331" type="curve" smooth="yes"/>
      <point x="481" y="338"/>
      <point x="486" y="359"/>
      <point x="486" y="393" type="curve"/>
      <point x="427" y="342"/>
      <point x="369" y="320"/>
      <point x="297" y="320" type="curve" smooth="yes"/>
      <point x="185" y="320"/>
      <point x="130" y="364"/>
      <point x="130" y="447" type="curve" smooth="yes"/>
      <point x="130" y="455"/>
      <point x="130" y="471"/>
      <point x="130" y="478" type="curve"/>
      <point x="89" y="474"/>
      <point x="74" y="463"/>
      <point x="74" y="446" type="curve" smooth="yes"/>
      <point x="74" y="331"/>
      <point x="157" y="268"/>
    </contour>
  </outline>
</glyph>
<glyph name="semicolon" format="1">
  <advance width="600"/>
  <unicode hex="003B"/>
  <outline>
    <contour>
      <point x="364" y="408" type="curve"/>
      <point x="364" y="521" type="line" smooth="yes"/>
      <point x="364" y="527"/>
      <point x="359" y="532"/>
      <point x="353" y="532" type="curve" smooth="yes"/>
      <point x="321" y="532"/>
      <point x="268" y="532"/>
      <point x="236" y="532" type="curve"/>
      <point x="236" y="419" type="line" smooth="yes"/>
      <point x="236" y="413"/>
      <point x="241" y="408"/>
      <point x="247" y="408" type="curve" smooth="yes"/>
      <point x="279" y="408"/>
      <point x="332" y="408"/>
    </contour>
    <contour>
      <point x="261" y="-193" type="curve" smooth="yes"/>
      <point x="266" y="-193"/>
      <point x="269" y="-192"/>
      <point x="271" y="-186" type="curve"/>
      <point x="312" y="-92"/>
      <point x="352" y="4"/>
      <point x="393" y="97" type="curve"/>
      <point x="396" y="105"/>
      <point x="393" y="110"/>
      <point x="385" y="110" type="curve" smooth="yes"/>
      <point x="348" y="110"/>
      <point x="327" y="110"/>
      <point x="283" y="110" type="curve"/>
      <point x="259" y="9"/>
      <point x="235" y="-92"/>
      <point x="211" y="-193" type="curve"/>
      <point x="225" y="-193"/>
      <point x="239" y="-193"/>
    </contour>
  </outline>
</glyph>
<glyph name="equal" format="1">
  <advance width="600"/>
  <unicode hex="003D"/>
  <outline>
    <contour>
      <point x="75" y="453" type="line"/>
      <point x="75" y="438"/>
      <point x="75" y="424"/>
      <point x="75" y="409" type="curve" smooth="yes"/>
      <point x="75" y="406"/>
      <point x="76" y="403"/>
      <point x="78" y="401" type="curve" smooth="yes"/>
      <point x="80" y="399"/>
      <point x="83" y="398"/>
      <point x="86" y="398" type="curve"/>
      <point x="525" y="398" type="line"/>
      <point x="525" y="413"/>
      <point x="525" y="427"/>
      <point x="525" y="442" type="curve" smooth="yes"/>
      <point x="525" y="448"/>
      <point x="520" y="453"/>
      <point x="514" y="453" type="curve"/>
    </contour>
    <contour>
      <point x="525" y="147" type="line"/>
      <point x="525" y="162"/>
      <point x="525" y="176"/>
      <point x="525" y="191" type="curve" smooth="yes"/>
      <point x="525" y="194"/>
      <point x="524" y="197"/>
      <point x="522" y="199" type="curve" smooth="yes"/>
      <point x="520" y="201"/>
      <point x="517" y="202"/>
      <point x="514" y="202" type="curve"/>
      <point x="75" y="202" type="line"/>
      <point x="75" y="187"/>
      <point x="75" y="173"/>
      <point x="75" y="158" type="curve" smooth="yes"/>
      <point x="75" y="152"/>
      <point x="80" y="147"/>
      <point x="86" y="147" type="curve"/>
    </contour>
  </outline>
</glyph>
<glyph name="greater" format="1">
  <advance width="600"/>
  <unicode hex="003E"/>
  <outline>
    <contour>
      <point x="80" y="87" type="curve"/>
      <point x="80" y="38" type="line"/>
      <point x="80" y="34"/>
      <point x="82" y="31"/>
      <point x="86" y="31" type="curve" smooth="yes"/>
      <point x="90" y="31"/>
      <point x="93" y="32"/>
      <point x="106" y="39" type="curve" smooth="yes"/>
      <point x="148" y="61"/>
      <point x="382" y="185"/>
      <point x="520" y="258" type="curve"/>
      <point x="520" y="329" type="line"/>
      <point x="513" y="319"/>
      <point x="508" y="314"/>
      <point x="490" y="305" type="curve"/>
      <point x="353" y="232"/>
      <point x="217" y="160"/>
    </contour>
    <contour>
      <point x="80" y="579" type="curve"/>
      <point x="80" y="561"/>
      <point x="80" y="545"/>
      <point x="80" y="527" type="curve" smooth="yes"/>
      <point x="80" y="519"/>
      <point x="81" y="516"/>
      <point x="88" y="512" type="curve" smooth="yes"/>
      <point x="211" y="446"/>
      <point x="333" y="382"/>
      <point x="459" y="314" type="curve" smooth="yes"/>
      <point x="465" y="311"/>
      <point x="465" y="309"/>
      <point x="465" y="304" type="curve" smooth="yes"/>
      <point x="465" y="289"/>
      <point x="465" y="271"/>
      <point x="465" y="253" type="curve"/>
      <point x="506" y="257"/>
      <point x="520" y="299"/>
      <point x="520" y="324" type="curve" smooth="yes"/>
      <point x="520" y="334" type="line" smooth="yes"/>
      <point x="520" y="343"/>
      <point x="518" y="347"/>
      <point x="509" y="352" type="curve" smooth="yes"/>
      <point x="367" y="427"/>
      <point x="223" y="503"/>
    </contour>
  </outline>
</glyph>
<glyph name="A" format="1">
  <advance width="600"/>
  <unicode hex="0041"/>
  <outline>
    <contour>
      <point x="83" y="0" type="curve"/>
      <point x="156" y="239"/>
      <point x="225" y="460"/>
      <point x="295" y="682" type="curve"/>
      <point x="299" y="699"/>
      <point x="321" y="705"/>
      <point x="342" y="709" type="curve"/>
      <point x="246" y="709" type="line"/>
      <point x="175" y="484"/>
      <point x="103" y="252"/>
      <point x="29" y="14" type="curve"/>
      <point x="27" y="6"/>
      <point x="32" y="0"/>
      <point x="37" y="0" type="curve" smooth="yes"/>
      <point x="54" y="0"/>
      <point x="66" y="0"/>
    </contour>
    <contour>
      <point x="576" y="0" type="curve"/>
      <point x="502" y="235"/>
      <point x="427" y="469"/>
      <point x="354" y="698" type="curve"/>
      <point x="353" y="702"/>
      <point x="352" y="704"/>
      <point x="350" y="706" type="curve" smooth="yes"/>
      <point x="348" y="709"/>
      <point x="346" y="709"/>
      <point x="342" y="709" type="curve"/>
      <point x="293" y="709"/>
      <point x="268" y="695"/>
      <point x="268" y="654" type="curve"/>
      <point x="273" y="654"/>
      <point x="301" y="654"/>
      <point x="305" y="654" type="curve" smooth="yes"/>
      <point x="307" y="654"/>
      <point x="309" y="653"/>
      <point x="310" y="650" type="curve"/>
      <point x="377" y="443"/>
      <point x="444" y="234"/>
      <point x="512" y="18" type="curve"/>
      <point x="516" y="6"/>
      <point x="517" y="5"/>
      <point x="519" y="3" type="curve" smooth="yes"/>
      <point x="521" y="1"/>
      <point x="524" y="0"/>
      <point x="527" y="0" type="curve" smooth="yes"/>
      <point x="543" y="0"/>
      <point x="561" y="0"/>
    </contour>
    <contour>
      <point x="140" y="278" type="line"/>
      <point x="140" y="237" type="line" smooth="yes"/>
      <point x="140" y="234"/>
      <point x="141" y="231"/>
      <point x="143" y="229" type="curve" smooth="yes"/>
      <point x="145" y="227"/>
      <point x="148" y="226"/>
      <point x="151" y="226" type="curve"/>
      <point x="470" y="226" type="line"/>
      <point x="470" y="276"/>
      <point x="465" y="278"/>
      <point x="459" y="278" type="curve" smooth="yes"/>
    </contour>
    <contour>
      <point x="300" y="711" type="move" name="top"/>
    </contour>
    <contour>
      <point x="577" y="0" type="move" name="ogonek"/>
    </contour>
    <contour>
      <point x="300" y="700" type="move" name="ring"/>
    </contour>
    <contour>
      <point x="300" y="-1" type="move" name="bottom"/>
    </contour>
  </outline>
</glyph>
<glyph name="C" format="1">
  <advance width="600"/>
  <unicode hex="0043"/>
  <outline>
    <contour>
      <point x="336" y="668" type="curve" smooth="yes"/>
      <point x="420" y="668"/>
      <point x="463" y="645"/>
      <point x="497" y="604" type="curve"/>
      <point x="523" y="628"/>
      <point x="525" y="633"/>
      <point x="525" y="640" type="curve" smooth="yes"/>
      <point x="525" y="652"/>
      <point x="524" y="654"/>
      <point x="519" y="659" type="curve" smooth="yes"/>
      <point x="481" y="696"/>
      <point x="424" y="720"/>
      <point x="336" y="720" type="curve" smooth="yes"/>
      <point x="163" y="720"/>
      <point x="74" y="619"/>
      <point x="74" y="433" type="curve" smooth="yes"/>
      <point x="74" y="245" type="line" smooth="yes"/>
      <point x="74" y="187"/>
      <point x="98" y="126"/>
      <point x="132" y="126" type="curve"/>
      <point x="132" y="169"/>
      <point x="132" y="200"/>
      <point x="132" y="246" type="curve" smooth="yes"/>
      <point x="132" y="435" type="line" smooth="yes"/>
      <point x="132" y="594"/>
      <point x="196" y="668"/>
    </contour>
    <contour>
      <point x="326" y="-20" type="curve" smooth="yes"/>
      <point x="412" y="-20"/>
      <point x="485" y="4"/>
      <point x="523" y="42" type="curve" smooth="yes"/>
      <point x="525" y="44"/>
      <point x="526" y="47"/>
      <point x="526" y="50" type="curve" smooth="yes"/>
      <point x="526" y="65"/>
      <point x="526" y="80"/>
      <point x="526" y="96" type="curve"/>
      <point x="514" y="96" type="line"/>
      <point x="458" y="51"/>
      <point x="402" y="33"/>
      <point x="326" y="33" type="curve" smooth="yes"/>
      <point x="207" y="33"/>
      <point x="132" y="115"/>
      <point x="132" y="248" type="curve"/>
      <point x="85" y="256"/>
      <point x="74" y="251"/>
      <point x="74" y="245" type="curve" smooth="yes"/>
      <point x="74" y="85"/>
      <point x="168" y="-20"/>
    </contour>
    <contour>
      <point x="525" y="498" type="curve"/>
      <point x="525" y="640" type="line" smooth="yes"/>
      <point x="525" y="653"/>
      <point x="514" y="658"/>
      <point x="470" y="658" type="curve"/>
      <point x="470" y="646"/>
      <point x="470" y="638"/>
      <point x="470" y="629" type="curve" smooth="yes"/>
      <point x="470" y="509" type="line"/>
      <point x="470" y="506"/>
      <point x="471" y="503"/>
      <point x="473" y="501" type="curve" smooth="yes"/>
      <point x="475" y="499"/>
      <point x="478" y="498"/>
      <point x="481" y="498" type="curve"/>
      <point x="496" y="498"/>
      <point x="510" y="498"/>
    </contour>
    <contour>
      <point x="333" y="711" type="move" name="top"/>
    </contour>
    <contour>
      <point x="334" y="-1" type="move" name="bottom"/>
    </contour>
  </outline>
</glyph>
<glyph name="E" format="1">
  <advance width="600"/>
  <unicode hex="0045"/>
  <outline>
    <contour>
      <point x="30" y="700" type="line"/>
      <point x="30" y="685"/>
      <point x="30" y="674"/>
      <point x="30" y="659" type="curve" smooth="yes"/>
      <point x="30" y="656"/>
      <point x="31" y="653"/>
      <point x="33" y="651" type="curve" smooth="yes"/>
      <point x="35" y="649"/>
      <point x="38" y="648"/>
      <point x="41" y="648" type="curve" smooth="yes"/>
      <point x="531" y="648" type="line"/>
      <point x="531" y="663"/>
      <point x="531" y="674"/>
      <point x="531" y="689" type="curve" smooth="yes"/>
      <point x="531" y="692"/>
      <point x="530" y="695"/>
      <point x="528" y="697" type="curve" smooth="yes"/>
      <point x="526" y="699"/>
      <point x="523" y="700"/>
      <point x="520" y="700" type="curve" smooth="yes"/>
    </contour>
    <contour>
      <point x="155" y="31" type="curve"/>
      <point x="155" y="677" type="line" smooth="yes"/>
      <point x="155" y="683"/>
      <point x="150" y="688"/>
      <point x="99" y="688" type="curve"/>
      <point x="99" y="52" type="line"/>
      <point x="99" y="45"/>
      <point x="105" y="31"/>
    </contour>
    <contour>
      <point x="99" y="52" type="line"/>
      <point x="99" y="11" type="line" smooth="yes"/>
      <point x="99" y="5"/>
      <point x="104" y="0"/>
      <point x="110" y="0" type="curve" smooth="yes"/>
      <point x="531" y="0" type="line"/>
      <point x="531" y="15"/>
      <point x="531" y="26"/>
      <point x="531" y="41" type="curve" smooth="yes"/>
      <point x="531" y="47"/>
      <point x="526" y="52"/>
      <point x="520" y="52" type="curve" smooth="yes"/>
    </contour>
    <contour>
      <point x="121" y="381" type="line"/>
      <point x="121" y="332"/>
      <point x="126" y="329"/>
      <point x="132" y="329" type="curve" smooth="yes"/>
      <point x="480" y="329" type="line"/>
      <point x="480" y="344"/>
      <point x="480" y="355"/>
      <point x="480" y="370" type="curve" smooth="yes"/>
      <point x="480" y="373"/>
      <point x="479" y="376"/>
      <point x="477" y="378" type="curve" smooth="yes"/>
      <point x="475" y="380"/>
      <point x="472" y="381"/>
      <point x="469" y="381" type="curve" smooth="yes"/>
    </contour>
    <contour>
      <point x="300" y="711" type="move" name="top"/>
    </contour>
    <contour>
      <point x="532" y="0" type="move" name="ogonek"/>
    </contour>
    <contour>
      <point x="320" y="-1" type="move" name="bottom"/>
    </contour>
  </outline>
</glyph>
<glyph name="F" format="1">
  <advance width="600"/>
  <unicode hex="0046"/>
  <outline>
    <contour>
      <point x="179" y="0" type="curve"/>
      <point x="179" y="36"/>
      <point x="179" y="68"/>
      <point x="179" y="98" type="curve" smooth="yes"/>
      <point x="179" y="675" type="line"/>
      <point x="179" y="680"/>
      <point x="172" y="685"/>
      <point x="123" y="685" type="curve"/>
      <point x="123" y="11" type="line" smooth="yes"/>
      <point x="123" y="5"/>
      <point x="128" y="0"/>
      <point x="134" y="0" type="curve" smooth="yes"/>
      <point x="149" y="0"/>
      <point x="164" y="0"/>
    </contour>
    <contour>
      <point x="55" y="700" type="line"/>
      <point x="55" y="685"/>
      <point x="55" y="674"/>
      <point x="55" y="659" type="curve" smooth="yes"/>
      <point x="55" y="656"/>
      <point x="56" y="653"/>
      <point x="58" y="651" type="curve" smooth="yes"/>
      <point x="60" y="649"/>
      <point x="63" y="648"/>
      <point x="66" y="648" type="curve"/>
      <point x="531" y="648" type="line"/>
      <point x="531" y="663"/>
      <point x="531" y="674"/>
      <point x="531" y="689" type="curve" smooth="yes"/>
      <point x="531" y="692"/>
      <point x="530" y="695"/>
      <point x="528" y="697" type="curve" smooth="yes"/>
      <point x="526" y="699"/>
      <point x="523" y="700"/>
      <point x="520" y="700" type="curve"/>
    </contour>
    <contour>
      <point x="146" y="362" type="line"/>
      <point x="146" y="314"/>
      <point x="151" y="310"/>
      <point x="157" y="310" type="curve"/>
      <point x="481" y="310" type="line"/>
      <point x="481" y="324"/>
      <point x="481" y="336"/>
      <point x="481" y="351" type="curve"/>
      <point x="481" y="354"/>
      <point x="480" y="357"/>
      <point x="478" y="359" type="curve" smooth="yes"/>
      <point x="476" y="361"/>
      <point x="473" y="362"/>
      <point x="470" y="362" type="curve"/>
    </contour>
  </outline>
</glyph>
<glyph name="G" format="1">
  <advance width="599"/>
  <unicode hex="0047"/>
  <outline>
    <contour>
      <point x="322" y="668" type="curve" smooth="yes"/>
      <point x="407" y="668"/>
      <point x="455" y="649"/>
      <point x="505" y="601" type="curve"/>
      <point x="521" y="621"/>
      <point x="524" y="628"/>
      <point x="524" y="637" type="curve" smooth="yes"/>
      <point x="524" y="648"/>
      <point x="523" y="651"/>
      <point x="518" y="656" type="curve" smooth="yes"/>
      <point x="481" y="693"/>
      <point x="410" y="720"/>
      <point x="327" y="720" type="curve" smooth="yes"/>
      <point x="160" y="720"/>
      <point x="74" y="632"/>
      <point x="74" y="448" type="curve" smooth="yes"/>
      <point x="74" y="214" type="line" smooth="yes"/>
      <point x="74" y="171"/>
      <point x="108" y="100"/>
      <point x="131" y="99" type="curve"/>
      <point x="131" y="137"/>
      <point x="131" y="176"/>
      <point x="131" y="218" type="curve" smooth="yes"/>
      <point x="131" y="450" type="line" smooth="yes"/>
      <point x="131" y="599"/>
      <point x="192" y="668"/>
    </contour>
    <contour>
      <point x="313" y="32" type="curve" smooth="yes"/>
      <point x="201" y="32"/>
      <point x="131" y="98"/>
      <point x="131" y="218" type="curve"/>
      <point x="97" y="220"/>
      <point x="74" y="217"/>
      <point x="74" y="214" type="curve" smooth="yes"/>
      <point x="74" y="73"/>
      <point x="162" y="-20"/>
      <point x="312" y="-20" type="curve" smooth="yes"/>
      <point x="452" y="-20"/>
      <point x="523" y="46"/>
      <point x="523" y="67" type="curve" smooth="yes"/>
      <point x="523" y="305" type="line" smooth="yes"/>
      <point x="523" y="313"/>
      <point x="498" y="317"/>
      <point x="466" y="317" type="curve"/>
      <point x="466" y="238"/>
      <point x="466" y="158"/>
      <point x="466" y="79" type="curve" smooth="yes"/>
      <point x="466" y="75"/>
      <point x="409" y="32"/>
    </contour>
    <contour>
      <point x="328" y="343" type="line"/>
      <point x="328" y="328"/>
      <point x="328" y="317"/>
      <point x="328" y="302" type="curve" smooth="yes"/>
      <point x="328" y="299"/>
      <point x="329" y="296"/>
      <point x="331" y="294" type="curve" smooth="yes"/>
      <point x="333" y="292"/>
      <point x="336" y="291"/>
      <point x="339" y="291" type="curve"/>
      <point x="569" y="291" type="line"/>
      <point x="569" y="332" type="line" smooth="yes"/>
      <point x="569" y="338"/>
      <point x="564" y="343"/>
      <point x="558" y="343" type="curve" smooth="yes"/>
    </contour>
    <contour>
      <point x="524" y="498" type="curve"/>
      <point x="524" y="637" type="line" smooth="yes"/>
      <point x="524" y="647"/>
      <point x="514" y="653"/>
      <point x="469" y="653" type="curve"/>
      <point x="469" y="647"/>
      <point x="469" y="643"/>
      <point x="469" y="639" type="curve" smooth="yes"/>
      <point x="469" y="509" type="line" smooth="yes"/>
      <point x="469" y="502"/>
      <point x="473" y="498"/>
      <point x="480" y="498" type="curve" smooth="yes"/>
      <point x="495" y="498"/>
      <point x="509" y="498"/>
    </contour>
    <contour>
      <point x="321" y="711" type="move" name="top"/>
    </contour>
    <contour>
      <point x="321" y="-1" type="move" name="bottom"/>
    </contour>
  </outline>
</glyph>
<glyph name="H" format="1">
  <advance width="600"/>
  <unicode hex="0048"/>
  <outline>
    <contour>
      <point x="81" y="700" type="curve"/>
      <point x="81" y="667"/>
      <point x="81" y="634"/>
      <point x="81" y="601" type="curve" smooth="yes"/>
      <point x="81" y="11" type="line" smooth="yes"/>
      <point x="81" y="5"/>
      <point x="86" y="0"/>
      <point x="92" y="0" type="curve" smooth="yes"/>
      <point x="107" y="0"/>
      <point x="122" y="0"/>
      <point x="137" y="0" type="curve"/>
      <point x="137" y="689" type="line" smooth="yes"/>
      <point x="137" y="692"/>
      <point x="136" y="695"/>
      <point x="134" y="697" type="curve" smooth="yes"/>
      <point x="132" y="699"/>
      <point x="129" y="700"/>
      <point x="126" y="700" type="curve" smooth="yes"/>
      <point x="111" y="700"/>
      <point x="96" y="700"/>
    </contour>
    <contour>
      <point x="519" y="0" type="curve"/>
      <point x="519" y="33"/>
      <point x="519" y="67"/>
      <point x="519" y="101" type="curve" smooth="yes"/>
      <point x="519" y="689" type="line" smooth="yes"/>
      <point x="519" y="695"/>
      <point x="514" y="700"/>
      <point x="508" y="700" type="curve" smooth="yes"/>
      <point x="493" y="700"/>
      <point x="478" y="700"/>
      <point x="463" y="700" type="curve"/>
      <point x="463" y="11" type="line" smooth="yes"/>
      <point x="463" y="8"/>
      <point x="464" y="5"/>
      <point x="466" y="3" type="curve" smooth="yes"/>
      <point x="468" y="1"/>
      <point x="471" y="0"/>
      <point x="474" y="0" type="curve" smooth="yes"/>
      <point x="489" y="0"/>
      <point x="504" y="0"/>
    </contour>
    <contour>
      <point x="118" y="382" type="line"/>
      <point x="118" y="341" type="line" smooth="yes"/>
      <point x="118" y="338"/>
      <point x="119" y="335"/>
      <point x="121" y="333" type="curve" smooth="yes"/>
      <point x="123" y="331"/>
      <point x="126" y="330"/>
      <point x="129" y="330" type="curve"/>
      <point x="496" y="330" type="line"/>
      <point x="496" y="380"/>
      <point x="491" y="382"/>
      <point x="485" y="382" type="curve" smooth="yes"/>
    </contour>
    <contour>
      <point x="300" y="711" type="move" name="top"/>
    </contour>
  </outline>
</glyph>
<glyph name="I" format="1">
  <advance width="600"/>
  <unicode hex="0049"/>
  <outline>
    <contour>
      <point x="328" y="22" type="curve"/>
      <point x="328" y="667" type="line" smooth="yes"/>
      <point x="328" y="673"/>
      <point x="323" y="678"/>
      <point x="272" y="678" type="curve"/>
      <point x="272" y="33" type="line" smooth="yes"/>
      <point x="272" y="27"/>
      <point x="277" y="22"/>
    </contour>
    <contour>
      <point x="89" y="700" type="line"/>
      <point x="89" y="685"/>
      <point x="89" y="674"/>
      <point x="89" y="659" type="curve"/>
      <point x="89" y="656"/>
      <point x="90" y="653"/>
      <point x="92" y="651" type="curve" smooth="yes"/>
      <point x="94" y="649"/>
      <point x="97" y="648"/>
      <point x="100" y="648" type="curve" smooth="yes"/>
      <point x="511" y="648" type="line"/>
      <point x="511" y="663"/>
      <point x="511" y="674"/>
      <point x="511" y="689" type="curve" smooth="yes"/>
      <point x="511" y="695"/>
      <point x="506" y="700"/>
      <point x="500" y="700" type="curve" smooth="yes"/>
    </contour>
    <contour>
      <point x="89" y="52" type="line"/>
      <point x="89" y="37"/>
      <point x="89" y="26"/>
      <point x="89" y="11" type="curve"/>
      <point x="89" y="8"/>
      <point x="90" y="5"/>
      <point x="92" y="3" type="curve" smooth="yes"/>
      <point x="94" y="1"/>
      <point x="97" y="0"/>
      <point x="100" y="0" type="curve" smooth="yes"/>
      <point x="511" y="0" type="line"/>
      <point x="511" y="15"/>
      <point x="511" y="27"/>
      <point x="511" y="41" type="curve" smooth="yes"/>
      <point x="511" y="47"/>
      <point x="506" y="52"/>
      <point x="500" y="52" type="curve" smooth="yes"/>
    </contour>
    <contour>
      <point x="300" y="711" type="move" name="top"/>
    </contour>
    <contour>
      <point x="512" y="0" type="move" name="ogonek"/>
    </contour>
    <contour>
      <point x="300" y="-1" type="move" name="bottom"/>
    </contour>
  </outline>
</glyph>
<glyph name="K" format="1">
  <advance width="600"/>
  <unicode hex="004B"/>
  <outline>
    <contour>
      <point x="89" y="700" type="curve"/>
      <point x="89" y="667"/>
      <point x="89" y="634"/>
      <point x="89" y="601" type="curve" smooth="yes"/>
      <point x="89" y="11" type="line" smooth="yes"/>
      <point x="89" y="5"/>
      <point x="94" y="0"/>
      <point x="100" y="0" type="curve" smooth="yes"/>
      <point x="115" y="0"/>
      <point x="130" y="0"/>
      <point x="145" y="0" type="curve"/>
      <point x="145" y="689" type="line" smooth="yes"/>
      <point x="145" y="692"/>
      <point x="144" y="695"/>
      <point x="142" y="697" type="curve" smooth="yes"/>
      <point x="140" y="699"/>
      <point x="137" y="700"/>
      <point x="134" y="700" type="curve" smooth="yes"/>
      <point x="119" y="700"/>
      <point x="104" y="700"/>
    </contour>
    <contour>
      <point x="524" y="700" type="curve"/>
      <point x="473" y="700" type="line"/>
      <point x="358" y="548"/>
      <point x="224" y="370"/>
      <point x="117" y="228" type="curve"/>
      <point x="109" y="218"/>
      <point x="107" y="210"/>
      <point x="128" y="162" type="curve"/>
      <point x="262" y="335"/>
      <point x="399" y="513"/>
      <point x="487" y="627" type="curve" smooth="yes"/>
      <point x="530" y="683"/>
      <point x="532" y="687"/>
      <point x="532" y="694" type="curve" smooth="yes"/>
      <point x="532" y="697"/>
      <point x="529" y="700"/>
    </contour>
    <contour>
      <point x="269" y="385" type="line"/>
      <point x="232" y="346"/>
      <point x="232" y="339"/>
      <point x="238" y="331" type="curve" smooth="yes"/>
      <point x="423" y="59" type="line" smooth="yes"/>
      <point x="455" y="13"/>
      <point x="476" y="-1"/>
      <point x="525" y="-1" type="curve" smooth="yes"/>
      <point x="550" y="-1" type="line" smooth="yes"/>
      <point x="557" y="-1"/>
      <point x="561" y="3"/>
      <point x="561" y="10" type="curve" smooth="yes"/>
      <point x="561" y="25"/>
      <point x="561" y="40"/>
      <point x="561" y="55" type="curve"/>
      <point x="551" y="55" type="line"/>
      <point x="546" y="55"/>
      <point x="540" y="55"/>
      <point x="531" y="55" type="curve" smooth="yes"/>
      <point x="503" y="55"/>
      <point x="490" y="62"/>
      <point x="471" y="89" type="curve" smooth="yes"/>
    </contour>
    <contour>
      <point x="325" y="-1" type="move" name="bottom"/>
    </contour>
  </outline>
</glyph>
<glyph name="L" format="1">
  <advance width="600"/>
  <unicode hex="004C"/>
  <outline>
    <contour>
      <point x="145" y="31" type="curve"/>
      <point x="145" y="689" type="line" smooth="yes"/>
      <point x="145" y="692"/>
      <point x="144" y="695"/>
      <point x="142" y="697" type="curve" smooth="yes"/>
      <point x="140" y="699"/>
      <point x="137" y="700"/>
      <point x="134" y="700" type="curve" smooth="yes"/>
      <point x="119" y="700"/>
      <point x="104" y="700"/>
      <point x="89" y="700" type="curve"/>
      <point x="89" y="667"/>
      <point x="89" y="634"/>
      <point x="89" y="601" type="curve" smooth="yes"/>
      <point x="89" y="52" type="line" smooth="yes"/>
      <point x="89" y="46"/>
      <point x="94" y="31"/>
    </contour>
    <contour>
      <point x="89" y="52" type="line"/>
      <point x="89" y="11" type="line" smooth="yes"/>
      <point x="89" y="4"/>
      <point x="93" y="0"/>
      <point x="100" y="0" type="curve" smooth="yes"/>
      <point x="531" y="0" type="line"/>
      <point x="531" y="15"/>
      <point x="531" y="26"/>
      <point x="531" y="41" type="curve" smooth="yes"/>
      <point x="531" y="47"/>
      <point x="526" y="52"/>
      <point x="520" y="52" type="curve" smooth="yes"/>
    </contour>
    <contour>
      <point x="393" y="550" type="move" name="caronslovak"/>
    </contour>
    <contour>
      <point x="117" y="711" type="move" name="top"/>
    </contour>
    <contour>
      <point x="373" y="400" type="move" name="dot"/>
    </contour>
    <contour>
      <point x="310" y="-1" type="move" name="bottom"/>
    </contour>
  </outline>
</glyph>
<glyph name="M" format="1">
  <advance width="600"/>
  <unicode hex="004D"/>
  <outline>
    <contour>
      <point x="128" y="0" type="curve"/>
      <point x="128" y="54"/>
      <point x="128" y="108"/>
      <point x="128" y="162" type="curve" smooth="yes"/>
      <point x="128" y="330"/>
      <point x="126" y="541"/>
      <point x="126" y="689" type="curve" smooth="yes"/>
      <point x="126" y="692"/>
      <point x="125" y="695"/>
      <point x="123" y="697" type="curve" smooth="yes"/>
      <point x="121" y="699"/>
      <point x="118" y="700"/>
      <point x="115" y="700" type="curve" smooth="yes"/>
      <point x="101" y="700"/>
      <point x="86" y="700"/>
      <point x="73" y="700" type="curve"/>
      <point x="73" y="667"/>
      <point x="73" y="633"/>
      <point x="73" y="600" type="curve" smooth="yes"/>
      <point x="73" y="11" type="line" smooth="yes"/>
      <point x="73" y="8"/>
      <point x="74" y="5"/>
      <point x="76" y="3" type="curve" smooth="yes"/>
      <point x="78" y="1"/>
      <point x="81" y="0"/>
      <point x="84" y="0" type="curve" smooth="yes"/>
      <point x="98" y="0"/>
      <point x="113" y="0"/>
    </contour>
    <contour>
      <point x="527" y="0" type="curve"/>
      <point x="527" y="34"/>
      <point x="527" y="68"/>
      <point x="527" y="102" type="curve" smooth="yes"/>
      <point x="527" y="689" type="line" smooth="yes"/>
      <point x="527" y="692"/>
      <point x="526" y="695"/>
      <point x="524" y="697" type="curve" smooth="yes"/>
      <point x="522" y="699"/>
      <point x="519" y="700"/>
      <point x="516" y="700" type="curve" smooth="yes"/>
      <point x="474" y="700" type="line"/>
      <point x="474" y="698"/>
      <point x="474" y="696"/>
      <point x="474" y="693" type="curve" smooth="yes"/>
      <point x="474" y="629"/>
      <point x="472" y="326"/>
      <point x="472" y="162" type="curve" smooth="yes"/>
      <point x="472" y="112"/>
      <point x="472" y="61"/>
      <point x="472" y="11" type="curve" smooth="yes"/>
      <point x="472" y="8"/>
      <point x="473" y="5"/>
      <point x="475" y="3" type="curve" smooth="yes"/>
      <point x="477" y="1"/>
      <point x="480" y="0"/>
      <point x="483" y="0" type="curve"/>
      <point x="498" y="0"/>
      <point x="513" y="0"/>
    </contour>
    <contour>
      <point x="85" y="700" type="line"/>
      <point x="153" y="521"/>
      <point x="219" y="344"/>
      <point x="287" y="166" type="curve"/>
      <point x="289" y="162"/>
      <point x="294" y="159"/>
      <point x="298" y="159" type="curve"/>
      <point x="306" y="159"/>
      <point x="306" y="212"/>
      <point x="306" y="262" type="curve"/>
      <point x="252" y="404"/>
      <point x="199" y="544"/>
      <point x="145" y="687" type="curve"/>
      <point x="141" y="697"/>
      <point x="137" y="700"/>
      <point x="129" y="700" type="curve"/>
    </contour>
    <contour>
      <point x="483" y="700" type="curve" smooth="yes"/>
      <point x="476" y="700"/>
      <point x="470" y="700"/>
      <point x="463" y="700" type="curve"/>
      <point x="407" y="555"/>
      <point x="349" y="404"/>
      <point x="294" y="259" type="curve"/>
      <point x="280" y="218"/>
      <point x="292" y="159"/>
      <point x="298" y="159" type="curve"/>
      <point x="309" y="159" type="line"/>
      <point x="373" y="326"/>
      <point x="438" y="494"/>
      <point x="502" y="660" type="curve"/>
      <point x="509" y="681"/>
      <point x="501" y="700"/>
    </contour>
  </outline>
</glyph>
<glyph name="N" format="1">
  <advance width="600"/>
  <unicode hex="004E"/>
  <outline>
    <contour>
      <point x="136" y="0" type="curve"/>
      <point x="136" y="660" type="line"/>
      <point x="136" y="665"/>
      <point x="133" y="695"/>
      <point x="131" y="697" type="curve" smooth="yes"/>
      <point x="129" y="699"/>
      <point x="126" y="700"/>
      <point x="123" y="700" type="curve"/>
      <point x="112" y="700"/>
      <point x="93" y="700"/>
      <point x="81" y="700" type="curve"/>
      <point x="81" y="653"/>
      <point x="81" y="607"/>
      <point x="81" y="560" type="curve" smooth="yes"/>
      <point x="81" y="11" type="line"/>
      <point x="81" y="5"/>
      <point x="86" y="0"/>
      <point x="92" y="0" type="curve"/>
      <point x="107" y="0"/>
      <point x="121" y="0"/>
    </contour>
    <contour>
      <point x="519" y="0" type="line"/>
      <point x="519" y="689" type="line"/>
      <point x="519" y="695"/>
      <point x="514" y="700"/>
      <point x="508" y="700" type="curve"/>
      <point x="464" y="700" type="line"/>
      <point x="464" y="37" type="line"/>
      <point x="464" y="32"/>
      <point x="467" y="5"/>
      <point x="469" y="3" type="curve" smooth="yes"/>
      <point x="471" y="1"/>
      <point x="474" y="0"/>
      <point x="477" y="0" type="curve"/>
    </contour>
    <contour>
      <point x="123" y="700" type="line"/>
      <point x="113" y="691"/>
      <point x="111" y="678"/>
      <point x="117" y="665" type="curve" smooth="yes"/>
      <point x="226" y="445"/>
      <point x="334" y="226"/>
      <point x="442" y="7" type="curve"/>
      <point x="445" y="2"/>
      <point x="449" y="0"/>
      <point x="456" y="0" type="curve" smooth="yes"/>
      <point x="479" y="0"/>
      <point x="470" y="0"/>
      <point x="491" y="0" type="curve"/>
      <point x="491" y="10"/>
      <point x="491" y="32"/>
      <point x="484" y="49" type="curve"/>
      <point x="377" y="262"/>
      <point x="271" y="477"/>
      <point x="167" y="690" type="curve"/>
      <point x="163" y="698"/>
      <point x="159" y="700"/>
      <point x="151" y="700" type="curve"/>
    </contour>
    <contour>
      <point x="300" y="711" type="move" name="top"/>
    </contour>
    <contour>
      <point x="300" y="-1" type="move" name="bottom"/>
    </contour>
  </outline>
</glyph>
<glyph name="O" format="1">
  <advance width="600"/>
  <unicode hex="004F"/>
  <outline>
    <contour>
      <point x="300" y="720" type="curve" smooth="yes"/>
      <point x="171" y="720"/>
      <point x="66" y="641"/>
      <point x="66" y="474" type="curve" smooth="yes"/>
      <point x="66" y="212" type="line" smooth="yes"/>
      <point x="66" y="57"/>
      <point x="157" y="-20"/>
      <point x="300" y="-20" type="curve" smooth="yes"/>
      <point x="311" y="-20"/>
      <point x="314" y="-9"/>
      <point x="300" y="32" type="curve"/>
      <point x="151" y="32"/>
      <point x="122" y="133"/>
      <point x="122" y="218" type="curve" smooth="yes"/>
      <point x="122" y="475" type="line" smooth="yes"/>
      <point x="122" y="587"/>
      <point x="175" y="668"/>
      <point x="300" y="668" type="curve" smooth="yes"/>
      <point x="336" y="668"/>
      <point x="362" y="668"/>
      <point x="383" y="668" type="curve"/>
      <point x="383" y="703"/>
      <point x="363" y="720"/>
    </contour>
    <contour>
      <point x="300" y="-20" type="curve" smooth="yes"/>
      <point x="429" y="-20"/>
      <point x="534" y="60"/>
      <point x="534" y="226" type="curve" smooth="yes"/>
      <point x="534" y="488" type="line" smooth="yes"/>
      <point x="534" y="643"/>
      <point x="443" y="720"/>
      <point x="300" y="720" type="curve" smooth="yes"/>
      <point x="289" y="720"/>
      <point x="286" y="709"/>
      <point x="300" y="668" type="curve"/>
      <point x="449" y="668"/>
      <point x="478" y="567"/>
      <point x="478" y="482" type="curve" smooth="yes"/>
      <point x="478" y="225" type="line" smooth="yes"/>
      <point x="478" y="113"/>
      <point x="425" y="32"/>
      <point x="300" y="32" type="curve" smooth="yes"/>
      <point x="264" y="32"/>
      <point x="238" y="32"/>
      <point x="217" y="32" type="curve"/>
      <point x="217" y="-3"/>
      <point x="237" y="-20"/>
    </contour>
    <contour>
      <point x="300" y="711" type="move" name="top"/>
    </contour>
    <contour>
      <point x="401" y="9" type="move" name="ogonek"/>
    </contour>
    <contour>
      <point x="300" y="-1" type="move" name="bottom"/>
    </contour>
  </outline>
</glyph>
<glyph name="P" format="1">
  <advance width="600"/>
  <unicode hex="0050"/>
  <outline>
    <contour>
      <point x="154" y="0" type="curve"/>
      <point x="154" y="32"/>
      <point x="154" y="65"/>
      <point x="154" y="100" type="curve" smooth="yes"/>
      <point x="154" y="667" type="line" smooth="yes"/>
      <point x="154" y="673"/>
      <point x="149" y="678"/>
      <point x="99" y="678" type="curve"/>
      <point x="99" y="11" type="line" smooth="yes"/>
      <point x="99" y="8"/>
      <point x="100" y="5"/>
      <point x="102" y="3" type="curve" smooth="yes"/>
      <point x="104" y="1"/>
      <point x="107" y="0"/>
      <point x="110" y="0" type="curve" smooth="yes"/>
      <point x="125" y="0"/>
      <point x="139" y="0"/>
    </contour>
    <contour>
      <point x="31" y="700" type="curve"/>
      <point x="31" y="685"/>
      <point x="31" y="674"/>
      <point x="31" y="659" type="curve"/>
      <point x="31" y="656"/>
      <point x="32" y="653"/>
      <point x="34" y="651" type="curve" smooth="yes"/>
      <point x="36" y="649"/>
      <point x="39" y="648"/>
      <point x="42" y="648" type="curve" smooth="yes"/>
      <point x="59" y="648"/>
      <point x="80" y="648"/>
      <point x="106" y="648" type="curve" smooth="yes"/>
      <point x="155" y="648"/>
      <point x="260" y="648"/>
      <point x="310" y="648" type="curve" smooth="yes"/>
      <point x="364" y="648"/>
      <point x="372" y="648"/>
      <point x="399" y="648" type="curve"/>
      <point x="399" y="677"/>
      <point x="379" y="700"/>
      <point x="312" y="700" type="curve" smooth="yes"/>
      <point x="237" y="700"/>
      <point x="128" y="700"/>
    </contour>
    <contour>
      <point x="536" y="449" type="curve" smooth="yes"/>
      <point x="536" y="517" type="line" smooth="yes"/>
      <point x="536" y="669"/>
      <point x="426" y="700"/>
      <point x="312" y="700" type="curve"/>
      <point x="311" y="700"/>
      <point x="293" y="686"/>
      <point x="310" y="648" type="curve"/>
      <point x="426" y="648"/>
      <point x="478" y="609"/>
      <point x="478" y="522" type="curve" smooth="yes"/>
      <point x="478" y="453" type="line" smooth="yes"/>
      <point x="478" y="365"/>
      <point x="423" y="317"/>
      <point x="316" y="317" type="curve" smooth="yes"/>
      <point x="250" y="317"/>
      <point x="197" y="317"/>
      <point x="135" y="317" type="curve"/>
      <point x="135" y="300"/>
      <point x="135" y="292"/>
      <point x="135" y="276" type="curve" smooth="yes"/>
      <point x="135" y="270"/>
      <point x="140" y="265"/>
      <point x="146" y="265" type="curve" smooth="yes"/>
      <point x="319" y="265" type="line" smooth="yes"/>
      <point x="455" y="265"/>
      <point x="536" y="333"/>
    </contour>
  </outline>
</glyph>
<glyph name="T" format="1">
  <advance width="600"/>
  <unicode hex="0054"/>
  <outline>
    <contour>
      <point x="59" y="700" type="line"/>
      <point x="59" y="685"/>
      <point x="59" y="673"/>
      <point x="59" y="659" type="curve" smooth="yes"/>
      <point x="59" y="656"/>
      <point x="60" y="653"/>
      <point x="62" y="651" type="curve" smooth="yes"/>
      <point x="64" y="649"/>
      <point x="67" y="648"/>
      <point x="70" y="648" type="curve" smooth="yes"/>
      <point x="541" y="648" type="line"/>
      <point x="541" y="662"/>
      <point x="541" y="674"/>
      <point x="541" y="689" type="curve" smooth="yes"/>
      <point x="541" y="695"/>
      <point x="536" y="700"/>
      <point x="530" y="700" type="curve" smooth="yes"/>
    </contour>
    <contour>
      <point x="328" y="0" type="curve"/>
      <point x="328" y="32"/>
      <point x="328" y="65"/>
      <point x="328" y="100" type="curve" smooth="yes"/>
      <point x="328" y="667" type="line" smooth="yes"/>
      <point x="328" y="673"/>
      <point x="323" y="678"/>
      <point x="272" y="678" type="curve"/>
      <point x="272" y="11" type="line" smooth="yes"/>
      <point x="272" y="8"/>
      <point x="273" y="5"/>
      <point x="275" y="3" type="curve" smooth="yes"/>
      <point x="277" y="1"/>
      <point x="280" y="0"/>
      <point x="283" y="0" type="curve" smooth="yes"/>
      <point x="298" y="0"/>
      <point x="313" y="0"/>
    </contour>
    <contour>
      <point x="300" y="711" type="move" name="top"/>
    </contour>
    <contour>
      <point x="300" y="-1" type="move" name="bottom"/>
    </contour>
  </outline>
</glyph>
<glyph name="V" format="1">
  <advance width="600"/>
  <unicode hex="0056"/>
  <outline>
    <contour>
      <point x="86" y="700" type="curve"/>
      <point x="34" y="700" type="line"/>
      <point x="107" y="467"/>
      <point x="178" y="234"/>
      <point x="251" y="2" type="curve" smooth="yes"/>
      <point x="254" y="-6"/>
      <point x="259" y="-9"/>
      <point x="264" y="-9" type="curve" smooth="yes"/>
      <point x="282" y="-9" type="line" smooth="yes"/>
      <point x="298" y="-9"/>
      <point x="316" y="7"/>
      <point x="332" y="41" type="curve"/>
      <point x="319" y="41"/>
      <point x="312" y="41"/>
      <point x="305" y="41" type="curve" smooth="yes"/>
      <point x="297" y="41"/>
      <point x="296" y="42"/>
      <point x="291" y="54" type="curve"/>
      <point x="226" y="266"/>
      <point x="160" y="481"/>
      <point x="95" y="693" type="curve"/>
      <point x="93" y="699"/>
      <point x="90" y="700"/>
    </contour>
    <contour>
      <point x="558" y="700" type="curve"/>
      <point x="508" y="700" type="line"/>
      <point x="440" y="477"/>
      <point x="371" y="254"/>
      <point x="303" y="32" type="curve"/>
      <point x="294" y="5"/>
      <point x="283" y="-4"/>
      <point x="275" y="-9" type="curve"/>
      <point x="347" y="-9" type="line"/>
      <point x="420" y="223"/>
      <point x="491" y="456"/>
      <point x="564" y="689" type="curve"/>
      <point x="566" y="696"/>
      <point x="564" y="700"/>
    </contour>
  </outline>
</glyph>
<glyph name="W" format="1">
  <advance width="600"/>
  <unicode hex="0057"/>
  <outline>
    <contour>
      <point x="29" y="700" type="curve"/>
      <point x="61" y="467"/>
      <point x="94" y="234"/>
      <point x="126" y="2" type="curve"/>
      <point x="127" y="-6"/>
      <point x="135" y="-9"/>
      <point x="140" y="-9" type="curve"/>
      <point x="158" y="-9" type="line" smooth="yes"/>
      <point x="169" y="-9"/>
      <point x="180" y="1"/>
      <point x="178" y="16" type="curve"/>
      <point x="149" y="241"/>
      <point x="120" y="465"/>
      <point x="91" y="690" type="curve"/>
      <point x="90" y="695"/>
      <point x="89" y="697"/>
      <point x="88" y="698" type="curve" smooth="yes"/>
      <point x="87" y="699"/>
      <point x="85" y="700"/>
      <point x="82" y="700" type="curve"/>
      <point x="65" y="700"/>
      <point x="46" y="700"/>
    </contour>
    <contour>
      <point x="511" y="700" type="curve"/>
      <point x="481" y="474"/>
      <point x="451" y="247"/>
      <point x="421" y="21" type="curve"/>
      <point x="418" y="2"/>
      <point x="410" y="-4"/>
      <point x="402" y="-9" type="curve"/>
      <point x="471" y="-9" type="line"/>
      <point x="503" y="222"/>
      <point x="536" y="456"/>
      <point x="568" y="688" type="curve"/>
      <point x="569" y="693"/>
      <point x="569" y="696"/>
      <point x="567" y="698" type="curve" smooth="yes"/>
      <point x="566" y="699"/>
      <point x="564" y="700"/>
      <point x="560" y="700" type="curve"/>
      <point x="544" y="700"/>
      <point x="527" y="700"/>
    </contour>
    <contour>
      <point x="308" y="598" type="curve"/>
      <point x="270" y="598" type="line"/>
      <point x="235" y="406"/>
      <point x="200" y="213"/>
      <point x="164" y="21" type="curve"/>
      <point x="160" y="2"/>
      <point x="151" y="-1"/>
      <point x="140" y="-9" type="curve"/>
      <point x="209" y="-9" type="line"/>
      <point x="245" y="186"/>
      <point x="281" y="383"/>
      <point x="318" y="578" type="curve"/>
      <point x="321" y="593"/>
      <point x="318" y="598"/>
    </contour>
    <contour>
      <point x="326" y="598" type="curve"/>
      <point x="279" y="598" type="line"/>
      <point x="316" y="400"/>
      <point x="351" y="200"/>
      <point x="388" y="2" type="curve"/>
      <point x="390" y="-6"/>
      <point x="396" y="-9"/>
      <point x="401" y="-9" type="curve"/>
      <point x="418" y="-9" type="line"/>
      <point x="427" y="-9"/>
      <point x="439" y="1"/>
      <point x="436" y="16" type="curve"/>
      <point x="402" y="207"/>
      <point x="368" y="398"/>
      <point x="335" y="588" type="curve"/>
      <point x="332" y="597"/>
      <point x="330" y="598"/>
    </contour>
    <contour>
      <point x="298" y="711" type="move" name="top"/>
    </contour>
  </outline>
</glyph>
<glyph name="X" format="1">
  <advance width="600"/>
  <unicode hex="0058"/>
  <outline>
    <contour>
      <point x="514" y="0" type="curve" smooth="yes"/>
      <point x="532" y="0"/>
      <point x="551" y="0"/>
      <point x="569" y="0" type="curve"/>
      <point x="489" y="122"/>
      <point x="406" y="245"/>
      <point x="330" y="359" type="curve" smooth="yes"/>
      <point x="322" y="373"/>
      <point x="317" y="377"/>
      <point x="310" y="387" type="curve" smooth="yes"/>
      <point x="246" y="484"/>
      <point x="179" y="586"/>
      <point x="112" y="687" type="curve" smooth="yes"/>
      <point x="107" y="694"/>
      <point x="100" y="700"/>
      <point x="91" y="700" type="curve" smooth="yes"/>
      <point x="33" y="700" type="line"/>
      <point x="112" y="582"/>
      <point x="193" y="461"/>
      <point x="268" y="347" type="curve" smooth="yes"/>
      <point x="276" y="337"/>
      <point x="280" y="333"/>
      <point x="289" y="319" type="curve" smooth="yes"/>
      <point x="353" y="222"/>
      <point x="421" y="117"/>
      <point x="490" y="13" type="curve" smooth="yes"/>
      <point x="495" y="6"/>
      <point x="504" y="0"/>
    </contour>
    <contour>
      <point x="545" y="700" type="curve"/>
      <point x="501" y="700" type="line"/>
      <point x="428" y="588"/>
      <point x="356" y="478"/>
      <point x="283" y="366" type="curve"/>
      <point x="270" y="347"/>
      <point x="289" y="331"/>
      <point x="321" y="329" type="curve"/>
      <point x="399" y="446"/>
      <point x="477" y="564"/>
      <point x="554" y="681" type="curve"/>
      <point x="558" y="687"/>
      <point x="558" y="693"/>
      <point x="554" y="697" type="curve" smooth="yes"/>
      <point x="552" y="699"/>
      <point x="549" y="700"/>
    </contour>
    <contour>
      <point x="45" y="0" type="curve" smooth="yes"/>
      <point x="90" y="0" type="line"/>
      <point x="162" y="112"/>
      <point x="234" y="222"/>
      <point x="307" y="334" type="curve"/>
      <point x="321" y="353"/>
      <point x="301" y="369"/>
      <point x="269" y="371" type="curve"/>
      <point x="192" y="254"/>
      <point x="114" y="136"/>
      <point x="36" y="19" type="curve"/>
      <point x="32" y="13"/>
      <point x="32" y="6"/>
      <point x="36" y="3" type="curve" smooth="yes"/>
      <point x="38" y="1"/>
      <point x="41" y="0"/>
    </contour>
  </outline>
</glyph>
<glyph name="Y" format="1">
  <advance width="600"/>
  <unicode hex="0059"/>
  <outline>
    <contour>
      <point x="40" y="700" type="line"/>
      <point x="118" y="559"/>
      <point x="196" y="419"/>
      <point x="274" y="279" type="curve"/>
      <point x="277" y="275"/>
      <point x="284" y="274"/>
      <point x="290" y="274" type="curve"/>
      <point x="303" y="274"/>
      <point x="312" y="298"/>
      <point x="312" y="324" type="curve"/>
      <point x="244" y="445"/>
      <point x="176" y="568"/>
      <point x="109" y="690" type="curve"/>
      <point x="106" y="696"/>
      <point x="103" y="700"/>
      <point x="92" y="700" type="curve" smooth="yes"/>
    </contour>
    <contour>
      <point x="500" y="700" type="line"/>
      <point x="430" y="573"/>
      <point x="360" y="448"/>
      <point x="290" y="321" type="curve"/>
      <point x="279" y="299"/>
      <point x="286" y="276"/>
      <point x="290" y="274" type="curve"/>
      <point x="323" y="274" type="line"/>
      <point x="400" y="411"/>
      <point x="478" y="549"/>
      <point x="555" y="687" type="curve"/>
      <point x="558" y="694"/>
      <point x="553" y="700"/>
      <point x="549" y="700" type="curve"/>
    </contour>
    <contour>
      <point x="328" y="0" type="curve"/>
      <point x="328" y="32"/>
      <point x="328" y="65"/>
      <point x="328" y="100" type="curve" smooth="yes"/>
      <point x="328" y="308" type="line" smooth="yes"/>
      <point x="328" y="314"/>
      <point x="323" y="319"/>
      <point x="272" y="319" type="curve"/>
      <point x="272" y="11" type="line" smooth="yes"/>
      <point x="272" y="8"/>
      <point x="273" y="5"/>
      <point x="275" y="3" type="curve" smooth="yes"/>
      <point x="277" y="1"/>
      <point x="280" y="0"/>
      <point x="283" y="0" type="curve" smooth="yes"/>
      <point x="298" y="0"/>
      <point x="313" y="0"/>
    </contour>
    <contour>
      <point x="300" y="711" type="move" name="top"/>
    </contour>
  </outline>
</glyph>
<glyph name="Z" format="1">
  <advance width="600"/>
  <unicode hex="005A"/>
  <outline>
    <contour>
      <point x="91" y="700" type="line"/>
      <point x="91" y="685"/>
      <point x="91" y="674"/>
      <point x="91" y="659" type="curve" smooth="yes"/>
      <point x="91" y="656"/>
      <point x="92" y="653"/>
      <point x="94" y="651" type="curve" smooth="yes"/>
      <point x="96" y="649"/>
      <point x="99" y="648"/>
      <point x="102" y="648" type="curve" smooth="yes"/>
      <point x="474" y="648" type="line" smooth="yes"/>
      <point x="484" y="648"/>
      <point x="508" y="648"/>
      <point x="526" y="648" type="curve" smooth="yes"/>
      <point x="532" y="649"/>
      <point x="538" y="649"/>
      <point x="541" y="649" type="curve"/>
      <point x="541" y="689" type="line" smooth="yes"/>
      <point x="541" y="695"/>
      <point x="536" y="700"/>
      <point x="530" y="700" type="curve" smooth="yes"/>
    </contour>
    <contour>
      <point x="497" y="678" type="curve"/>
      <point x="353" y="472"/>
      <point x="205" y="259"/>
      <point x="59" y="51" type="curve"/>
      <point x="103" y="30"/>
      <point x="113" y="29"/>
      <point x="117" y="36" type="curve" smooth="yes"/>
      <point x="291" y="284"/>
      <point x="541" y="648"/>
      <point x="541" y="649" type="curve"/>
      <point x="508" y="681"/>
      <point x="503" y="684"/>
    </contour>
    <contour>
      <point x="541" y="0" type="line"/>
      <point x="541" y="15"/>
      <point x="541" y="26"/>
      <point x="541" y="41" type="curve" smooth="yes"/>
      <point x="541" y="44"/>
      <point x="540" y="47"/>
      <point x="538" y="49" type="curve" smooth="yes"/>
      <point x="536" y="51"/>
      <point x="533" y="52"/>
      <point x="530" y="52" type="curve" smooth="yes"/>
      <point x="127" y="52" type="line" smooth="yes"/>
      <point x="106" y="52"/>
      <point x="83" y="52"/>
      <point x="59" y="51" type="curve"/>
      <point x="59" y="11" type="line" smooth="yes"/>
      <point x="59" y="5"/>
      <point x="64" y="0"/>
      <point x="70" y="0" type="curve" smooth="yes"/>
    </contour>
    <contour>
      <point x="134" y="547" type="curve"/>
      <point x="134" y="588"/>
      <point x="134" y="629"/>
      <point x="134" y="670" type="curve"/>
      <point x="134" y="692"/>
      <point x="124" y="700"/>
      <point x="105" y="700" type="curve" smooth="yes"/>
      <point x="78" y="700" type="line"/>
      <point x="78" y="653"/>
      <point x="78" y="606"/>
      <point x="78" y="558" type="curve"/>
      <point x="78" y="552"/>
      <point x="83" y="547"/>
      <point x="89" y="547" type="curve" smooth="yes"/>
      <point x="104" y="547"/>
      <point x="119" y="547"/>
    </contour>
    <contour>
      <point x="300" y="711" type="move" name="top"/>
    </contour>
  </outline>
</glyph>
<glyph name="bracketleft" format="1">
  <advance width="600"/>
  <unicode hex="005B"/>
  <outline>
    <contour>
      <point x="205" y="652" type="curve" smooth="yes"/>
      <point x="205" y="-105" type="line" smooth="yes"/>
      <point x="205" y="-115"/>
      <point x="217" y="-116"/>
      <point x="261" y="-116" type="curve"/>
      <point x="261" y="748" type="line" smooth="yes"/>
      <point x="261" y="754"/>
      <point x="253" y="759"/>
      <point x="226" y="759" type="curve" smooth="yes"/>
      <point x="218" y="759"/>
      <point x="213" y="759"/>
      <point x="205" y="759" type="curve"/>
      <point x="205" y="723"/>
      <point x="205" y="688"/>
    </contour>
    <contour>
      <point x="520" y="704" type="line"/>
      <point x="520" y="719"/>
      <point x="520" y="734"/>
      <point x="520" y="748" type="curve" smooth="yes"/>
      <point x="520" y="751"/>
      <point x="519" y="754"/>
      <point x="517" y="756" type="curve" smooth="yes"/>
      <point x="515" y="758"/>
      <point x="512" y="759"/>
      <point x="509" y="759" type="curve" smooth="yes"/>
      <point x="226" y="759" type="line"/>
      <point x="226" y="710"/>
      <point x="232" y="704"/>
      <point x="237" y="704" type="curve"/>
    </contour>
    <contour>
      <point x="520" y="-159" type="line"/>
      <point x="520" y="-144"/>
      <point x="520" y="-131"/>
      <point x="520" y="-115" type="curve" smooth="yes"/>
      <point x="520" y="-109"/>
      <point x="515" y="-104"/>
      <point x="509" y="-104" type="curve" smooth="yes"/>
      <point x="205" y="-104" type="line"/>
      <point x="205" y="-148" type="line" smooth="yes"/>
      <point x="205" y="-154"/>
      <point x="210" y="-159"/>
      <point x="216" y="-159" type="curve" smooth="yes"/>
    </contour>
  </outline>
</glyph>
<glyph name="bracketright" format="1">
  <advance width="600"/>
  <unicode hex="005D"/>
  <outline>
    <contour>
      <point x="395" y="-51" type="curve" smooth="yes"/>
      <point x="395" y="706" type="line" smooth="yes"/>
      <point x="395" y="716"/>
      <point x="383" y="717"/>
      <point x="339" y="717" type="curve"/>
      <point x="339" y="-147" type="line" smooth="yes"/>
      <point x="339" y="-153"/>
      <point x="347" y="-158"/>
      <point x="374" y="-158" type="curve" smooth="yes"/>
      <point x="382" y="-158"/>
      <point x="387" y="-158"/>
      <point x="395" y="-158" type="curve"/>
      <point x="395" y="-122"/>
      <point x="395" y="-87"/>
    </contour>
    <contour>
      <point x="80" y="-103" type="line"/>
      <point x="80" y="-118"/>
      <point x="80" y="-133"/>
      <point x="80" y="-147" type="curve" smooth="yes"/>
      <point x="80" y="-150"/>
      <point x="81" y="-153"/>
      <point x="83" y="-155" type="curve" smooth="yes"/>
      <point x="85" y="-157"/>
      <point x="88" y="-158"/>
      <point x="91" y="-158" type="curve" smooth="yes"/>
      <point x="374" y="-158" type="line"/>
      <point x="374" y="-109"/>
      <point x="368" y="-103"/>
      <point x="363" y="-103" type="curve"/>
    </contour>
    <contour>
      <point x="80" y="760" type="line"/>
      <point x="80" y="745"/>
      <point x="80" y="732"/>
      <point x="80" y="716" type="curve" smooth="yes"/>
      <point x="80" y="710"/>
      <point x="85" y="705"/>
      <point x="91" y="705" type="curve" smooth="yes"/>
      <point x="395" y="705" type="line"/>
      <point x="395" y="749" type="line" smooth="yes"/>
      <point x="395" y="755"/>
      <point x="390" y="760"/>
      <point x="384" y="760" type="curve" smooth="yes"/>
    </contour>
  </outline>
</glyph>
<glyph name="grave" format="1">
  <advance width="600"/>
  <unicode hex="0060"/>
  <outline>
    <contour>
      <point x="368" y="419" type="curve"/>
      <point x="343" y="520"/>
      <point x="319" y="619"/>
      <point x="295" y="720" type="curve"/>
      <point x="252" y="720"/>
      <point x="231" y="720"/>
      <point x="194" y="720" type="curve" smooth="yes"/>
      <point x="186" y="720"/>
      <point x="181" y="714"/>
      <point x="184" y="706" type="curve" smooth="yes"/>
      <point x="225" y="614"/>
      <point x="266" y="520"/>
      <point x="307" y="427" type="curve" smooth="yes"/>
      <point x="310" y="420"/>
      <point x="315" y="419"/>
      <point x="320" y="419" type="curve" smooth="yes"/>
      <point x="341" y="419"/>
      <point x="354" y="419"/>
    </contour>
  </outline>
</glyph>
<glyph name="b" format="1">
  <advance width="600"/>
  <unicode hex="0062"/>
  <outline>
    <contour>
      <point x="108" y="0" type="line"/>
      <point x="120" y="0"/>
      <point x="130" y="0"/>
      <point x="142" y="0" type="curve" smooth="yes"/>
      <point x="153" y="0"/>
      <point x="164" y="55"/>
      <point x="164" y="88" type="curve" smooth="yes"/>
      <point x="164" y="739" type="line"/>
      <point x="164" y="745"/>
      <point x="159" y="750"/>
      <point x="153" y="750" type="curve" smooth="yes"/>
      <point x="138" y="750"/>
      <point x="123" y="750"/>
      <point x="108" y="750" type="curve"/>
      <point x="108" y="717"/>
      <point x="108" y="682"/>
      <point x="108" y="646" type="curve" smooth="yes"/>
    </contour>
    <contour>
      <point x="348" y="537" type="curve" smooth="yes"/>
      <point x="278" y="537"/>
      <point x="215" y="509"/>
      <point x="159" y="453" type="curve" smooth="yes"/>
      <point x="142" y="436"/>
      <point x="137" y="411"/>
      <point x="141" y="375" type="curve"/>
      <point x="216" y="454"/>
      <point x="271" y="484"/>
      <point x="343" y="484" type="curve" smooth="yes"/>
      <point x="423" y="484"/>
      <point x="470" y="428"/>
      <point x="470" y="332" type="curve"/>
      <point x="501" y="331"/>
      <point x="526" y="335"/>
      <point x="526" y="342" type="curve" smooth="yes"/>
      <point x="526" y="460"/>
      <point x="456" y="537"/>
    </contour>
    <contour>
      <point x="335" y="-10" type="curve" smooth="yes"/>
      <point x="454" y="-10"/>
      <point x="526" y="64"/>
      <point x="526" y="206" type="curve" smooth="yes"/>
      <point x="526" y="342" type="line" smooth="yes"/>
      <point x="526" y="390"/>
      <point x="493" y="459"/>
      <point x="468" y="459" type="curve"/>
      <point x="458" y="459"/>
      <point x="452" y="458"/>
      <point x="450" y="452" type="curve"/>
      <point x="465" y="419"/>
      <point x="470" y="387"/>
      <point x="470" y="332" type="curve" smooth="yes"/>
      <point x="470" y="215" type="line" smooth="yes"/>
      <point x="470" y="95"/>
      <point x="425" y="42"/>
      <point x="336" y="42" type="curve" smooth="yes"/>
      <point x="260" y="42"/>
      <point x="211" y="78"/>
      <point x="154" y="152" type="curve"/>
      <point x="148" y="151"/>
      <point x="136" y="114"/>
      <point x="145" y="100" type="curve" smooth="yes"/>
      <point x="183" y="34"/>
      <point x="246" y="-10"/>
    </contour>
  </outline>
</glyph>
<glyph name="d" format="1">
  <advance width="600"/>
  <unicode hex="0064"/>
  <outline>
    <contour>
      <point x="274" y="537" type="curve" smooth="yes"/>
      <point x="149" y="537"/>
      <point x="74" y="450"/>
      <point x="74" y="303" type="curve" smooth="yes"/>
      <point x="74" y="189" type="line" smooth="yes"/>
      <point x="74" y="148"/>
      <point x="107" y="81"/>
      <point x="133" y="81" type="curve" smooth="yes"/>
      <point x="143" y="81"/>
      <point x="149" y="83"/>
      <point x="151" y="88" type="curve"/>
      <point x="138" y="122"/>
      <point x="130" y="153"/>
      <point x="130" y="203" type="curve" smooth="yes"/>
      <point x="130" y="296" type="line" smooth="yes"/>
      <point x="130" y="418"/>
      <point x="172" y="484"/>
      <point x="279" y="484" type="curve" smooth="yes"/>
      <point x="357" y="484"/>
      <point x="396" y="448"/>
      <point x="444" y="393" type="curve"/>
      <point x="461" y="393"/>
      <point x="465" y="415"/>
      <point x="457" y="431" type="curve" smooth="yes"/>
      <point x="432" y="485"/>
      <point x="367" y="537"/>
    </contour>
    <contour>
      <point x="253" y="-10" type="curve" smooth="yes"/>
      <point x="332" y="-10"/>
      <point x="386" y="26"/>
      <point x="438" y="85" type="curve" smooth="yes"/>
      <point x="459" y="109"/>
      <point x="461" y="141"/>
      <point x="458" y="168" type="curve"/>
      <point x="385" y="78"/>
      <point x="336" y="42"/>
      <point x="263" y="42" type="curve" smooth="yes"/>
      <point x="181" y="42"/>
      <point x="130" y="99"/>
      <point x="130" y="203" type="curve"/>
      <point x="86" y="203"/>
      <point x="74" y="193"/>
      <point x="74" y="189" type="curve" smooth="yes"/>
      <point x="74" y="65"/>
      <point x="150" y="-10"/>
    </contour>
    <contour>
      <point x="436" y="750" type="curve"/>
      <point x="436" y="715"/>
      <point x="436" y="682"/>
      <point x="436" y="650" type="curve" smooth="yes"/>
      <point x="436" y="11" type="line"/>
      <point x="436" y="8"/>
      <point x="437" y="5"/>
      <point x="439" y="3" type="curve" smooth="yes"/>
      <point x="441" y="1"/>
      <point x="444" y="0"/>
      <point x="447" y="0" type="curve" smooth="yes"/>
      <point x="462" y="0"/>
      <point x="477" y="0"/>
      <point x="492" y="0" type="curve"/>
      <point x="492" y="23"/>
      <point x="492" y="58"/>
      <point x="492" y="103" type="curve" smooth="yes"/>
      <point x="492" y="739" type="line"/>
      <point x="492" y="742"/>
      <point x="491" y="745"/>
      <point x="489" y="747" type="curve" smooth="yes"/>
      <point x="487" y="749"/>
      <point x="484" y="750"/>
      <point x="481" y="750" type="curve" smooth="yes"/>
      <point x="466" y="750"/>
      <point x="451" y="750"/>
    </contour>
    <contour>
      <point x="574" y="711" type="move" name="caronslovak"/>
    </contour>
  </outline>
</glyph>
<glyph name="e" format="1">
  <advance width="600"/>
  <unicode hex="0065"/>
  <outline>
    <contour>
      <point x="307" y="485" type="curve" smooth="yes"/>
      <point x="393" y="485"/>
      <point x="439" y="459"/>
      <point x="463" y="389" type="curve"/>
      <point x="472" y="391"/>
      <point x="484" y="398"/>
      <point x="484" y="411" type="curve"/>
      <point x="484" y="481"/>
      <point x="392" y="537"/>
      <point x="312" y="537" type="curve"/>
      <point x="195" y="537"/>
      <point x="84" y="479"/>
      <point x="84" y="305" type="curve" smooth="yes"/>
      <point x="84" y="211" type="line" smooth="yes"/>
      <point x="84" y="59"/>
      <point x="194" y="-10"/>
      <point x="323" y="-10" type="curve" smooth="yes"/>
      <point x="336" y="-10"/>
      <point x="339" y="-1"/>
      <point x="329" y="42" type="curve"/>
      <point x="202" y="42"/>
      <point x="139" y="103"/>
      <point x="139" y="212" type="curve" smooth="yes"/>
      <point x="139" y="303" type="line" smooth="yes"/>
      <point x="139" y="432"/>
      <point x="203" y="485"/>
    </contour>
    <contour>
      <point x="505" y="39" type="curve" smooth="yes"/>
      <point x="507" y="41"/>
      <point x="508" y="44"/>
      <point x="508" y="47" type="curve" smooth="yes"/>
      <point x="508" y="60"/>
      <point x="508" y="74"/>
      <point x="508" y="86" type="curve"/>
      <point x="496" y="86" type="line"/>
      <point x="442" y="55"/>
      <point x="406" y="42"/>
      <point x="329" y="42" type="curve" smooth="yes"/>
      <point x="231" y="42"/>
      <point x="182" y="67"/>
      <point x="137" y="138" type="curve"/>
      <point x="115" y="102"/>
      <point x="170" y="-10"/>
      <point x="323" y="-10" type="curve" smooth="yes"/>
      <point x="415" y="-10"/>
      <point x="480" y="14"/>
    </contour>
    <contour>
      <point x="500" y="234" type="line" smooth="yes"/>
      <point x="507" y="234"/>
      <point x="511" y="238"/>
      <point x="511" y="245" type="curve" smooth="yes"/>
      <point x="511" y="324" type="line" smooth="yes"/>
      <point x="511" y="463"/>
      <point x="437" y="537"/>
      <point x="312" y="537" type="curve" smooth="yes"/>
      <point x="298" y="537"/>
      <point x="296" y="528"/>
      <point x="307" y="485" type="curve"/>
      <point x="413" y="485"/>
      <point x="456" y="432"/>
      <point x="456" y="311" type="curve" smooth="yes"/>
      <point x="456" y="285" type="line" smooth="yes"/>
      <point x="456" y="284"/>
      <point x="456" y="284"/>
      <point x="455" y="284" type="curve" smooth="yes"/>
      <point x="307" y="284"/>
      <point x="237" y="284"/>
      <point x="107" y="284" type="curve"/>
      <point x="107" y="254"/>
      <point x="110" y="247"/>
      <point x="117" y="241" type="curve" smooth="yes"/>
      <point x="121" y="236"/>
      <point x="126" y="234"/>
      <point x="132" y="234" type="curve" smooth="yes"/>
    </contour>
    <contour>
      <point x="307" y="538" type="move" name="top"/>
    </contour>
    <contour>
      <point x="509" y="47" type="move" name="ogonek"/>
    </contour>
    <contour>
      <point x="311" y="-1" type="move" name="bottom"/>
    </contour>
  </outline>
</glyph>
<glyph name="g" format="1">
  <advance width="600"/>
  <unicode hex="0067"/>
  <outline>
    <contour>
      <point x="294" y="486" type="curve" smooth="yes"/>
      <point x="354" y="486"/>
      <point x="387" y="481"/>
      <point x="421" y="455" type="curve"/>
      <point x="448" y="493"/>
      <point x="364" y="537"/>
      <point x="295" y="537" type="curve" smooth="yes"/>
      <point x="176" y="537"/>
      <point x="84" y="470"/>
      <point x="84" y="372" type="curve" smooth="yes"/>
      <point x="84" y="336" type="line" smooth="yes"/>
      <point x="84" y="241"/>
      <point x="165" y="172"/>
      <point x="285" y="172" type="curve" smooth="yes"/>
      <point x="298" y="172"/>
      <point x="299" y="184"/>
      <point x="285" y="223" type="curve"/>
      <point x="202" y="223"/>
      <point x="139" y="260"/>
      <point x="139" y="333" type="curve" smooth="yes"/>
      <point x="139" y="372" type="line" smooth="yes"/>
      <point x="139" y="446"/>
      <point x="202" y="486"/>
    </contour>
    <contour>
      <point x="285" y="223" type="curve" smooth="yes"/>
      <point x="224" y="223"/>
      <point x="188" y="233"/>
      <point x="147" y="260" type="curve"/>
      <point x="135" y="212"/>
      <point x="208" y="172"/>
      <point x="285" y="172" type="curve" smooth="yes"/>
      <point x="404" y="172"/>
      <point x="496" y="236"/>
      <point x="496" y="336" type="curve" smooth="yes"/>
      <point x="496" y="373" type="line" smooth="yes"/>
      <point x="496" y="472"/>
      <point x="415" y="537"/>
      <point x="295" y="537" type="curve" smooth="yes"/>
      <point x="277" y="537"/>
      <point x="276" y="524"/>
      <point x="294" y="486" type="curve"/>
      <point x="395" y="486"/>
      <point x="440" y="444"/>
      <point x="440" y="376" type="curve" smooth="yes"/>
      <point x="440" y="337" type="line" smooth="yes"/>
      <point x="440" y="264"/>
      <point x="378" y="223"/>
    </contour>
    <contour>
      <point x="167" y="93" type="curve" smooth="yes"/>
      <point x="167" y="86" type="line" smooth="yes"/>
      <point x="167" y="31"/>
      <point x="204" y="-1"/>
      <point x="262" y="-1" type="curve" smooth="yes"/>
      <point x="377" y="-1" type="line" smooth="yes"/>
      <point x="466" y="-1"/>
      <point x="505" y="-33"/>
      <point x="505" y="-81" type="curve" smooth="yes"/>
      <point x="505" y="-103" type="line" smooth="yes"/>
      <point x="505" y="-168"/>
      <point x="452" y="-200"/>
      <point x="370" y="-200" type="curve"/>
      <point x="356" y="-242"/>
      <point x="359" y="-250"/>
      <point x="365" y="-250" type="curve" smooth="yes"/>
      <point x="476" y="-250"/>
      <point x="561" y="-202"/>
      <point x="561" y="-97" type="curve" smooth="yes"/>
      <point x="561" y="-80" type="line" smooth="yes"/>
      <point x="561" y="0"/>
      <point x="506" y="53"/>
      <point x="382" y="53" type="curve" smooth="yes"/>
      <point x="263" y="53" type="line" smooth="yes"/>
      <point x="234" y="53"/>
      <point x="222" y="65"/>
      <point x="222" y="92" type="curve" smooth="yes"/>
      <point x="222" y="98" type="line" smooth="yes"/>
      <point x="222" y="125"/>
      <point x="238" y="166"/>
      <point x="256" y="182" type="curve"/>
      <point x="256" y="189"/>
      <point x="249" y="192"/>
      <point x="229" y="192" type="curve" smooth="yes"/>
      <point x="202" y="192"/>
      <point x="167" y="135"/>
    </contour>
    <contour>
      <point x="504" y="-158" type="curve"/>
      <point x="461" y="-194"/>
      <point x="429" y="-200"/>
      <point x="370" y="-200" type="curve" smooth="yes"/>
      <point x="263" y="-200" type="line" smooth="yes"/>
      <point x="167" y="-200"/>
      <point x="114" y="-168"/>
      <point x="114" y="-106" type="curve" smooth="yes"/>
      <point x="114" y="-86" type="line" smooth="yes"/>
      <point x="114" y="-42"/>
      <point x="134" y="-5"/>
      <point x="217" y="19" type="curve"/>
      <point x="212" y="37"/>
      <point x="204" y="53"/>
      <point x="190" y="51" type="curve" smooth="yes"/>
      <point x="104" y="36"/>
      <point x="59" y="-20"/>
      <point x="59" y="-92" type="curve" smooth="yes"/>
      <point x="59" y="-113" type="line" smooth="yes"/>
      <point x="59" y="-193"/>
      <point x="126" y="-250"/>
      <point x="248" y="-250" type="curve" smooth="yes"/>
      <point x="365" y="-250" type="line" smooth="yes"/>
      <point x="421" y="-250"/>
      <point x="524" y="-215"/>
    </contour>
    <contour>
      <point x="441" y="467" type="curve" smooth="yes"/>
      <point x="502" y="488" type="line" smooth="yes"/>
      <point x="571" y="511"/>
      <point x="575" y="514"/>
      <point x="575" y="524" type="curve" smooth="yes"/>
      <point x="575" y="554" type="line" smooth="yes"/>
      <point x="575" y="560"/>
      <point x="570" y="565"/>
      <point x="564" y="565" type="curve" smooth="yes"/>
      <point x="539" y="565"/>
      <point x="491" y="565"/>
      <point x="467" y="565" type="curve"/>
      <point x="467" y="562"/>
      <point x="467" y="559"/>
      <point x="467" y="536" type="curve" smooth="yes"/>
      <point x="467" y="528"/>
      <point x="465" y="523"/>
      <point x="457" y="519" type="curve" smooth="yes"/>
      <point x="401" y="491" type="line"/>
      <point x="409" y="472"/>
      <point x="424" y="461"/>
    </contour>
  </outline>
</glyph>
<glyph name="h" format="1">
  <advance width="600"/>
  <unicode hex="0068"/>
  <outline>
    <contour>
      <point x="164" y="0" type="curve"/>
      <point x="164" y="739" type="line" smooth="yes"/>
      <point x="164" y="742"/>
      <point x="163" y="745"/>
      <point x="161" y="747" type="curve" smooth="yes"/>
      <point x="159" y="749"/>
      <point x="156" y="750"/>
      <point x="153" y="750" type="curve" smooth="yes"/>
      <point x="138" y="750"/>
      <point x="123" y="750"/>
      <point x="108" y="750" type="curve"/>
      <point x="108" y="733"/>
      <point x="108" y="697"/>
      <point x="108" y="650" type="curve" smooth="yes"/>
      <point x="108" y="11" type="line" smooth="yes"/>
      <point x="108" y="5"/>
      <point x="113" y="0"/>
      <point x="119" y="0" type="curve" smooth="yes"/>
      <point x="134" y="0"/>
      <point x="149" y="0"/>
    </contour>
    <contour>
      <point x="357" y="537" type="curve" smooth="yes"/>
      <point x="277" y="537"/>
      <point x="221" y="497"/>
      <point x="163" y="438" type="curve" smooth="yes"/>
      <point x="143" y="418"/>
      <point x="137" y="389"/>
      <point x="141" y="352" type="curve"/>
      <point x="225" y="446"/>
      <point x="283" y="484"/>
      <point x="352" y="484" type="curve" smooth="yes"/>
      <point x="406" y="484"/>
      <point x="441" y="447"/>
      <point x="441" y="368" type="curve"/>
      <point x="488" y="370"/>
      <point x="497" y="382"/>
      <point x="497" y="393" type="curve" smooth="yes"/>
      <point x="497" y="470"/>
      <point x="443" y="537"/>
    </contour>
    <contour>
      <point x="497" y="0" type="curve"/>
      <point x="497" y="36"/>
      <point x="497" y="68"/>
      <point x="497" y="98" type="curve" smooth="yes"/>
      <point x="497" y="393" type="line"/>
      <point x="497" y="420"/>
      <point x="476" y="455"/>
      <point x="430" y="453" type="curve"/>
      <point x="439" y="427"/>
      <point x="441" y="415"/>
      <point x="441" y="368" type="curve" smooth="yes"/>
      <point x="441" y="11" type="line" smooth="yes"/>
      <point x="441" y="5"/>
      <point x="446" y="0"/>
      <point x="452" y="0" type="curve" smooth="yes"/>
      <point x="467" y="0"/>
      <point x="482" y="0"/>
    </contour>
    <contour>
      <point x="142" y="730" type="move" name="top"/>
    </contour>
  </outline>
</glyph>
<glyph name="i" format="1">
  <advance width="600"/>
  <unicode hex="0069"/>
  <outline>
    <contour>
      <point x="89" y="527" type="curve"/>
      <point x="89" y="513"/>
      <point x="89" y="500"/>
      <point x="89" y="486" type="curve" smooth="yes"/>
      <point x="89" y="480"/>
      <point x="94" y="475"/>
      <point x="100" y="475" type="curve" smooth="yes"/>
      <point x="163" y="475"/>
      <point x="226" y="475"/>
      <point x="289" y="475" type="curve"/>
      <point x="289" y="512"/>
      <point x="284" y="527"/>
      <point x="278" y="527" type="curve" smooth="yes"/>
      <point x="204" y="527"/>
      <point x="163" y="527"/>
    </contour>
    <contour>
      <point x="330" y="524" type="curve" smooth="yes"/>
      <point x="328" y="526"/>
      <point x="325" y="527"/>
      <point x="322" y="527" type="curve" smooth="yes"/>
      <point x="278" y="527" type="line"/>
      <point x="278" y="37" type="line" smooth="yes"/>
      <point x="278" y="29"/>
      <point x="287" y="26"/>
      <point x="333" y="26" type="curve"/>
      <point x="333" y="516" type="line" smooth="yes"/>
      <point x="333" y="519"/>
      <point x="332" y="522"/>
    </contour>
    <contour>
      <point x="79" y="51" type="line"/>
      <point x="79" y="38"/>
      <point x="79" y="25"/>
      <point x="79" y="11" type="curve" smooth="yes"/>
      <point x="79" y="8"/>
      <point x="80" y="5"/>
      <point x="82" y="3" type="curve" smooth="yes"/>
      <point x="84" y="1"/>
      <point x="87" y="0"/>
      <point x="90" y="0" type="curve"/>
      <point x="531" y="0" type="line"/>
      <point x="531" y="14"/>
      <point x="531" y="27"/>
      <point x="531" y="40" type="curve" smooth="yes"/>
      <point x="531" y="46"/>
      <point x="526" y="51"/>
      <point x="520" y="51" type="curve"/>
    </contour>
    <contour>
      <point x="348" y="675" type="curve"/>
      <point x="348" y="747" type="line" smooth="yes"/>
      <point x="348" y="753"/>
      <point x="343" y="758"/>
      <point x="337" y="758" type="curve" smooth="yes"/>
      <point x="312" y="758"/>
      <point x="287" y="758"/>
      <point x="262" y="758" type="curve"/>
      <point x="262" y="686" type="line" smooth="yes"/>
      <point x="262" y="680"/>
      <point x="267" y="675"/>
      <point x="273" y="675" type="curve" smooth="yes"/>
      <point x="298" y="675"/>
      <point x="323" y="675"/>
    </contour>
    <contour>
      <point x="532" y="0" type="move" name="ogonek"/>
    </contour>
    <contour>
      <point x="305" y="-1" type="move" name="bottom"/>
    </contour>
  </outline>
</glyph>
<glyph name="j" format="1">
  <advance width="600"/>
  <unicode hex="006A"/>
  <outline>
    <contour>
      <point x="79" y="527" type="curve"/>
      <point x="79" y="513"/>
      <point x="79" y="500"/>
      <point x="79" y="486" type="curve" smooth="yes"/>
      <point x="79" y="480"/>
      <point x="84" y="475"/>
      <point x="90" y="475" type="curve" smooth="yes"/>
      <point x="184" y="475"/>
      <point x="295" y="475"/>
      <point x="389" y="475" type="curve"/>
      <point x="389" y="505"/>
      <point x="384" y="527"/>
      <point x="375" y="527" type="curve" smooth="yes"/>
      <point x="283" y="527"/>
      <point x="171" y="527"/>
    </contour>
    <contour>
      <point x="426" y="0" type="curve" smooth="yes"/>
      <point x="426" y="516" type="line" smooth="yes"/>
      <point x="426" y="519"/>
      <point x="425" y="522"/>
      <point x="423" y="524" type="curve" smooth="yes"/>
      <point x="421" y="526"/>
      <point x="418" y="527"/>
      <point x="415" y="527" type="curve" smooth="yes"/>
      <point x="371" y="527" type="line"/>
      <point x="371" y="1" type="line" smooth="yes"/>
      <point x="371" y="-96"/>
      <point x="362" y="-134"/>
      <point x="300" y="-196" type="curve"/>
      <point x="355" y="-221"/>
      <point x="426" y="-117"/>
    </contour>
    <contour>
      <point x="199" y="-197" type="curve" smooth="yes"/>
      <point x="145" y="-197"/>
      <point x="105" y="-189"/>
      <point x="70" y="-172" type="curve"/>
      <point x="58" y="-172" type="line"/>
      <point x="58" y="-187"/>
      <point x="58" y="-201"/>
      <point x="58" y="-216" type="curve" smooth="yes"/>
      <point x="58" y="-220"/>
      <point x="59" y="-222"/>
      <point x="61" y="-224" type="curve" smooth="yes"/>
      <point x="75" y="-238"/>
      <point x="134" y="-250"/>
      <point x="192" y="-250" type="curve" smooth="yes"/>
      <point x="350" y="-250"/>
      <point x="426" y="-164"/>
      <point x="426" y="0" type="curve" smooth="yes"/>
      <point x="426" y="15"/>
      <point x="410" y="11"/>
      <point x="371" y="1" type="curve"/>
      <point x="371" y="-134"/>
      <point x="313" y="-197"/>
    </contour>
    <contour>
      <point x="441" y="675" type="curve"/>
      <point x="441" y="747" type="line" smooth="yes"/>
      <point x="441" y="753"/>
      <point x="436" y="758"/>
      <point x="430" y="758" type="curve" smooth="yes"/>
      <point x="405" y="758"/>
      <point x="380" y="758"/>
      <point x="355" y="758" type="curve"/>
      <point x="355" y="686" type="line" smooth="yes"/>
      <point x="355" y="680"/>
      <point x="360" y="675"/>
      <point x="366" y="675" type="curve" smooth="yes"/>
      <point x="391" y="675"/>
      <point x="416" y="675"/>
    </contour>
  </outline>
</glyph>
<glyph name="l" format="1">
  <advance width="600"/>
  <unicode hex="006C"/>
  <outline>
    <contour>
      <point x="89" y="750" type="curve"/>
      <point x="89" y="736"/>
      <point x="89" y="723"/>
      <point x="89" y="710" type="curve" smooth="yes"/>
      <point x="89" y="704"/>
      <point x="94" y="699"/>
      <point x="100" y="699" type="curve" smooth="yes"/>
      <point x="163" y="699"/>
      <point x="226" y="699"/>
      <point x="289" y="699" type="curve"/>
      <point x="289" y="735"/>
      <point x="284" y="750"/>
      <point x="278" y="750" type="curve" smooth="yes"/>
      <point x="204" y="750"/>
      <point x="163" y="750"/>
    </contour>
    <contour>
      <point x="330" y="747" type="curve" smooth="yes"/>
      <point x="328" y="749"/>
      <point x="325" y="750"/>
      <point x="322" y="750" type="curve" smooth="yes"/>
      <point x="278" y="750" type="line"/>
      <point x="278" y="37" type="line" smooth="yes"/>
      <point x="278" y="29"/>
      <point x="287" y="26"/>
      <point x="333" y="26" type="curve"/>
      <point x="333" y="739" type="line" smooth="yes"/>
      <point x="333" y="742"/>
      <point x="332" y="745"/>
    </contour>
    <contour>
      <point x="79" y="51" type="line"/>
      <point x="79" y="38"/>
      <point x="79" y="25"/>
      <point x="79" y="11" type="curve" smooth="yes"/>
      <point x="79" y="8"/>
      <point x="80" y="5"/>
      <point x="82" y="3" type="curve" smooth="yes"/>
      <point x="84" y="1"/>
      <point x="87" y="0"/>
      <point x="90" y="0" type="curve"/>
      <point x="531" y="0" type="line"/>
      <point x="531" y="14"/>
      <point x="531" y="27"/>
      <point x="531" y="40" type="curve" smooth="yes"/>
      <point x="531" y="46"/>
      <point x="526" y="51"/>
      <point x="520" y="51" type="curve"/>
    </contour>
    <contour>
      <point x="492" y="671" type="move" name="caronslovak"/>
    </contour>
    <contour>
      <point x="305" y="730" type="move" name="top"/>
    </contour>
    <contour>
      <point x="495" y="400" type="move" name="dot"/>
    </contour>
    <contour>
      <point x="305" y="-1" type="move" name="bottom"/>
    </contour>
  </outline>
</glyph>
<glyph name="m" format="1">
  <advance width="600"/>
  <unicode hex="006D"/>
  <outline>
    <contour>
      <point x="113" y="0" type="curve"/>
      <point x="113" y="511" type="line" smooth="yes"/>
      <point x="113" y="516"/>
      <point x="111" y="522"/>
      <point x="109" y="524" type="curve" smooth="yes"/>
      <point x="107" y="526"/>
      <point x="103" y="527"/>
      <point x="100" y="527" type="curve" smooth="yes"/>
      <point x="86" y="527"/>
      <point x="72" y="527"/>
      <point x="58" y="527" type="curve"/>
      <point x="58" y="510"/>
      <point x="58" y="474"/>
      <point x="58" y="427" type="curve" smooth="yes"/>
      <point x="58" y="11" type="line" smooth="yes"/>
      <point x="58" y="5"/>
      <point x="63" y="0"/>
      <point x="69" y="0" type="curve" smooth="yes"/>
      <point x="84" y="0"/>
      <point x="98" y="0"/>
    </contour>
    <contour>
      <point x="239" y="537" type="curve" smooth="yes"/>
      <point x="187" y="537"/>
      <point x="146" y="503"/>
      <point x="109" y="445" type="curve" smooth="yes"/>
      <point x="94" y="422"/>
      <point x="84" y="392"/>
      <point x="98" y="363" type="curve"/>
      <point x="150" y="446"/>
      <point x="186" y="484"/>
      <point x="230" y="484" type="curve" smooth="yes"/>
      <point x="260" y="484"/>
      <point x="273" y="464"/>
      <point x="273" y="431" type="curve"/>
      <point x="321" y="434"/>
      <point x="327" y="437"/>
      <point x="327" y="438" type="curve" smooth="yes"/>
      <point x="327" y="497"/>
      <point x="289" y="537"/>
    </contour>
    <contour>
      <point x="327" y="0" type="curve"/>
      <point x="327" y="438" type="line" smooth="yes"/>
      <point x="327" y="464"/>
      <point x="307" y="496"/>
      <point x="257" y="494" type="curve"/>
      <point x="268" y="473"/>
      <point x="273" y="463"/>
      <point x="273" y="432" type="curve" smooth="yes"/>
      <point x="273" y="11" type="line" smooth="yes"/>
      <point x="273" y="5"/>
      <point x="278" y="0"/>
      <point x="284" y="0" type="curve" smooth="yes"/>
      <point x="298" y="0"/>
      <point x="313" y="0"/>
    </contour>
    <contour>
      <point x="454" y="537" type="curve" smooth="yes"/>
      <point x="401" y="537"/>
      <point x="361" y="503"/>
      <point x="324" y="445" type="curve" smooth="yes"/>
      <point x="308" y="421"/>
      <point x="298" y="391"/>
      <point x="312" y="363" type="curve"/>
      <point x="364" y="446"/>
      <point x="401" y="484"/>
      <point x="444" y="484" type="curve" smooth="yes"/>
      <point x="474" y="484"/>
      <point x="487" y="464"/>
      <point x="487" y="431" type="curve"/>
      <point x="536" y="434"/>
      <point x="542" y="437"/>
      <point x="542" y="438" type="curve" smooth="yes"/>
      <point x="542" y="498"/>
      <point x="511" y="537"/>
    </contour>
    <contour>
      <point x="542" y="0" type="curve"/>
      <point x="542" y="36"/>
      <point x="542" y="68"/>
      <point x="542" y="98" type="curve" smooth="yes"/>
      <point x="542" y="438" type="line" smooth="yes"/>
      <point x="542" y="464"/>
      <point x="522" y="497"/>
      <point x="472" y="494" type="curve"/>
      <point x="482" y="474"/>
      <point x="487" y="463"/>
      <point x="487" y="432" type="curve" smooth="yes"/>
      <point x="487" y="11" type="line" smooth="yes"/>
      <point x="487" y="5"/>
      <point x="492" y="0"/>
      <point x="498" y="0" type="curve" smooth="yes"/>
      <point x="513" y="0"/>
      <point x="527" y="0"/>
    </contour>
  </outline>
</glyph>
<glyph name="n" format="1">
  <advance width="600"/>
  <unicode hex="006E"/>
  <outline>
    <contour>
      <point x="164" y="0" type="curve"/>
      <point x="164" y="516" type="line" smooth="yes"/>
      <point x="164" y="519"/>
      <point x="163" y="522"/>
      <point x="161" y="524" type="curve" smooth="yes"/>
      <point x="159" y="526"/>
      <point x="156" y="527"/>
      <point x="153" y="527" type="curve" smooth="yes"/>
      <point x="138" y="527"/>
      <point x="123" y="527"/>
      <point x="108" y="527" type="curve"/>
      <point x="108" y="510"/>
      <point x="108" y="474"/>
      <point x="108" y="427" type="curve" smooth="yes"/>
      <point x="108" y="11" type="line" smooth="yes"/>
      <point x="108" y="5"/>
      <point x="113" y="0"/>
      <point x="119" y="0" type="curve" smooth="yes"/>
      <point x="134" y="0"/>
      <point x="149" y="0"/>
    </contour>
    <contour>
      <point x="357" y="537" type="curve" smooth="yes"/>
      <point x="277" y="537"/>
      <point x="221" y="497"/>
      <point x="163" y="438" type="curve" smooth="yes"/>
      <point x="143" y="418"/>
      <point x="137" y="389"/>
      <point x="141" y="352" type="curve"/>
      <point x="225" y="446"/>
      <point x="283" y="484"/>
      <point x="350" y="484" type="curve" smooth="yes"/>
      <point x="404" y="484"/>
      <point x="441" y="447"/>
      <point x="441" y="376" type="curve"/>
      <point x="492" y="377"/>
      <point x="497" y="386"/>
      <point x="497" y="393" type="curve" smooth="yes"/>
      <point x="497" y="472"/>
      <point x="445" y="537"/>
    </contour>
    <contour>
      <point x="497" y="0" type="curve"/>
      <point x="497" y="36"/>
      <point x="497" y="68"/>
      <point x="497" y="98" type="curve" smooth="yes"/>
      <point x="497" y="393" type="line"/>
      <point x="497" y="420"/>
      <point x="476" y="455"/>
      <point x="430" y="453" type="curve"/>
      <point x="438" y="429"/>
      <point x="441" y="419"/>
      <point x="441" y="376" type="curve" smooth="yes"/>
      <point x="441" y="11" type="line" smooth="yes"/>
      <point x="441" y="5"/>
      <point x="446" y="0"/>
      <point x="452" y="0" type="curve" smooth="yes"/>
      <point x="467" y="0"/>
      <point x="482" y="0"/>
    </contour>
    <contour>
      <point x="69" y="709" type="move" name="caronslovak"/>
    </contour>
    <contour>
      <point x="300" y="538" type="move" name="top"/>
    </contour>
    <contour>
      <point x="302" y="-1" type="move" name="bottom"/>
    </contour>
  </outline>
</glyph>
<glyph name="p" format="1">
  <advance width="600"/>
  <unicode hex="0070"/>
  <outline>
    <contour>
      <point x="164" y="-219" type="curve"/>
      <point x="164" y="516" type="line" smooth="yes"/>
      <point x="164" y="519"/>
      <point x="163" y="522"/>
      <point x="161" y="524" type="curve" smooth="yes"/>
      <point x="159" y="526"/>
      <point x="156" y="527"/>
      <point x="153" y="527" type="curve"/>
      <point x="138" y="527"/>
      <point x="123" y="527"/>
      <point x="108" y="527" type="curve"/>
      <point x="108" y="492"/>
      <point x="108" y="458"/>
      <point x="108" y="427" type="curve" smooth="yes"/>
      <point x="108" y="-208" type="line" smooth="yes"/>
      <point x="108" y="-214"/>
      <point x="113" y="-219"/>
      <point x="119" y="-219" type="curve"/>
      <point x="134" y="-219"/>
      <point x="149" y="-219"/>
    </contour>
    <contour>
      <point x="347" y="537" type="curve" smooth="yes"/>
      <point x="281" y="537"/>
      <point x="220" y="509"/>
      <point x="164" y="452" type="curve" smooth="yes"/>
      <point x="146" y="434"/>
      <point x="138" y="407"/>
      <point x="142" y="375" type="curve"/>
      <point x="220" y="456"/>
      <point x="272" y="484"/>
      <point x="342" y="484" type="curve" smooth="yes"/>
      <point x="425" y="484"/>
      <point x="470" y="423"/>
      <point x="470" y="311" type="curve"/>
      <point x="497" y="314"/>
      <point x="526" y="313"/>
      <point x="526" y="331" type="curve" smooth="yes"/>
      <point x="526" y="455"/>
      <point x="460" y="537"/>
    </contour>
    <contour>
      <point x="326" y="-10" type="curve" smooth="yes"/>
      <point x="453" y="-10"/>
      <point x="526" y="71"/>
      <point x="526" y="213" type="curve" smooth="yes"/>
      <point x="526" y="331" type="line" smooth="yes"/>
      <point x="526" y="381"/>
      <point x="489" y="459"/>
      <point x="463" y="459" type="curve" smooth="yes"/>
      <point x="451" y="459"/>
      <point x="447" y="458"/>
      <point x="445" y="452" type="curve"/>
      <point x="462" y="411"/>
      <point x="470" y="365"/>
      <point x="470" y="311" type="curve" smooth="yes"/>
      <point x="470" y="222" type="line" smooth="yes"/>
      <point x="470" y="99"/>
      <point x="423" y="42"/>
      <point x="321" y="42" type="curve" smooth="yes"/>
      <point x="254" y="42"/>
      <point x="214" y="62"/>
      <point x="155" y="127" type="curve"/>
      <point x="144" y="123"/>
      <point x="136" y="104"/>
      <point x="142" y="91" type="curve" smooth="yes"/>
      <point x="172" y="29"/>
      <point x="242" y="-10"/>
    </contour>
  </outline>
</glyph>
<glyph name="r" format="1">
  <advance width="600"/>
  <unicode hex="0072"/>
  <outline>
    <contour>
      <point x="89" y="527" type="curve"/>
      <point x="89" y="513"/>
      <point x="89" y="500"/>
      <point x="89" y="486" type="curve" smooth="yes"/>
      <point x="89" y="480"/>
      <point x="94" y="475"/>
      <point x="100" y="475" type="curve" smooth="yes"/>
      <point x="141" y="475"/>
      <point x="216" y="475"/>
      <point x="258" y="475" type="curve"/>
      <point x="258" y="513"/>
      <point x="254" y="527"/>
      <point x="250" y="527" type="curve" smooth="yes"/>
      <point x="201" y="527"/>
      <point x="137" y="527"/>
    </contour>
    <contour>
      <point x="269" y="27" type="curve"/>
      <point x="269" y="430" type="line" smooth="yes"/>
      <point x="269" y="465"/>
      <point x="262" y="527"/>
      <point x="250" y="527" type="curve" smooth="yes"/>
      <point x="243" y="527"/>
      <point x="221" y="521"/>
      <point x="213" y="517" type="curve"/>
      <point x="213" y="37" type="line" smooth="yes"/>
      <point x="213" y="30"/>
      <point x="219" y="27"/>
    </contour>
    <contour>
      <point x="79" y="51" type="line"/>
      <point x="79" y="38"/>
      <point x="79" y="25"/>
      <point x="79" y="11" type="curve" smooth="yes"/>
      <point x="79" y="8"/>
      <point x="80" y="5"/>
      <point x="82" y="3" type="curve" smooth="yes"/>
      <point x="84" y="1"/>
      <point x="87" y="0"/>
      <point x="90" y="0" type="curve"/>
      <point x="490" y="0" type="line"/>
      <point x="490" y="14"/>
      <point x="490" y="27"/>
      <point x="490" y="40" type="curve" smooth="yes"/>
      <point x="490" y="46"/>
      <point x="485" y="51"/>
      <point x="479" y="51" type="curve"/>
    </contour>
    <contour>
      <point x="237" y="347" type="curve"/>
      <point x="341" y="459"/>
      <point x="397" y="476"/>
      <point x="463" y="476" type="curve" smooth="yes"/>
      <point x="485" y="476"/>
      <point x="505" y="476"/>
      <point x="525" y="475" type="curve"/>
      <point x="532" y="475" type="line"/>
      <point x="532" y="490"/>
      <point x="532" y="508"/>
      <point x="532" y="521" type="curve"/>
      <point x="532" y="528"/>
      <point x="528" y="532"/>
      <point x="521" y="532" type="curve" smooth="yes"/>
      <point x="471" y="532" type="line" smooth="yes"/>
      <point x="386" y="532"/>
      <point x="322" y="502"/>
      <point x="258" y="428" type="curve" smooth="yes"/>
      <point x="239" y="406"/>
      <point x="235" y="378"/>
    </contour>
    <contour>
      <point x="305" y="538" type="move" name="top"/>
    </contour>
    <contour>
      <point x="305" y="-1" type="move" name="bottom"/>
    </contour>
  </outline>
</glyph>
<glyph name="s" format="1">
  <advance width="600"/>
  <unicode hex="0073"/>
  <outline>
    <contour>
      <point x="325" y="535" type="curve" smooth="yes"/>
      <point x="312" y="535" type="line" smooth="yes"/>
      <point x="174" y="535"/>
      <point x="104" y="465"/>
      <point x="104" y="390" type="curve" smooth="yes"/>
      <point x="104" y="350"/>
      <point x="138" y="347"/>
      <point x="159" y="347" type="curve"/>
      <point x="159" y="366"/>
      <point x="159" y="379"/>
      <point x="159" y="391" type="curve" smooth="yes"/>
      <point x="159" y="447"/>
      <point x="221" y="482"/>
      <point x="316" y="482" type="curve" smooth="yes"/>
      <point x="386" y="482"/>
      <point x="422" y="473"/>
      <point x="470" y="450" type="curve"/>
      <point x="483" y="450" type="line"/>
      <point x="483" y="465"/>
      <point x="483" y="480"/>
      <point x="483" y="495" type="curve"/>
      <point x="483" y="498"/>
      <point x="483" y="500"/>
      <point x="480" y="503" type="curve" smooth="yes"/>
      <point x="471" y="512"/>
      <point x="406" y="535"/>
    </contour>
    <contour>
      <point x="366" y="284" type="curve" smooth="yes"/>
      <point x="271" y="307" type="line" smooth="yes"/>
      <point x="179" y="329"/>
      <point x="159" y="348"/>
      <point x="159" y="391" type="curve" smooth="yes"/>
      <point x="159" y="401"/>
      <point x="159" y="418"/>
      <point x="159" y="438" type="curve"/>
      <point x="129" y="438"/>
      <point x="104" y="413"/>
      <point x="104" y="390" type="curve"/>
      <point x="104" y="318"/>
      <point x="138" y="285"/>
      <point x="243" y="259" type="curve" smooth="yes"/>
      <point x="336" y="236" type="line" smooth="yes"/>
      <point x="430" y="212"/>
      <point x="451" y="191"/>
      <point x="451" y="143" type="curve" smooth="yes"/>
      <point x="451" y="128"/>
      <point x="451" y="122"/>
      <point x="451" y="109" type="curve"/>
      <point x="489" y="109"/>
      <point x="507" y="129"/>
      <point x="507" y="143" type="curve" smooth="yes"/>
      <point x="507" y="215"/>
      <point x="477" y="258"/>
    </contour>
    <contour>
      <point x="289" y="44" type="curve" smooth="yes"/>
      <point x="194" y="44"/>
      <point x="149" y="63"/>
      <point x="97" y="105" type="curve"/>
      <point x="84" y="105" type="line"/>
      <point x="84" y="94"/>
      <point x="84" y="74"/>
      <point x="84" y="56" type="curve" smooth="yes"/>
      <point x="84" y="52"/>
      <point x="85" y="50"/>
      <point x="87" y="48" type="curve" smooth="yes"/>
      <point x="113" y="22"/>
      <point x="181" y="-8"/>
      <point x="283" y="-8" type="curve" smooth="yes"/>
      <point x="289" y="-8" type="line" smooth="yes"/>
      <point x="423" y="-8"/>
      <point x="507" y="49"/>
      <point x="507" y="143" type="curve" smooth="yes"/>
      <point x="507" y="164"/>
      <point x="482" y="189"/>
      <point x="451" y="189" type="curve"/>
      <point x="451" y="171"/>
      <point x="451" y="161"/>
      <point x="451" y="143" type="curve" smooth="yes"/>
      <point x="451" y="84"/>
      <point x="403" y="44"/>
    </contour>
    <contour>
      <point x="316" y="538" type="move" name="top"/>
    </contour>
    <contour>
      <point x="306" y="-1" type="move" name="bottom"/>
    </contour>
  </outline>
</glyph>
<glyph name="t" format="1">
  <advance width="600"/>
  <unicode hex="0074"/>
  <outline>
    <contour>
      <point x="218" y="700" type="curve"/>
      <point x="218" y="189" type="line" smooth="yes"/>
      <point x="218" y="93"/>
      <point x="267" y="47"/>
      <point x="324" y="48" type="curve"/>
      <point x="282" y="94"/>
      <point x="273" y="112"/>
      <point x="273" y="200" type="curve" smooth="yes"/>
      <point x="273" y="689" type="line" smooth="yes"/>
      <point x="273" y="695"/>
      <point x="268" y="700"/>
      <point x="262" y="700" type="curve" smooth="yes"/>
      <point x="247" y="700"/>
      <point x="232" y="700"/>
    </contour>
    <contour>
      <point x="500" y="52" type="curve"/>
      <point x="489" y="52" type="line"/>
      <point x="465" y="52"/>
      <point x="439" y="52"/>
      <point x="407" y="52" type="curve" smooth="yes"/>
      <point x="309" y="52"/>
      <point x="273" y="87"/>
      <point x="273" y="200" type="curve"/>
      <point x="231" y="214"/>
      <point x="218" y="207"/>
      <point x="218" y="189" type="curve" smooth="yes"/>
      <point x="218" y="37"/>
      <point x="305" y="0"/>
      <point x="400" y="0" type="curve" smooth="yes"/>
      <point x="489" y="0" type="line" smooth="yes"/>
      <point x="493" y="0"/>
      <point x="495" y="1"/>
      <point x="497" y="3" type="curve" smooth="yes"/>
      <point x="499" y="5"/>
      <point x="500" y="7"/>
      <point x="500" y="11" type="curve" smooth="yes"/>
      <point x="500" y="26"/>
      <point x="500" y="37"/>
    </contour>
    <contour>
      <point x="79" y="527" type="line"/>
      <point x="79" y="512"/>
      <point x="79" y="501"/>
      <point x="79" y="487" type="curve" smooth="yes"/>
      <point x="79" y="484"/>
      <point x="80" y="481"/>
      <point x="82" y="479" type="curve" smooth="yes"/>
      <point x="84" y="477"/>
      <point x="87" y="476"/>
      <point x="90" y="476" type="curve" smooth="yes"/>
      <point x="500" y="476" type="line"/>
      <point x="500" y="490"/>
      <point x="500" y="501"/>
      <point x="500" y="516" type="curve" smooth="yes"/>
      <point x="500" y="522"/>
      <point x="495" y="527"/>
      <point x="489" y="527" type="curve" smooth="yes"/>
    </contour>
    <contour>
      <point x="431" y="700" type="move" name="caronslovak"/>
    </contour>
    <contour>
      <point x="370" y="-1" type="move" name="bottom"/>
    </contour>
  </outline>
</glyph>
<glyph name="v" format="1">
  <advance width="600"/>
  <unicode hex="0076"/>
  <outline>
    <contour>
      <point x="536" y="527" type="curve" smooth="yes"/>
      <point x="488" y="527" type="line"/>
      <point x="425" y="361"/>
      <point x="362" y="196"/>
      <point x="298" y="30" type="curve"/>
      <point x="292" y="12"/>
      <point x="289" y="7"/>
      <point x="279" y="0" type="curve"/>
      <point x="346" y="0" type="line"/>
      <point x="413" y="172"/>
      <point x="478" y="343"/>
      <point x="544" y="515" type="curve"/>
      <point x="547" y="522"/>
      <point x="542" y="527"/>
    </contour>
    <contour>
      <point x="106" y="527" type="curve" smooth="yes"/>
      <point x="52" y="527" type="line"/>
      <point x="118" y="355"/>
      <point x="183" y="183"/>
      <point x="250" y="11" type="curve"/>
      <point x="253" y="3"/>
      <point x="259" y="0"/>
      <point x="264" y="0" type="curve" smooth="yes"/>
      <point x="287" y="0" type="line" smooth="yes"/>
      <point x="306" y="0"/>
      <point x="349" y="16"/>
      <point x="353" y="52" type="curve"/>
      <point x="334" y="52"/>
      <point x="318" y="52"/>
      <point x="300" y="52" type="curve" smooth="yes"/>
      <point x="295" y="52"/>
      <point x="293" y="55"/>
      <point x="291" y="60" type="curve"/>
      <point x="232" y="214"/>
      <point x="173" y="366"/>
      <point x="115" y="520" type="curve"/>
      <point x="113" y="525"/>
      <point x="111" y="527"/>
    </contour>
  </outline>
</glyph>
<glyph name="w" format="1">
  <advance width="600"/>
  <unicode hex="0077"/>
  <outline>
    <contour>
      <point x="48" y="527" type="curve"/>
      <point x="74" y="356"/>
      <point x="101" y="183"/>
      <point x="126" y="11" type="curve" smooth="yes"/>
      <point x="127" y="3"/>
      <point x="133" y="0"/>
      <point x="140" y="0" type="curve" smooth="yes"/>
      <point x="159" y="0" type="line" smooth="yes"/>
      <point x="168" y="0"/>
      <point x="177" y="10"/>
      <point x="176" y="26" type="curve" smooth="yes"/>
      <point x="152" y="189"/>
      <point x="129" y="353"/>
      <point x="106" y="516" type="curve"/>
      <point x="105" y="522"/>
      <point x="104" y="524"/>
      <point x="103" y="525" type="curve" smooth="yes"/>
      <point x="101" y="526"/>
      <point x="99" y="527"/>
      <point x="96" y="527" type="curve"/>
      <point x="80" y="527"/>
      <point x="64" y="527"/>
    </contour>
    <contour>
      <point x="308" y="426" type="curve" smooth="yes"/>
      <point x="272" y="426" type="line"/>
      <point x="237" y="295"/>
      <point x="201" y="163"/>
      <point x="164" y="30" type="curve"/>
      <point x="160" y="11"/>
      <point x="157" y="6"/>
      <point x="151" y="0" type="curve"/>
      <point x="208" y="0" type="line"/>
      <point x="244" y="136"/>
      <point x="280" y="271"/>
      <point x="315" y="406" type="curve" smooth="yes"/>
      <point x="319" y="421"/>
      <point x="315" y="426"/>
    </contour>
    <contour>
      <point x="323" y="426" type="curve" smooth="yes"/>
      <point x="280" y="426" type="line"/>
      <point x="315" y="289"/>
      <point x="352" y="150"/>
      <point x="388" y="11" type="curve" smooth="yes"/>
      <point x="390" y="3"/>
      <point x="396" y="0"/>
      <point x="401" y="0" type="curve" smooth="yes"/>
      <point x="418" y="0" type="line" smooth="yes"/>
      <point x="427" y="0"/>
      <point x="438" y="10"/>
      <point x="435" y="25" type="curve" smooth="yes"/>
      <point x="400" y="157"/>
      <point x="366" y="286"/>
      <point x="332" y="416" type="curve" smooth="yes"/>
      <point x="330" y="425"/>
      <point x="327" y="426"/>
    </contour>
    <contour>
      <point x="495" y="527" type="curve"/>
      <point x="471" y="362"/>
      <point x="448" y="195"/>
      <point x="424" y="30" type="curve"/>
      <point x="421" y="12"/>
      <point x="419" y="6"/>
      <point x="413" y="0" type="curve"/>
      <point x="471" y="0" type="line"/>
      <point x="497" y="170"/>
      <point x="523" y="344"/>
      <point x="549" y="515" type="curve"/>
      <point x="550" y="520"/>
      <point x="550" y="523"/>
      <point x="548" y="525" type="curve" smooth="yes"/>
      <point x="547" y="526"/>
      <point x="545" y="527"/>
      <point x="541" y="527" type="curve"/>
      <point x="526" y="527"/>
      <point x="510" y="527"/>
    </contour>
    <contour>
      <point x="298" y="538" type="move" name="top"/>
    </contour>
  </outline>
</glyph>
<glyph name="y" format="1">
  <advance width="600"/>
  <unicode hex="0079"/>
  <outline>
    <contour>
      <point x="535" y="527" type="curve" smooth="yes"/>
      <point x="520" y="527"/>
      <point x="506" y="527"/>
      <point x="493" y="527" type="curve"/>
      <point x="417" y="307"/>
      <point x="291" y="-57"/>
      <point x="264" y="-133" type="curve" smooth="yes"/>
      <point x="249" y="-178"/>
      <point x="219" y="-197"/>
      <point x="174" y="-197" type="curve" smooth="yes"/>
      <point x="86" y="-197" type="line"/>
      <point x="86" y="-239" type="line" smooth="yes"/>
      <point x="86" y="-248"/>
      <point x="90" y="-250"/>
      <point x="97" y="-250" type="curve" smooth="yes"/>
      <point x="174" y="-250" type="line" smooth="yes"/>
      <point x="248" y="-250"/>
      <point x="288" y="-220"/>
      <point x="316" y="-139" type="curve" smooth="yes"/>
      <point x="372" y="20"/>
      <point x="471" y="297"/>
      <point x="547" y="511" type="curve" smooth="yes"/>
      <point x="551" y="521"/>
      <point x="542" y="527"/>
    </contour>
    <contour>
      <point x="97" y="527" type="curve" smooth="yes"/>
      <point x="79" y="527"/>
      <point x="63" y="527"/>
      <point x="48" y="527" type="curve"/>
      <point x="118" y="359"/>
      <point x="265" y="14"/>
      <point x="268" y="7" type="curve" smooth="yes"/>
      <point x="270" y="2"/>
      <point x="273" y="0"/>
      <point x="278" y="0" type="curve" smooth="yes"/>
      <point x="325" y="0" type="line" smooth="yes"/>
      <point x="343" y="0"/>
      <point x="357" y="11"/>
      <point x="358" y="51" type="curve"/>
      <point x="315" y="51" type="line"/>
      <point x="310" y="51"/>
      <point x="308" y="54"/>
      <point x="305" y="60" type="curve" smooth="yes"/>
      <point x="298" y="77"/>
      <point x="133" y="471"/>
      <point x="115" y="516" type="curve" smooth="yes"/>
      <point x="111" y="525"/>
      <point x="107" y="527"/>
    </contour>
    <contour>
      <point x="319" y="538" type="move" name="top"/>
    </contour>
  </outline>
</glyph>
<glyph name="z" format="1">
  <advance width="600"/>
  <unicode hex="007A"/>
  <outline>
    <contour>
      <point x="81" y="527" type="line"/>
      <point x="81" y="513"/>
      <point x="81" y="499"/>
      <point x="81" y="486" type="curve" smooth="yes"/>
      <point x="81" y="483"/>
      <point x="82" y="480"/>
      <point x="84" y="478" type="curve" smooth="yes"/>
      <point x="86" y="476"/>
      <point x="89" y="475"/>
      <point x="92" y="475" type="curve" smooth="yes"/>
      <point x="457" y="475" type="line" smooth="yes"/>
      <point x="471" y="475"/>
      <point x="513" y="475"/>
      <point x="522" y="475" type="curve"/>
      <point x="522" y="516" type="line" smooth="yes"/>
      <point x="522" y="519"/>
      <point x="521" y="522"/>
      <point x="519" y="524" type="curve" smooth="yes"/>
      <point x="517" y="526"/>
      <point x="514" y="527"/>
      <point x="511" y="527" type="curve" smooth="yes"/>
    </contour>
    <contour>
      <point x="477" y="505" type="curve"/>
      <point x="343" y="351"/>
      <point x="215" y="204"/>
      <point x="81" y="52" type="curve"/>
      <point x="81" y="17"/>
      <point x="123" y="16"/>
      <point x="139" y="36" type="curve" smooth="yes"/>
      <point x="272" y="188"/>
      <point x="522" y="474"/>
      <point x="522" y="475" type="curve"/>
      <point x="522" y="496"/>
      <point x="508" y="505"/>
    </contour>
    <contour>
      <point x="522" y="0" type="line"/>
      <point x="522" y="14"/>
      <point x="522" y="27"/>
      <point x="522" y="41" type="curve"/>
      <point x="522" y="47"/>
      <point x="517" y="52"/>
      <point x="511" y="52" type="curve" smooth="yes"/>
      <point x="148" y="52" type="line" smooth="yes"/>
      <point x="127" y="52"/>
      <point x="105" y="52"/>
      <point x="81" y="52" type="curve"/>
      <point x="81" y="11" type="line" smooth="yes"/>
      <point x="81" y="8"/>
      <point x="82" y="5"/>
      <point x="84" y="3" type="curve" smooth="yes"/>
      <point x="86" y="1"/>
      <point x="89" y="0"/>
      <point x="92" y="0" type="curve" smooth="yes"/>
    </contour>
    <contour>
      <point x="300" y="538" type="move" name="top"/>
    </contour>
  </outline>
</glyph>
<glyph name="braceleft" format="1">
  <advance width="600"/>
  <unicode hex="007B"/>
  <outline>
    <contour>
      <point x="338" y="705" type="curve" smooth="yes"/>
      <point x="391" y="705"/>
      <point x="438" y="705"/>
      <point x="491" y="705" type="curve"/>
      <point x="511" y="705" type="line"/>
      <point x="511" y="720"/>
      <point x="511" y="734"/>
      <point x="511" y="749" type="curve"/>
      <point x="511" y="756"/>
      <point x="507" y="760"/>
      <point x="500" y="760" type="curve" smooth="yes"/>
      <point x="332" y="760" type="line" smooth="yes"/>
      <point x="255" y="760"/>
      <point x="228" y="702"/>
      <point x="228" y="666" type="curve" smooth="yes"/>
      <point x="228" y="662" type="line" smooth="yes"/>
      <point x="228" y="653"/>
      <point x="237" y="651"/>
      <point x="280" y="649" type="curve"/>
      <point x="287" y="688"/>
      <point x="302" y="705"/>
    </contour>
    <contour>
      <point x="363" y="449" type="curve" smooth="yes"/>
      <point x="363" y="536"/>
      <point x="284" y="569"/>
      <point x="284" y="623" type="curve" smooth="yes"/>
      <point x="284" y="643"/>
      <point x="284" y="668"/>
      <point x="284" y="689" type="curve"/>
      <point x="232" y="676"/>
      <point x="228" y="672"/>
      <point x="228" y="666" type="curve" smooth="yes"/>
      <point x="228" y="613" type="line" smooth="yes"/>
      <point x="228" y="543"/>
      <point x="308" y="516"/>
      <point x="308" y="446" type="curve" smooth="yes"/>
      <point x="308" y="373"/>
      <point x="226" y="328"/>
      <point x="99" y="328" type="curve" smooth="yes"/>
      <point x="67" y="328" type="line"/>
      <point x="67" y="292" type="line" smooth="yes"/>
      <point x="67" y="283"/>
      <point x="75" y="276"/>
      <point x="84" y="276" type="curve" smooth="yes"/>
      <point x="99" y="276" type="line" smooth="yes"/>
      <point x="255" y="276"/>
      <point x="363" y="346"/>
    </contour>
    <contour>
      <point x="363" y="149" type="curve" smooth="yes"/>
      <point x="363" y="252"/>
      <point x="260" y="324"/>
      <point x="99" y="324" type="curve" smooth="yes"/>
      <point x="88" y="324"/>
      <point x="78" y="324"/>
      <point x="67" y="324" type="curve"/>
      <point x="67" y="283" type="line" smooth="yes"/>
      <point x="67" y="276"/>
      <point x="71" y="272"/>
      <point x="78" y="272" type="curve" smooth="yes"/>
      <point x="99" y="272" type="line" smooth="yes"/>
      <point x="226" y="272"/>
      <point x="308" y="225"/>
      <point x="308" y="152" type="curve" smooth="yes"/>
      <point x="308" y="82"/>
      <point x="228" y="56"/>
      <point x="228" y="-14" type="curve" smooth="yes"/>
      <point x="228" y="-67" type="line" smooth="yes"/>
      <point x="228" y="-73"/>
      <point x="234" y="-77"/>
      <point x="284" y="-86" type="curve"/>
      <point x="284" y="-66"/>
      <point x="284" y="-44"/>
      <point x="284" y="-24" type="curve" smooth="yes"/>
      <point x="284" y="31"/>
      <point x="363" y="63"/>
    </contour>
    <contour>
      <point x="338" y="-106" type="curve" smooth="yes"/>
      <point x="302" y="-106"/>
      <point x="287" y="-89"/>
      <point x="280" y="-50" type="curve"/>
      <point x="237" y="-52"/>
      <point x="228" y="-54"/>
      <point x="228" y="-63" type="curve" smooth="yes"/>
      <point x="228" y="-67" type="line" smooth="yes"/>
      <point x="228" y="-103"/>
      <point x="255" y="-161"/>
      <point x="332" y="-161" type="curve" smooth="yes"/>
      <point x="500" y="-161" type="line" smooth="yes"/>
      <point x="507" y="-161"/>
      <point x="511" y="-157"/>
      <point x="511" y="-150" type="curve"/>
      <point x="511" y="-106" type="line"/>
      <point x="491" y="-106" type="line"/>
      <point x="438" y="-106"/>
      <point x="391" y="-106"/>
    </contour>
  </outline>
</glyph>
<glyph name="bar" format="1">
  <advance width="600"/>
  <unicode hex="007C"/>
  <outline>
    <contour>
      <point x="272" y="760" type="curve"/>
      <point x="272" y="727"/>
      <point x="272" y="694"/>
      <point x="272" y="661" type="curve" smooth="yes"/>
      <point x="272" y="-150" type="line" smooth="yes"/>
      <point x="272" y="-156"/>
      <point x="277" y="-161"/>
      <point x="283" y="-161" type="curve" smooth="yes"/>
      <point x="298" y="-161"/>
      <point x="313" y="-161"/>
      <point x="328" y="-161" type="curve"/>
      <point x="328" y="749" type="line" smooth="yes"/>
      <point x="328" y="752"/>
      <point x="327" y="755"/>
      <point x="325" y="757" type="curve" smooth="yes"/>
      <point x="323" y="759"/>
      <point x="320" y="760"/>
      <point x="317" y="760" type="curve" smooth="yes"/>
      <point x="302" y="760"/>
      <point x="287" y="760"/>
    </contour>
  </outline>
</glyph>
<glyph name="braceright" format="1">
  <advance width="600"/>
  <unicode hex="007D"/>
  <outline>
    <contour>
      <point x="262" y="-106" type="curve" smooth="yes"/>
      <point x="209" y="-106"/>
      <point x="162" y="-106"/>
      <point x="109" y="-106" type="curve"/>
      <point x="89" y="-106" type="line"/>
      <point x="89" y="-121"/>
      <point x="89" y="-135"/>
      <point x="89" y="-150" type="curve"/>
      <point x="89" y="-157"/>
      <point x="93" y="-161"/>
      <point x="100" y="-161" type="curve" smooth="yes"/>
      <point x="268" y="-161" type="line" smooth="yes"/>
      <point x="345" y="-161"/>
      <point x="372" y="-103"/>
      <point x="372" y="-67" type="curve" smooth="yes"/>
      <point x="372" y="-63" type="line" smooth="yes"/>
      <point x="372" y="-54"/>
      <point x="363" y="-52"/>
      <point x="320" y="-50" type="curve"/>
      <point x="313" y="-89"/>
      <point x="298" y="-106"/>
    </contour>
    <contour>
      <point x="237" y="150" type="curve" smooth="yes"/>
      <point x="237" y="63"/>
      <point x="316" y="30"/>
      <point x="316" y="-24" type="curve" smooth="yes"/>
      <point x="316" y="-44"/>
      <point x="316" y="-69"/>
      <point x="316" y="-90" type="curve"/>
      <point x="368" y="-77"/>
      <point x="372" y="-73"/>
      <point x="372" y="-67" type="curve" smooth="yes"/>
      <point x="372" y="-14" type="line" smooth="yes"/>
      <point x="372" y="56"/>
      <point x="292" y="83"/>
      <point x="292" y="153" type="curve" smooth="yes"/>
      <point x="292" y="226"/>
      <point x="374" y="271"/>
      <point x="501" y="271" type="curve" smooth="yes"/>
      <point x="533" y="271" type="line"/>
      <point x="533" y="307" type="line" smooth="yes"/>
      <point x="533" y="316"/>
      <point x="525" y="323"/>
      <point x="516" y="323" type="curve" smooth="yes"/>
      <point x="501" y="323" type="line" smooth="yes"/>
      <point x="345" y="323"/>
      <point x="237" y="253"/>
    </contour>
    <contour>
      <point x="237" y="450" type="curve" smooth="yes"/>
      <point x="237" y="347"/>
      <point x="340" y="275"/>
      <point x="501" y="275" type="curve" smooth="yes"/>
      <point x="512" y="275"/>
      <point x="522" y="275"/>
      <point x="533" y="275" type="curve"/>
      <point x="533" y="316" type="line" smooth="yes"/>
      <point x="533" y="323"/>
      <point x="529" y="327"/>
      <point x="522" y="327" type="curve" smooth="yes"/>
      <point x="501" y="327" type="line" smooth="yes"/>
      <point x="374" y="327"/>
      <point x="292" y="374"/>
      <point x="292" y="447" type="curve" smooth="yes"/>
      <point x="292" y="517"/>
      <point x="372" y="543"/>
      <point x="372" y="613" type="curve" smooth="yes"/>
      <point x="372" y="666" type="line" smooth="yes"/>
      <point x="372" y="672"/>
      <point x="366" y="676"/>
      <point x="316" y="685" type="curve"/>
      <point x="316" y="665"/>
      <point x="316" y="643"/>
      <point x="316" y="623" type="curve" smooth="yes"/>
      <point x="316" y="568"/>
      <point x="237" y="536"/>
    </contour>
    <contour>
      <point x="262" y="705" type="curve" smooth="yes"/>
      <point x="298" y="705"/>
      <point x="313" y="688"/>
      <point x="320" y="649" type="curve"/>
      <point x="363" y="651"/>
      <point x="372" y="653"/>
      <point x="372" y="662" type="curve" smooth="yes"/>
      <point x="372" y="666" type="line" smooth="yes"/>
      <point x="372" y="702"/>
      <point x="345" y="760"/>
      <point x="268" y="760" type="curve" smooth="yes"/>
      <point x="100" y="760" type="line" smooth="yes"/>
      <point x="93" y="760"/>
      <point x="89" y="756"/>
      <point x="89" y="749" type="curve"/>
      <point x="89" y="705" type="line"/>
      <point x="109" y="705" type="line"/>
      <point x="162" y="705"/>
      <point x="209" y="705"/>
    </contour>
  </outline>
</glyph>
<glyph name="exclamdown" format="1">
  <advance width="600"/>
  <unicode hex="00A1"/>
  <outline>
    <contour>
      <point x="275" y="284" type="line"/>
      <point x="271" y="198"/>
      <point x="266" y="111"/>
      <point x="262" y="25" type="curve"/>
      <point x="262" y="-162" type="line" smooth="yes"/>
      <point x="262" y="-169"/>
      <point x="267" y="-173"/>
      <point x="273" y="-173" type="curve" smooth="yes"/>
      <point x="296" y="-173"/>
      <point x="317" y="-173"/>
      <point x="338" y="-173" type="curve"/>
      <point x="338" y="-135"/>
      <point x="338" y="-100"/>
      <point x="338" y="-63" type="curve" smooth="yes"/>
      <point x="338" y="25" type="line"/>
      <point x="327" y="270"/>
      <point x="326" y="277"/>
      <point x="322" y="281" type="curve" smooth="yes"/>
      <point x="320" y="283"/>
      <point x="318" y="284"/>
      <point x="314" y="284" type="curve"/>
    </contour>
    <contour>
      <point x="236" y="532" type="curve"/>
      <point x="236" y="419" type="line" smooth="yes"/>
      <point x="236" y="413"/>
      <point x="241" y="408"/>
      <point x="247" y="408" type="curve" smooth="yes"/>
      <point x="279" y="408"/>
      <point x="332" y="408"/>
      <point x="364" y="408" type="curve"/>
      <point x="364" y="521" type="line" smooth="yes"/>
      <point x="364" y="527"/>
      <point x="359" y="532"/>
      <point x="353" y="532" type="curve" smooth="yes"/>
      <point x="321" y="532"/>
      <point x="268" y="532"/>
    </contour>
  </outline>
</glyph>
<glyph name="cent" format="1">
  <advance width="600"/>
  <unicode hex="00A2"/>
  <outline>
    <contour>
      <point x="352" y="403" type="line"/>
      <point x="380" y="755" type="line" smooth="yes"/>
      <point x="381" y="764"/>
      <point x="376" y="768"/>
      <point x="370" y="768" type="curve" smooth="yes"/>
      <point x="345" y="768"/>
      <point x="335" y="768"/>
      <point x="311" y="768" type="curve"/>
      <point x="311" y="739"/>
      <point x="311" y="711"/>
      <point x="311" y="683" type="curve"/>
      <point x="311" y="423" type="line" smooth="yes"/>
      <point x="311" y="415"/>
      <point x="315" y="411"/>
      <point x="321" y="409" type="curve" smooth="yes"/>
    </contour>
    <contour>
      <point x="311" y="299" type="line"/>
      <point x="284" y="-53" type="line" smooth="yes"/>
      <point x="283" y="-62"/>
      <point x="288" y="-66"/>
      <point x="294" y="-66" type="curve" smooth="yes"/>
      <point x="318" y="-66"/>
      <point x="328" y="-66"/>
      <point x="352" y="-66" type="curve"/>
      <point x="352" y="-38"/>
      <point x="352" y="-9"/>
      <point x="352" y="19" type="curve"/>
      <point x="352" y="279" type="line" smooth="yes"/>
      <point x="352" y="287"/>
      <point x="348" y="291"/>
      <point x="342" y="292" type="curve" smooth="yes"/>
    </contour>
    <contour>
      <point x="337" y="625" type="curve" smooth="yes"/>
      <point x="201" y="625"/>
      <point x="98" y="550"/>
      <point x="98" y="394" type="curve" smooth="yes"/>
      <point x="98" y="304" type="line" smooth="yes"/>
      <point x="98" y="158"/>
      <point x="182" y="78"/>
      <point x="334" y="78" type="curve" smooth="yes"/>
      <point x="337" y="78"/>
      <point x="350" y="98"/>
      <point x="333" y="131" type="curve"/>
      <point x="214" y="131"/>
      <point x="154" y="192"/>
      <point x="154" y="311" type="curve" smooth="yes"/>
      <point x="154" y="387" type="line" smooth="yes"/>
      <point x="154" y="509"/>
      <point x="213" y="573"/>
      <point x="337" y="573" type="curve" smooth="yes"/>
      <point x="403" y="573"/>
      <point x="444" y="555"/>
      <point x="487" y="527" type="curve"/>
      <point x="499" y="527" type="line"/>
      <point x="499" y="538"/>
      <point x="499" y="551"/>
      <point x="499" y="569" type="curve" smooth="yes"/>
      <point x="499" y="574"/>
      <point x="498" y="577"/>
      <point x="493" y="582" type="curve" smooth="yes"/>
      <point x="478" y="597"/>
      <point x="422" y="625"/>
    </contour>
    <contour>
      <point x="144" y="221" type="curve"/>
      <point x="126" y="153"/>
      <point x="208" y="78"/>
      <point x="334" y="78" type="curve" smooth="yes"/>
      <point x="409" y="78"/>
      <point x="473" y="101"/>
      <point x="496" y="125" type="curve" smooth="yes"/>
      <point x="498" y="127"/>
      <point x="499" y="130"/>
      <point x="499" y="133" type="curve"/>
      <point x="499" y="148"/>
      <point x="499" y="161"/>
      <point x="499" y="176" type="curve"/>
      <point x="487" y="176" type="line"/>
      <point x="440" y="148"/>
      <point x="401" y="131"/>
      <point x="333" y="131" type="curve" smooth="yes"/>
      <point x="239" y="131"/>
      <point x="197" y="161"/>
    </contour>
  </outline>
</glyph>
<glyph name="sterling" format="1">
  <advance width="600"/>
  <unicode hex="00A3"/>
  <outline>
    <contour>
      <point x="355" y="667" type="curve" smooth="yes"/>
      <point x="419" y="667"/>
      <point x="455" y="649"/>
      <point x="503" y="610" type="curve"/>
      <point x="515" y="610" type="line"/>
      <point x="515" y="620"/>
      <point x="515" y="636"/>
      <point x="515" y="659" type="curve" smooth="yes"/>
      <point x="515" y="663"/>
      <point x="514" y="665"/>
      <point x="512" y="667" type="curve" smooth="yes"/>
      <point x="483" y="696"/>
      <point x="427" y="720"/>
      <point x="355" y="720" type="curve" smooth="yes"/>
      <point x="231" y="720"/>
      <point x="168" y="636"/>
      <point x="168" y="548" type="curve" smooth="yes"/>
      <point x="168" y="532" type="line" smooth="yes"/>
      <point x="168" y="515"/>
      <point x="182" y="516"/>
      <point x="224" y="543" type="curve"/>
      <point x="224" y="622"/>
      <point x="270" y="667"/>
    </contour>
    <contour>
      <point x="168" y="532" type="curve" smooth="yes"/>
      <point x="168" y="402"/>
      <point x="168" y="297"/>
      <point x="168" y="160" type="curve" smooth="yes"/>
      <point x="168" y="89"/>
      <point x="124" y="48"/>
      <point x="63" y="48" type="curve" smooth="yes"/>
      <point x="60" y="48"/>
      <point x="57" y="48"/>
      <point x="53" y="48" type="curve"/>
      <point x="49" y="48" type="line"/>
      <point x="49" y="36"/>
      <point x="49" y="26"/>
      <point x="49" y="11" type="curve" smooth="yes"/>
      <point x="49" y="3"/>
      <point x="53" y="0"/>
      <point x="60" y="0" type="curve" smooth="yes"/>
      <point x="65" y="0" type="line" smooth="yes"/>
      <point x="151" y="0"/>
      <point x="224" y="52"/>
      <point x="224" y="170" type="curve" smooth="yes"/>
      <point x="224" y="303"/>
      <point x="224" y="420"/>
      <point x="224" y="543" type="curve" smooth="yes"/>
      <point x="224" y="562"/>
      <point x="224" y="580"/>
      <point x="224" y="599" type="curve"/>
      <point x="192" y="599"/>
      <point x="168" y="574"/>
    </contour>
    <contour>
      <point x="65" y="0" type="curve"/>
      <point x="236" y="0"/>
      <point x="336" y="0"/>
      <point x="465" y="0" type="curve" smooth="yes"/>
      <point x="530" y="0" type="line" smooth="yes"/>
      <point x="538" y="0"/>
      <point x="541" y="3"/>
      <point x="541" y="11" type="curve"/>
      <point x="541" y="24"/>
      <point x="541" y="36"/>
      <point x="541" y="48" type="curve"/>
      <point x="521" y="48" type="line"/>
      <point x="497" y="48"/>
      <point x="480" y="48"/>
      <point x="451" y="48" type="curve" smooth="yes"/>
      <point x="351" y="48"/>
      <point x="281" y="48"/>
      <point x="132" y="48" type="curve"/>
      <point x="64" y="5"/>
      <point x="62" y="0"/>
    </contour>
    <contour>
      <point x="69" y="372" type="line"/>
      <point x="69" y="359"/>
      <point x="69" y="349"/>
      <point x="69" y="337" type="curve" smooth="yes"/>
      <point x="69" y="334"/>
      <point x="70" y="331"/>
      <point x="72" y="329" type="curve" smooth="yes"/>
      <point x="74" y="327"/>
      <point x="77" y="326"/>
      <point x="80" y="326" type="curve" smooth="yes"/>
      <point x="450" y="326" type="line"/>
      <point x="450" y="338"/>
      <point x="450" y="348"/>
      <point x="450" y="361" type="curve" smooth="yes"/>
      <point x="450" y="367"/>
      <point x="445" y="372"/>
      <point x="439" y="372" type="curve" smooth="yes"/>
    </contour>
  </outline>
</glyph>
<glyph name="yen" format="1">
  <advance width="600"/>
  <unicode hex="00A5"/>
  <outline>
    <contour>
      <point x="53" y="451" type="line"/>
      <point x="53" y="438"/>
      <point x="53" y="428"/>
      <point x="53" y="415" type="curve" smooth="yes"/>
      <point x="53" y="412"/>
      <point x="54" y="409"/>
      <point x="56" y="407" type="curve" smooth="yes"/>
      <point x="58" y="405"/>
      <point x="61" y="404"/>
      <point x="64" y="404" type="curve"/>
      <point x="223" y="404" type="line"/>
      <point x="223" y="417"/>
      <point x="223" y="427"/>
      <point x="223" y="440" type="curve" smooth="yes"/>
      <point x="223" y="446"/>
      <point x="218" y="451"/>
      <point x="212" y="451" type="curve"/>
    </contour>
    <contour>
      <point x="377" y="451" type="line"/>
      <point x="377" y="438"/>
      <point x="377" y="428"/>
      <point x="377" y="415" type="curve" smooth="yes"/>
      <point x="377" y="409"/>
      <point x="382" y="404"/>
      <point x="388" y="404" type="curve"/>
      <point x="547" y="404" type="line"/>
      <point x="547" y="417"/>
      <point x="547" y="427"/>
      <point x="547" y="440" type="curve" smooth="yes"/>
      <point x="547" y="446"/>
      <point x="542" y="451"/>
      <point x="536" y="451" type="curve"/>
    </contour>
    <contour>
      <point x="547" y="156" type="line"/>
      <point x="547" y="168"/>
      <point x="547" y="179"/>
      <point x="547" y="191" type="curve" smooth="yes"/>
      <point x="547" y="194"/>
      <point x="546" y="197"/>
      <point x="544" y="199" type="curve" smooth="yes"/>
      <point x="542" y="201"/>
      <point x="539" y="202"/>
      <point x="536" y="202" type="curve"/>
      <point x="53" y="202" type="line"/>
      <point x="53" y="190"/>
      <point x="53" y="179"/>
      <point x="53" y="167" type="curve" smooth="yes"/>
      <point x="53" y="161"/>
      <point x="58" y="156"/>
      <point x="64" y="156" type="curve"/>
    </contour>
    <contour>
      <point x="40" y="700" type="line"/>
      <point x="118" y="559"/>
      <point x="196" y="419"/>
      <point x="274" y="279" type="curve"/>
      <point x="277" y="275"/>
      <point x="284" y="274"/>
      <point x="290" y="274" type="curve"/>
      <point x="303" y="274"/>
      <point x="312" y="298"/>
      <point x="312" y="324" type="curve"/>
      <point x="244" y="445"/>
      <point x="176" y="568"/>
      <point x="109" y="690" type="curve"/>
      <point x="106" y="696"/>
      <point x="103" y="700"/>
      <point x="92" y="700" type="curve" smooth="yes"/>
    </contour>
    <contour>
      <point x="500" y="700" type="line"/>
      <point x="430" y="573"/>
      <point x="360" y="448"/>
      <point x="290" y="321" type="curve"/>
      <point x="279" y="299"/>
      <point x="286" y="276"/>
      <point x="290" y="274" type="curve"/>
      <point x="323" y="274" type="line"/>
      <point x="400" y="411"/>
      <point x="478" y="549"/>
      <point x="555" y="687" type="curve"/>
      <point x="558" y="694"/>
      <point x="553" y="700"/>
      <point x="549" y="700" type="curve"/>
    </contour>
    <contour>
      <point x="328" y="0" type="curve"/>
      <point x="328" y="32"/>
      <point x="328" y="65"/>
      <point x="328" y="100" type="curve" smooth="yes"/>
      <point x="328" y="308" type="line" smooth="yes"/>
      <point x="328" y="314"/>
      <point x="323" y="319"/>
      <point x="272" y="319" type="curve"/>
      <point x="272" y="11" type="line" smooth="yes"/>
      <point x="272" y="8"/>
      <point x="273" y="5"/>
      <point x="275" y="3" type="curve" smooth="yes"/>
      <point x="277" y="1"/>
      <point x="280" y="0"/>
      <point x="283" y="0" type="curve" smooth="yes"/>
      <point x="298" y="0"/>
      <point x="313" y="0"/>
    </contour>
  </outline>
</glyph>
<glyph name="section" format="1">
  <advance width="600"/>
  <unicode hex="00A7"/>
  <outline>
    <contour>
      <point x="317" y="716" type="curve" smooth="yes"/>
      <point x="185" y="716"/>
      <point x="89" y="644"/>
      <point x="89" y="544" type="curve" smooth="yes"/>
      <point x="89" y="498" type="line" smooth="yes"/>
      <point x="89" y="476"/>
      <point x="111" y="452"/>
      <point x="143" y="443" type="curve"/>
      <point x="143" y="459"/>
      <point x="143" y="518"/>
      <point x="143" y="539" type="curve" smooth="yes"/>
      <point x="143" y="615"/>
      <point x="213" y="664"/>
      <point x="317" y="664" type="curve" smooth="yes"/>
      <point x="400" y="664"/>
      <point x="459" y="646"/>
      <point x="493" y="610" type="curve"/>
      <point x="515" y="636"/>
      <point x="517" y="639"/>
      <point x="517" y="643" type="curve" smooth="yes"/>
      <point x="517" y="653"/>
      <point x="515" y="656"/>
      <point x="509" y="662" type="curve" smooth="yes"/>
      <point x="476" y="695"/>
      <point x="405" y="716"/>
    </contour>
    <contour>
      <point x="378" y="365" type="curve" smooth="yes"/>
      <point x="282" y="393" type="line" smooth="yes"/>
      <point x="182" y="422"/>
      <point x="143" y="449"/>
      <point x="143" y="508" type="curve" smooth="yes"/>
      <point x="143" y="528"/>
      <point x="143" y="559"/>
      <point x="143" y="569" type="curve"/>
      <point x="115" y="569"/>
      <point x="89" y="555"/>
      <point x="89" y="498" type="curve" smooth="yes"/>
      <point x="89" y="424"/>
      <point x="135" y="378"/>
      <point x="260" y="341" type="curve" smooth="yes"/>
      <point x="358" y="312" type="line" smooth="yes"/>
      <point x="447" y="285"/>
      <point x="472" y="249"/>
      <point x="472" y="183" type="curve" smooth="yes"/>
      <point x="472" y="164" type="line" smooth="yes"/>
      <point x="472" y="117"/>
      <point x="460" y="95"/>
      <point x="417" y="56" type="curve"/>
      <point x="429" y="47"/>
      <point x="437" y="45"/>
      <point x="447" y="45" type="curve" smooth="yes"/>
      <point x="488" y="45"/>
      <point x="527" y="101"/>
      <point x="527" y="163" type="curve" smooth="yes"/>
      <point x="527" y="194" type="line" smooth="yes"/>
      <point x="527" y="275"/>
      <point x="493" y="332"/>
    </contour>
    <contour>
      <point x="369" y="94" type="curve" smooth="yes"/>
      <point x="272" y="122" type="line" smooth="yes"/>
      <point x="172" y="151"/>
      <point x="143" y="186"/>
      <point x="143" y="244" type="curve" smooth="yes"/>
      <point x="143" y="261" type="line" smooth="yes"/>
      <point x="143" y="321"/>
      <point x="151" y="343"/>
      <point x="211" y="381" type="curve"/>
      <point x="197" y="386"/>
      <point x="188" y="389"/>
      <point x="173" y="389" type="curve" smooth="yes"/>
      <point x="130" y="389"/>
      <point x="89" y="329"/>
      <point x="89" y="263" type="curve" smooth="yes"/>
      <point x="89" y="234" type="line" smooth="yes"/>
      <point x="89" y="160"/>
      <point x="128" y="108"/>
      <point x="254" y="71" type="curve" smooth="yes"/>
      <point x="351" y="42" type="line" smooth="yes"/>
      <point x="440" y="15"/>
      <point x="472" y="-5"/>
      <point x="472" y="-64" type="curve" smooth="yes"/>
      <point x="472" y="-81"/>
      <point x="472" y="-103"/>
      <point x="472" y="-115" type="curve"/>
      <point x="493" y="-115"/>
      <point x="527" y="-86"/>
      <point x="527" y="-68" type="curve"/>
      <point x="527" y="21"/>
      <point x="484" y="61"/>
    </contour>
    <contour>
      <point x="298" y="-250" type="curve" smooth="yes"/>
      <point x="441" y="-250"/>
      <point x="527" y="-182"/>
      <point x="527" y="-82" type="curve" smooth="yes"/>
      <point x="527" y="-68" type="line" smooth="yes"/>
      <point x="527" y="-53"/>
      <point x="502" y="-41"/>
      <point x="472" y="-41" type="curve"/>
      <point x="472" y="-52"/>
      <point x="472" y="-68"/>
      <point x="472" y="-81" type="curve" smooth="yes"/>
      <point x="472" y="-154"/>
      <point x="407" y="-198"/>
      <point x="299" y="-198" type="curve" smooth="yes"/>
      <point x="209" y="-198"/>
      <point x="150" y="-177"/>
      <point x="89" y="-118" type="curve"/>
      <point x="76" y="-118" type="line"/>
      <point x="76" y="-129"/>
      <point x="76" y="-144"/>
      <point x="76" y="-170" type="curve" smooth="yes"/>
      <point x="76" y="-174"/>
      <point x="77" y="-176"/>
      <point x="79" y="-178" type="curve" smooth="yes"/>
      <point x="124" y="-223"/>
      <point x="207" y="-250"/>
    </contour>
    <contour>
      <point x="517" y="521" type="curve"/>
      <point x="517" y="643" type="line" smooth="yes"/>
      <point x="517" y="654"/>
      <point x="513" y="661"/>
      <point x="462" y="661" type="curve"/>
      <point x="462" y="657"/>
      <point x="462" y="654"/>
      <point x="462" y="650" type="curve" smooth="yes"/>
      <point x="462" y="532" type="line" smooth="yes"/>
      <point x="462" y="529"/>
      <point x="463" y="526"/>
      <point x="465" y="524" type="curve" smooth="yes"/>
      <point x="467" y="522"/>
      <point x="470" y="521"/>
      <point x="473" y="521" type="curve" smooth="yes"/>
      <point x="488" y="521"/>
      <point x="502" y="521"/>
    </contour>
  </outline>
</glyph>
<glyph name="copyright" format="1">
  <advance width="600"/>
  <unicode hex="00A9"/>
  <outline>
    <contour>
      <point x="300" y="715" type="curve" smooth="yes"/>
      <point x="125" y="715"/>
      <point x="22" y="614"/>
      <point x="22" y="438" type="curve" smooth="yes"/>
      <point x="22" y="271" type="line" smooth="yes"/>
      <point x="22" y="86"/>
      <point x="121" y="-15"/>
      <point x="300" y="-15" type="curve" smooth="yes"/>
      <point x="305" y="4"/>
      <point x="306" y="24"/>
      <point x="300" y="33" type="curve"/>
      <point x="154" y="33"/>
      <point x="71" y="112"/>
      <point x="71" y="255" type="curve" smooth="yes"/>
      <point x="71" y="446" type="line" smooth="yes"/>
      <point x="71" y="588"/>
      <point x="154" y="667"/>
      <point x="300" y="667" type="curve" smooth="yes"/>
      <point x="341" y="667"/>
      <point x="369" y="667"/>
      <point x="401" y="665" type="curve"/>
      <point x="402" y="696"/>
      <point x="364" y="715"/>
    </contour>
    <contour>
      <point x="300" y="-15" type="curve" smooth="yes"/>
      <point x="475" y="-15"/>
      <point x="578" y="86"/>
      <point x="578" y="262" type="curve" smooth="yes"/>
      <point x="578" y="429" type="line" smooth="yes"/>
      <point x="578" y="614"/>
      <point x="479" y="715"/>
      <point x="300" y="715" type="curve" smooth="yes"/>
      <point x="295" y="696"/>
      <point x="294" y="676"/>
      <point x="300" y="667" type="curve"/>
      <point x="446" y="667"/>
      <point x="529" y="588"/>
      <point x="529" y="445" type="curve" smooth="yes"/>
      <point x="529" y="254" type="line" smooth="yes"/>
      <point x="529" y="112"/>
      <point x="446" y="33"/>
      <point x="300" y="33" type="curve" smooth="yes"/>
      <point x="259" y="33"/>
      <point x="231" y="33"/>
      <point x="199" y="35" type="curve"/>
      <point x="198" y="4"/>
      <point x="236" y="-15"/>
    </contour>
    <contour>
      <point x="308" y="518" type="curve" smooth="yes"/>
      <point x="355" y="518"/>
      <point x="375" y="501"/>
      <point x="396" y="471" type="curve"/>
      <point x="414" y="499"/>
      <point x="419" y="504"/>
      <point x="419" y="511" type="curve" smooth="yes"/>
      <point x="419" y="516"/>
      <point x="418" y="518"/>
      <point x="414" y="522" type="curve" smooth="yes"/>
      <point x="390" y="549"/>
      <point x="356" y="566"/>
      <point x="308" y="566" type="curve" smooth="yes"/>
      <point x="222" y="566"/>
      <point x="172" y="519"/>
      <point x="172" y="431" type="curve" smooth="yes"/>
      <point x="172" y="273" type="line" smooth="yes"/>
      <point x="172" y="244"/>
      <point x="192" y="211"/>
      <point x="222" y="211" type="curve"/>
      <point x="222" y="234"/>
      <point x="222" y="249"/>
      <point x="222" y="274" type="curve" smooth="yes"/>
      <point x="222" y="432" type="line" smooth="yes"/>
      <point x="222" y="490"/>
      <point x="250" y="518"/>
    </contour>
    <contour>
      <point x="306" y="134" type="curve" smooth="yes"/>
      <point x="352" y="134"/>
      <point x="397" y="147"/>
      <point x="415" y="171" type="curve"/>
      <point x="420" y="177"/>
      <point x="421" y="178"/>
      <point x="421" y="190" type="curve" smooth="yes"/>
      <point x="421" y="203"/>
      <point x="421" y="216"/>
      <point x="421" y="232" type="curve"/>
      <point x="412" y="232" type="line"/>
      <point x="384" y="195"/>
      <point x="353" y="182"/>
      <point x="306" y="182" type="curve" smooth="yes"/>
      <point x="244" y="182"/>
      <point x="222" y="208"/>
      <point x="222" y="274" type="curve"/>
      <point x="180" y="281"/>
      <point x="172" y="277"/>
      <point x="172" y="273" type="curve" smooth="yes"/>
      <point x="172" y="185"/>
      <point x="214" y="134"/>
    </contour>
    <contour>
      <point x="419" y="428" type="curve"/>
      <point x="419" y="511" type="line" smooth="yes"/>
      <point x="419" y="519"/>
      <point x="408" y="522"/>
      <point x="370" y="522" type="curve"/>
      <point x="370" y="515"/>
      <point x="370" y="511"/>
      <point x="370" y="506" type="curve" smooth="yes"/>
      <point x="370" y="439" type="line" smooth="yes"/>
      <point x="370" y="432"/>
      <point x="374" y="428"/>
      <point x="381" y="428" type="curve" smooth="yes"/>
      <point x="394" y="428"/>
      <point x="405" y="428"/>
    </contour>
  </outline>
</glyph>
<glyph name="ordfeminine" format="1">
  <advance width="600"/>
  <unicode hex="00AA"/>
  <outline>
    <contour>
      <point x="278" y="758" type="curve" smooth="yes"/>
      <point x="218" y="758"/>
      <point x="151" y="739"/>
      <point x="141" y="729" type="curve" smooth="yes"/>
      <point x="139" y="727"/>
      <point x="139" y="725"/>
      <point x="139" y="722" type="curve" smooth="yes"/>
      <point x="139" y="710"/>
      <point x="139" y="698"/>
      <point x="139" y="686" type="curve"/>
      <point x="149" y="686" type="line"/>
      <point x="187" y="703"/>
      <point x="230" y="712"/>
      <point x="276" y="712" type="curve" smooth="yes"/>
      <point x="378" y="712"/>
      <point x="411" y="685"/>
      <point x="411" y="590" type="curve"/>
      <point x="453" y="578"/>
      <point x="457" y="582"/>
      <point x="457" y="589" type="curve"/>
      <point x="457" y="712"/>
      <point x="402" y="758"/>
    </contour>
    <contour>
      <point x="391" y="706" type="curve"/>
      <point x="406" y="673"/>
      <point x="411" y="653"/>
      <point x="411" y="590" type="curve" smooth="yes"/>
      <point x="411" y="517"/>
      <point x="411" y="444"/>
      <point x="411" y="389" type="curve" smooth="yes"/>
      <point x="411" y="353"/>
      <point x="439" y="317"/>
      <point x="480" y="331" type="curve"/>
      <point x="461" y="345"/>
      <point x="457" y="362"/>
      <point x="457" y="397" type="curve" smooth="yes"/>
      <point x="457" y="455"/>
      <point x="457" y="495"/>
      <point x="457" y="589" type="curve" smooth="yes"/>
      <point x="457" y="656"/>
      <point x="432" y="713"/>
    </contour>
    <contour>
      <point x="518" y="342" type="line"/>
      <point x="509" y="342" type="line"/>
      <point x="506" y="342"/>
      <point x="503" y="342"/>
      <point x="500" y="342" type="curve" smooth="yes"/>
      <point x="472" y="342"/>
      <point x="457" y="360"/>
      <point x="457" y="399" type="curve"/>
      <point x="418" y="407"/>
      <point x="411" y="401"/>
      <point x="411" y="389" type="curve" smooth="yes"/>
      <point x="411" y="326"/>
      <point x="449" y="299"/>
      <point x="503" y="299" type="curve" smooth="yes"/>
      <point x="509" y="299" type="line" smooth="yes"/>
      <point x="515" y="299"/>
      <point x="518" y="302"/>
      <point x="518" y="308" type="curve"/>
    </contour>
    <contour>
      <point x="164" y="418" type="curve" smooth="yes"/>
      <point x="164" y="439" type="line" smooth="yes"/>
      <point x="164" y="476"/>
      <point x="168" y="502"/>
      <point x="190" y="523" type="curve"/>
      <point x="157" y="534"/>
      <point x="118" y="486"/>
      <point x="118" y="436" type="curve" smooth="yes"/>
      <point x="118" y="416" type="line" smooth="yes"/>
      <point x="118" y="336"/>
      <point x="166" y="299"/>
      <point x="246" y="299" type="curve" smooth="yes"/>
      <point x="333" y="299"/>
      <point x="387" y="343"/>
      <point x="418" y="390" type="curve" smooth="yes"/>
      <point x="426" y="403"/>
      <point x="428" y="418"/>
      <point x="427" y="452" type="curve"/>
      <point x="366" y="370"/>
      <point x="320" y="343"/>
      <point x="252" y="343" type="curve" smooth="yes"/>
      <point x="244" y="343" type="line" smooth="yes"/>
      <point x="196" y="343"/>
      <point x="164" y="365"/>
    </contour>
    <contour>
      <point x="421" y="541" type="curve" smooth="yes"/>
      <point x="397" y="551"/>
      <point x="340" y="562"/>
      <point x="264" y="562" type="curve" smooth="yes"/>
      <point x="165" y="562"/>
      <point x="118" y="517"/>
      <point x="118" y="436" type="curve" smooth="yes"/>
      <point x="118" y="427"/>
      <point x="123" y="424"/>
      <point x="164" y="439" type="curve"/>
      <point x="164" y="481"/>
      <point x="184" y="520"/>
      <point x="258" y="520" type="curve" smooth="yes"/>
      <point x="340" y="520"/>
      <point x="379" y="515"/>
      <point x="433" y="504" type="curve"/>
      <point x="433" y="523"/>
      <point x="434" y="536"/>
    </contour>
  </outline>
</glyph>
<glyph name="logicalnot" format="1">
  <advance width="600"/>
  <unicode hex="00AC"/>
  <outline>
    <contour>
      <point x="75" y="413" type="line"/>
      <point x="75" y="398"/>
      <point x="75" y="384"/>
      <point x="75" y="369" type="curve" smooth="yes"/>
      <point x="75" y="366"/>
      <point x="76" y="363"/>
      <point x="78" y="361" type="curve" smooth="yes"/>
      <point x="80" y="359"/>
      <point x="83" y="358"/>
      <point x="86" y="358" type="curve"/>
      <point x="525" y="358" type="line"/>
      <point x="525" y="402" type="line"/>
      <point x="525" y="408"/>
      <point x="520" y="413"/>
      <point x="514" y="413" type="curve"/>
    </contour>
    <contour>
      <point x="525" y="140" type="curve"/>
      <point x="525" y="371" type="line" smooth="yes"/>
      <point x="525" y="377"/>
      <point x="520" y="382"/>
      <point x="514" y="382" type="curve"/>
      <point x="469" y="382" type="line"/>
      <point x="469" y="151" type="line" smooth="yes"/>
      <point x="469" y="145"/>
      <point x="474" y="140"/>
      <point x="480" y="140" type="curve" smooth="yes"/>
      <point x="495" y="140"/>
      <point x="510" y="140"/>
    </contour>
  </outline>
</glyph>
<glyph name="registered" format="1">
  <advance width="600"/>
  <unicode hex="00AE"/>
  <outline>
    <contour>
      <point x="241" y="327" type="curve"/>
      <point x="241" y="355"/>
      <point x="241" y="382"/>
      <point x="241" y="410" type="curve"/>
      <point x="241" y="602" type="line"/>
      <point x="241" y="603"/>
      <point x="241" y="608"/>
      <point x="196" y="608" type="curve"/>
      <point x="196" y="338" type="line" smooth="yes"/>
      <point x="196" y="331"/>
      <point x="200" y="327"/>
      <point x="207" y="327" type="curve" smooth="yes"/>
      <point x="217" y="327"/>
      <point x="230" y="327"/>
    </contour>
    <contour>
      <point x="173" y="635" type="curve"/>
      <point x="173" y="624"/>
      <point x="173" y="613"/>
      <point x="173" y="602" type="curve"/>
      <point x="173" y="595"/>
      <point x="177" y="591"/>
      <point x="184" y="591" type="curve"/>
      <point x="190" y="591"/>
      <point x="200" y="591"/>
      <point x="206" y="591" type="curve" smooth="yes"/>
      <point x="245" y="591"/>
      <point x="294" y="591"/>
      <point x="332" y="591" type="curve" smooth="yes"/>
      <point x="364" y="591"/>
      <point x="378" y="591"/>
      <point x="395" y="591" type="curve"/>
      <point x="395" y="618"/>
      <point x="367" y="635"/>
      <point x="323" y="635" type="curve" smooth="yes"/>
      <point x="279" y="635"/>
      <point x="216" y="635"/>
    </contour>
    <contour>
      <point x="420" y="524" type="curve" smooth="yes"/>
      <point x="420" y="554" type="line" smooth="yes"/>
      <point x="420" y="608"/>
      <point x="388" y="635"/>
      <point x="323" y="635" type="curve"/>
      <point x="310" y="635"/>
      <point x="314" y="628"/>
      <point x="332" y="591" type="curve"/>
      <point x="363" y="591"/>
      <point x="375" y="580"/>
      <point x="375" y="551" type="curve" smooth="yes"/>
      <point x="375" y="520" type="line" smooth="yes"/>
      <point x="375" y="496"/>
      <point x="358" y="480"/>
      <point x="332" y="480" type="curve" smooth="yes"/>
      <point x="307" y="480"/>
      <point x="245" y="480"/>
      <point x="225" y="480" type="curve"/>
      <point x="225" y="467"/>
      <point x="225" y="457"/>
      <point x="225" y="442" type="curve" smooth="yes"/>
      <point x="225" y="439"/>
      <point x="228" y="436"/>
      <point x="231" y="436" type="curve" smooth="yes"/>
      <point x="328" y="436" type="line" smooth="yes"/>
      <point x="386" y="436"/>
      <point x="420" y="473"/>
    </contour>
    <contour>
      <point x="344" y="467" type="line"/>
      <point x="308" y="460"/>
      <point x="304" y="453"/>
      <point x="307" y="446" type="curve" smooth="yes"/>
      <point x="339" y="364" type="line" smooth="yes"/>
      <point x="353" y="329"/>
      <point x="369" y="324"/>
      <point x="401" y="324" type="curve" smooth="yes"/>
      <point x="409" y="324" type="line" smooth="yes"/>
      <point x="417" y="324"/>
      <point x="420" y="327"/>
      <point x="420" y="335" type="curve"/>
      <point x="420" y="345"/>
      <point x="420" y="356"/>
      <point x="420" y="367" type="curve"/>
      <point x="417" y="367" type="line"/>
      <point x="405" y="367"/>
      <point x="410" y="367"/>
      <point x="398" y="367" type="curve"/>
      <point x="386" y="367"/>
      <point x="383" y="369"/>
      <point x="379" y="379" type="curve" smooth="yes"/>
    </contour>
    <contour>
      <point x="300" y="760" type="curve" smooth="yes"/>
      <point x="143" y="760"/>
      <point x="52" y="682"/>
      <point x="52" y="546" type="curve" smooth="yes"/>
      <point x="52" y="416" type="line" smooth="yes"/>
      <point x="52" y="278"/>
      <point x="140" y="202"/>
      <point x="300" y="202" type="curve" smooth="yes"/>
      <point x="305" y="220"/>
      <point x="305" y="240"/>
      <point x="300" y="250" type="curve"/>
      <point x="172" y="250"/>
      <point x="101" y="304"/>
      <point x="101" y="401" type="curve" smooth="yes"/>
      <point x="101" y="553" type="line" smooth="yes"/>
      <point x="101" y="655"/>
      <point x="173" y="712"/>
      <point x="300" y="712" type="curve" smooth="yes"/>
      <point x="339" y="712"/>
      <point x="367" y="712"/>
      <point x="398" y="712" type="curve"/>
      <point x="398" y="742"/>
      <point x="362" y="760"/>
    </contour>
    <contour>
      <point x="300" y="202" type="curve" smooth="yes"/>
      <point x="457" y="202"/>
      <point x="548" y="276"/>
      <point x="548" y="407" type="curve" smooth="yes"/>
      <point x="548" y="536" type="line" smooth="yes"/>
      <point x="548" y="680"/>
      <point x="460" y="760"/>
      <point x="300" y="760" type="curve" smooth="yes"/>
      <point x="295" y="741"/>
      <point x="294" y="723"/>
      <point x="300" y="712" type="curve"/>
      <point x="428" y="712"/>
      <point x="499" y="654"/>
      <point x="499" y="552" type="curve" smooth="yes"/>
      <point x="499" y="400" type="line" smooth="yes"/>
      <point x="499" y="303"/>
      <point x="427" y="250"/>
      <point x="300" y="250" type="curve" smooth="yes"/>
      <point x="261" y="250"/>
      <point x="233" y="250"/>
      <point x="202" y="250" type="curve"/>
      <point x="202" y="220"/>
      <point x="238" y="202"/>
    </contour>
  </outline>
</glyph>
<glyph name="plusminus" format="1">
  <advance width="600"/>
  <unicode hex="00B1"/>
  <outline>
    <contour>
      <point x="75" y="404" type="line"/>
      <point x="75" y="389"/>
      <point x="75" y="375"/>
      <point x="75" y="361" type="curve" smooth="yes"/>
      <point x="75" y="358"/>
      <point x="76" y="355"/>
      <point x="78" y="353" type="curve" smooth="yes"/>
      <point x="80" y="351"/>
      <point x="83" y="350"/>
      <point x="86" y="350" type="curve"/>
      <point x="525" y="350" type="line"/>
      <point x="525" y="364"/>
      <point x="525" y="378"/>
      <point x="525" y="393" type="curve" smooth="yes"/>
      <point x="525" y="399"/>
      <point x="520" y="404"/>
      <point x="514" y="404" type="curve"/>
    </contour>
    <contour>
      <point x="328" y="221" type="curve"/>
      <point x="328" y="521" type="line" smooth="yes"/>
      <point x="328" y="524"/>
      <point x="327" y="527"/>
      <point x="325" y="529" type="curve" smooth="yes"/>
      <point x="323" y="531"/>
      <point x="320" y="532"/>
      <point x="317" y="532" type="curve" smooth="yes"/>
      <point x="302" y="532"/>
      <point x="288" y="532"/>
      <point x="272" y="532" type="curve"/>
      <point x="272" y="503"/>
      <point x="272" y="467"/>
      <point x="272" y="432" type="curve" smooth="yes"/>
      <point x="272" y="232" type="line" smooth="yes"/>
      <point x="272" y="226"/>
      <point x="277" y="221"/>
      <point x="283" y="221" type="curve" smooth="yes"/>
      <point x="298" y="221"/>
      <point x="313" y="221"/>
    </contour>
    <contour>
      <point x="75" y="151" type="line"/>
      <point x="75" y="136"/>
      <point x="75" y="122"/>
      <point x="75" y="107" type="curve" smooth="yes"/>
      <point x="75" y="104"/>
      <point x="76" y="101"/>
      <point x="78" y="99" type="curve" smooth="yes"/>
      <point x="80" y="97"/>
      <point x="83" y="96"/>
      <point x="86" y="96" type="curve"/>
      <point x="525" y="96" type="line"/>
      <point x="525" y="111"/>
      <point x="525" y="125"/>
      <point x="525" y="140" type="curve" smooth="yes"/>
      <point x="525" y="146"/>
      <point x="520" y="151"/>
      <point x="514" y="151" type="curve"/>
    </contour>
  </outline>
</glyph>
<glyph name="twosuperior" format="1">
  <advance width="600"/>
  <unicode hex="00B2"/>
  <outline>
    <contour>
      <point x="307" y="658" type="curve" smooth="yes"/>
      <point x="368" y="658"/>
      <point x="383" y="640"/>
      <point x="383" y="616" type="curve"/>
      <point x="430" y="616"/>
      <point x="436" y="618"/>
      <point x="436" y="623" type="curve" smooth="yes"/>
      <point x="436" y="672"/>
      <point x="389" y="710"/>
      <point x="305" y="710" type="curve" smooth="yes"/>
      <point x="249" y="710"/>
      <point x="204" y="693"/>
      <point x="190" y="678" type="curve" smooth="yes"/>
      <point x="185" y="673"/>
      <point x="185" y="670"/>
      <point x="185" y="664" type="curve" smooth="yes"/>
      <point x="185" y="649"/>
      <point x="185" y="641"/>
      <point x="185" y="628" type="curve"/>
      <point x="197" y="628" type="line"/>
      <point x="229" y="648"/>
      <point x="259" y="658"/>
    </contour>
    <contour>
      <point x="383" y="664" type="curve"/>
      <point x="383" y="650"/>
      <point x="383" y="633"/>
      <point x="383" y="616" type="curve" smooth="yes"/>
      <point x="383" y="589"/>
      <point x="374" y="581"/>
      <point x="303" y="552" type="curve" smooth="yes"/>
      <point x="193" y="507"/>
      <point x="175" y="469"/>
      <point x="175" y="413" type="curve" smooth="yes"/>
      <point x="175" y="397"/>
      <point x="183" y="399"/>
      <point x="224" y="399" type="curve"/>
      <point x="224" y="455"/>
      <point x="231" y="466"/>
      <point x="324" y="507" type="curve" smooth="yes"/>
      <point x="410" y="543"/>
      <point x="436" y="565"/>
      <point x="436" y="614" type="curve" smooth="yes"/>
      <point x="436" y="623" type="line" smooth="yes"/>
      <point x="436" y="647"/>
      <point x="419" y="664"/>
    </contour>
    <contour>
      <point x="440" y="369" type="line"/>
      <point x="440" y="383"/>
      <point x="440" y="393"/>
      <point x="440" y="407" type="curve" smooth="yes"/>
      <point x="440" y="414"/>
      <point x="436" y="418"/>
      <point x="429" y="418" type="curve" smooth="yes"/>
      <point x="222" y="418" type="line" smooth="yes"/>
      <point x="208" y="418"/>
      <point x="193" y="416"/>
      <point x="175" y="413" type="curve"/>
      <point x="175" y="402"/>
      <point x="175" y="391"/>
      <point x="175" y="380" type="curve" smooth="yes"/>
      <point x="175" y="373"/>
      <point x="179" y="369"/>
      <point x="186" y="369" type="curve" smooth="yes"/>
    </contour>
  </outline>
</glyph>
<glyph name="threesuperior" format="1">
  <advance width="600"/>
  <unicode hex="00B3"/>
  <outline>
    <contour>
      <point x="294" y="659" type="curve" smooth="yes"/>
      <point x="340" y="659"/>
      <point x="370" y="644"/>
      <point x="370" y="617" type="curve" smooth="yes"/>
      <point x="370" y="610"/>
      <point x="370" y="605"/>
      <point x="370" y="601" type="curve"/>
      <point x="412" y="601"/>
      <point x="422" y="610"/>
      <point x="422" y="617" type="curve" smooth="yes"/>
      <point x="422" y="626" type="line" smooth="yes"/>
      <point x="422" y="674"/>
      <point x="375" y="711"/>
      <point x="293" y="711" type="curve"/>
      <point x="236" y="711"/>
      <point x="192" y="694"/>
      <point x="177" y="679" type="curve" smooth="yes"/>
      <point x="172" y="674"/>
      <point x="172" y="671"/>
      <point x="172" y="665" type="curve" smooth="yes"/>
      <point x="172" y="650"/>
      <point x="172" y="642"/>
      <point x="172" y="629" type="curve"/>
      <point x="184" y="629" type="line"/>
      <point x="216" y="649"/>
      <point x="246" y="659"/>
    </contour>
    <contour>
      <point x="252" y="528" type="curve" smooth="yes"/>
      <point x="379" y="528"/>
      <point x="422" y="564"/>
      <point x="422" y="617" type="curve" smooth="yes"/>
      <point x="422" y="640"/>
      <point x="392" y="653"/>
      <point x="370" y="653" type="curve"/>
      <point x="370" y="644"/>
      <point x="370" y="634"/>
      <point x="370" y="617" type="curve" smooth="yes"/>
      <point x="370" y="581"/>
      <point x="346" y="562"/>
      <point x="241" y="562" type="curve"/>
      <point x="241" y="556"/>
      <point x="241" y="548"/>
      <point x="241" y="539" type="curve" smooth="yes"/>
      <point x="241" y="532"/>
      <point x="245" y="528"/>
    </contour>
    <contour>
      <point x="252" y="513" type="curve" smooth="yes"/>
      <point x="344" y="513"/>
      <point x="375" y="492"/>
      <point x="375" y="459" type="curve" smooth="yes"/>
      <point x="375" y="448"/>
      <point x="375" y="440"/>
      <point x="375" y="431" type="curve"/>
      <point x="413" y="431"/>
      <point x="427" y="445"/>
      <point x="427" y="459" type="curve" smooth="yes"/>
      <point x="427" y="533"/>
      <point x="344" y="550"/>
      <point x="241" y="550" type="curve"/>
      <point x="241" y="546"/>
      <point x="241" y="536"/>
      <point x="241" y="524" type="curve" smooth="yes"/>
      <point x="241" y="517"/>
      <point x="245" y="513"/>
    </contour>
    <contour>
      <point x="294" y="409" type="curve" smooth="yes"/>
      <point x="246" y="409"/>
      <point x="215" y="416"/>
      <point x="176" y="443" type="curve"/>
      <point x="164" y="443" type="line"/>
      <point x="164" y="431"/>
      <point x="164" y="419"/>
      <point x="164" y="404" type="curve" smooth="yes"/>
      <point x="164" y="397"/>
      <point x="166" y="394"/>
      <point x="170" y="390" type="curve" smooth="yes"/>
      <point x="187" y="375"/>
      <point x="235" y="357"/>
      <point x="292" y="357" type="curve" smooth="yes"/>
      <point x="380" y="357"/>
      <point x="427" y="400"/>
      <point x="427" y="451" type="curve" smooth="yes"/>
      <point x="427" y="459" type="line" smooth="yes"/>
      <point x="427" y="481"/>
      <point x="402" y="478"/>
      <point x="375" y="478" type="curve"/>
      <point x="375" y="473"/>
      <point x="375" y="466"/>
      <point x="375" y="459" type="curve" smooth="yes"/>
      <point x="375" y="425"/>
      <point x="344" y="409"/>
    </contour>
  </outline>
</glyph>
<glyph name="paragraph" format="1">
  <advance width="600"/>
  <unicode hex="00B6"/>
  <outline>
    <contour>
      <point x="358" y="-150" type="curve"/>
      <point x="358" y="657" type="line"/>
      <point x="358" y="663"/>
      <point x="353" y="668"/>
      <point x="347" y="668" type="curve" smooth="yes"/>
      <point x="333" y="668"/>
      <point x="319" y="668"/>
      <point x="305" y="668" type="curve"/>
      <point x="305" y="-139" type="line" smooth="yes"/>
      <point x="305" y="-146"/>
      <point x="309" y="-150"/>
      <point x="316" y="-150" type="curve" smooth="yes"/>
      <point x="330" y="-150"/>
      <point x="344" y="-150"/>
    </contour>
    <contour>
      <point x="511" y="-150" type="curve"/>
      <point x="511" y="-118"/>
      <point x="511" y="-80"/>
      <point x="511" y="-40" type="curve" smooth="yes"/>
      <point x="511" y="657" type="line" smooth="yes"/>
      <point x="511" y="663"/>
      <point x="506" y="668"/>
      <point x="500" y="668" type="curve" smooth="yes"/>
      <point x="485" y="668"/>
      <point x="472" y="668"/>
      <point x="457" y="668" type="curve"/>
      <point x="457" y="-139" type="line" smooth="yes"/>
      <point x="457" y="-146"/>
      <point x="461" y="-150"/>
      <point x="468" y="-150" type="curve" smooth="yes"/>
      <point x="483" y="-150"/>
      <point x="496" y="-150"/>
    </contour>
    <contour>
      <point x="274" y="700" type="line" smooth="yes"/>
      <point x="128" y="700"/>
      <point x="69" y="606"/>
      <point x="69" y="485" type="curve" smooth="yes"/>
      <point x="69" y="400" type="line" smooth="yes"/>
      <point x="69" y="285"/>
      <point x="120" y="201"/>
      <point x="257" y="201" type="curve" smooth="yes"/>
      <point x="330" y="201" type="line" smooth="yes"/>
      <point x="336" y="201"/>
      <point x="338" y="216"/>
      <point x="338" y="252" type="curve"/>
      <point x="275" y="252" type="line" smooth="yes"/>
      <point x="171" y="252"/>
      <point x="129" y="288"/>
      <point x="129" y="400" type="curve" smooth="yes"/>
      <point x="129" y="485" type="line" smooth="yes"/>
      <point x="129" y="596"/>
      <point x="178" y="648"/>
      <point x="291" y="648" type="curve" smooth="yes"/>
      <point x="388" y="648"/>
      <point x="491" y="648"/>
      <point x="553" y="648" type="curve"/>
      <point x="564" y="648" type="line"/>
      <point x="564" y="660"/>
      <point x="564" y="673"/>
      <point x="564" y="689" type="curve" smooth="yes"/>
      <point x="564" y="692"/>
      <point x="563" y="695"/>
      <point x="561" y="697" type="curve" smooth="yes"/>
      <point x="559" y="699"/>
      <point x="556" y="700"/>
      <point x="553" y="700" type="curve" smooth="yes"/>
    </contour>
  </outline>
</glyph>
<glyph name="periodcentered" format="1">
  <advance width="600"/>
  <unicode hex="00B7"/>
  <outline>
    <contour>
      <point x="364" y="239" type="curve"/>
      <point x="364" y="353" type="line" smooth="yes"/>
      <point x="364" y="359"/>
      <point x="359" y="364"/>
      <point x="353" y="364" type="curve" smooth="yes"/>
      <point x="321" y="364"/>
      <point x="268" y="364"/>
      <point x="236" y="364" type="curve"/>
      <point x="236" y="250" type="line" smooth="yes"/>
      <point x="236" y="244"/>
      <point x="241" y="239"/>
      <point x="247" y="239" type="curve" smooth="yes"/>
      <point x="279" y="239"/>
      <point x="332" y="239"/>
    </contour>
  </outline>
</glyph>
